<?xml version="1.0" encoding="utf-8"?>
<!-- Generator: Adobe Illustrator 23.1.1, SVG Export Plug-In . SVG Version: 6.00 Build 0)  -->
<svg version="1.1" id="cofee_mug" xmlns="http://www.w3.org/2000/svg" xmlns:xlink="http://www.w3.org/1999/xlink" x="0px" y="0px"
	 viewBox="0 0 296.8 296.8" style="enable-background:new 0 0 296.8 296.8;" xml:space="preserve">
<style type="text/css">
	.st0{fill:#4DB0DB;}
	.st1{fill:#F27165;}
	.st2{fill:none;stroke:#000000;stroke-width:13;stroke-miterlimit:10;}
	.st3{fill:#FFFFFF;}
</style>
<polygon class="st0" points="9.9,20.2 209.1,20.2 205.6,89 20.8,89 "/>
<polygon class="st1" points="205.6,89 180.6,277 38.6,277 16.9,89 "/>
<path d="M289.9,80.8c-7.2-13.9-22.1-22.5-38.9-22.5c-18,0-33.7,10.5-41.1,25.7l7.1-63.7c0.3-2.3-0.5-4.5-2-6.2
	c-1.5-1.7-3.7-2.7-6-2.7H8c-2.3,0-4.4,1-6,2.7s-2.2,4-2,6.2l28.6,258c0.4,4.1,3.9,7.1,8,7.1h143.8c4.1,0,7.5-3.1,8-7.1l4.7-42.7
	c1.3,2.6,4,4.3,7.1,4.3c4.4,0,8-3.6,8-8c0-4.1,2.7-7.8,10.6-14.7c19.1-16.7,43-38.6,59-60.2c8.3-11.3,14-19.6,17-32.7
	C298.6,107.5,297.2,94.9,289.9,80.8z M200,27.4l-26.8,242H43.8l-26.8-242C16.9,27.4,200,27.4,200,27.4z M279.1,120.6
	c-2.3,9.8-6.3,16-14.3,26.8c-15.1,20.4-38.2,41.6-56.6,57.7c-5.3,4.7-10.5,9.7-13.5,15.9l12.4-112c1.5,1.8,3.7,2.9,6.2,2.9
	c4.4,0,8-3.6,8-8c0-16.4,13.3-29.7,29.7-29.7c8.5,0,19.4,3.6,24.7,13.9C281.2,98.8,282.1,107.6,279.1,120.6z"/>
<line class="st2" x1="14.1" y1="89" x2="200" y2="89"/>
<g>
	<path class="st3" d="M74.3,52.3c0,5.2-3.4,8.3-8.9,8.3h-5.2V43.9h5.2C71,43.9,74.3,47.2,74.3,52.3z M65.5,58.9
		c4.4,0,6.6-2.4,6.6-6.5c0-4.1-2.3-6.6-6.6-6.6h-3v13.2H65.5z"/>
	<path class="st3" d="M82.9,60.9c-3.7,0-6.5-2.6-6.5-6.8c0-4.2,2.7-6.8,6.5-6.8c3.8,0,6.3,2.7,6.3,6.3c0,0.5,0,0.9-0.1,1.3H78.6
		c0.2,2.7,2,4.1,4.3,4.1c2,0,3.2-1,3.7-2.4H89C88.3,59,86.2,60.9,82.9,60.9z M78.7,53.1H87c0-2.6-1.9-4-4.2-4
		C80.7,49.2,78.9,50.6,78.7,53.1z"/>
	<path class="st3" d="M96.8,60.9c-3.1,0-5.2-1.7-5.4-4.1h2.3c0.1,1.3,1.2,2.2,3.1,2.2c1.7,0,2.7-0.9,2.7-1.9c0-2.9-7.8-1.2-7.8-6.1
		c0-2,1.9-3.7,4.8-3.7c2.9,0,4.8,1.6,5,4.1h-2.2c-0.1-1.3-1.1-2.3-2.9-2.3c-1.6,0-2.6,0.8-2.6,1.8c0,3.1,7.6,1.4,7.7,6.1
		C101.6,59.3,99.7,60.9,96.8,60.9z"/>
	<path class="st3" d="M104.3,43.9c0-0.8,0.6-1.5,1.5-1.5c0.8,0,1.4,0.6,1.4,1.5c0,0.8-0.6,1.5-1.4,1.5
		C104.9,45.4,104.3,44.7,104.3,43.9z M104.6,47.5h2.2v13.2h-2.2V47.5z"/>
	<path class="st3" d="M116,47.3c2.4,0,4.1,1.2,4.9,2.6v-2.4h2.2V61c0,3.6-2.4,6.2-6.3,6.2c-3.5,0-5.9-1.8-6.4-4.6h2.2
		c0.5,1.6,2,2.7,4.2,2.7c2.3,0,4.1-1.5,4.1-4.3v-2.8c-0.8,1.4-2.5,2.7-4.9,2.7c-3.5,0-6.2-2.8-6.2-6.8
		C109.7,49.9,112.4,47.3,116,47.3z M116.4,49.2c-2.4,0-4.4,1.8-4.4,4.8c0,3.1,2,4.9,4.4,4.9c2.4,0,4.5-1.8,4.5-4.9
		C120.8,51,118.8,49.2,116.4,49.2z"/>
	<path class="st3" d="M136.4,53.2c0-2.7-1.5-4.1-3.7-4.1c-2.2,0-3.8,1.4-3.8,4.2v7.3h-2.2V47.5h2.2v1.9c0.9-1.4,2.4-2.1,4.2-2.1
		c3,0,5.4,1.9,5.4,5.6v7.8h-2.2V53.2z"/>
	<path class="st3" d="M147.8,60.9c-3.7,0-6.5-2.6-6.5-6.8c0-4.2,2.7-6.8,6.5-6.8c3.8,0,6.3,2.7,6.3,6.3c0,0.5,0,0.9-0.1,1.3h-10.5
		c0.2,2.7,2,4.1,4.3,4.1c2,0,3.2-1,3.7-2.4h2.4C153.2,59,151.1,60.9,147.8,60.9z M143.6,53.1h8.3c0-2.6-1.9-4-4.2-4
		C145.6,49.2,143.8,50.6,143.6,53.1z"/>
	<path class="st3" d="M159.2,60.7H157V47.5h2.2v2.1c0.7-1.5,2.2-2.4,4.2-2.4v2.3h-0.6c-2.1,0-3.7,0.9-3.7,4V60.7z"/>
</g>
<g>
	<path class="st3" d="M64.7,157.8c0,5.2-3.4,8.3-8.9,8.3h-5.2v-16.7h5.2C61.3,149.4,64.7,152.7,64.7,157.8z M55.8,164.4
		c4.4,0,6.6-2.4,6.6-6.5c0-4.1-2.3-6.6-6.6-6.6h-3v13.2H55.8z"/>
	<path class="st3" d="M73.2,166.4c-3.7,0-6.5-2.6-6.5-6.8c0-4.2,2.7-6.8,6.5-6.8c3.8,0,6.3,2.7,6.3,6.3c0,0.5,0,0.9-0.1,1.3H69
		c0.2,2.7,2,4.1,4.3,4.1c2,0,3.2-1,3.7-2.4h2.4C78.6,164.5,76.5,166.4,73.2,166.4z M69,158.6h8.3c0-2.6-1.9-4-4.2-4
		C71,154.7,69.2,156.1,69,158.6z"/>
	<path class="st3" d="M83.2,153l4.1,11.1l4.1-11.1h2.3l-5.2,13.2H86L80.9,153H83.2z"/>
	<path class="st3" d="M101.6,166.4c-3.7,0-6.5-2.6-6.5-6.8c0-4.2,2.7-6.8,6.5-6.8c3.8,0,6.3,2.7,6.3,6.3c0,0.5,0,0.9-0.1,1.3H97.3
		c0.2,2.7,2,4.1,4.3,4.1c2,0,3.2-1,3.7-2.4h2.4C107,164.5,104.8,166.4,101.6,166.4z M97.3,158.6h8.3c0-2.6-1.9-4-4.2-4
		C99.3,154.7,97.6,156.1,97.3,158.6z"/>
	<path class="st3" d="M110.8,148.4h2.2v17.8h-2.2V148.4z"/>
	<path class="st3" d="M122.4,166.4c-3.7,0-6.6-2.6-6.6-6.8c0-4.2,2.9-6.8,6.6-6.8c3.7,0,6.6,2.6,6.6,6.8
		C129.2,163.8,126.2,166.4,122.4,166.4z M122.4,164.5c2.3,0,4.5-1.6,4.5-4.9c0-3.3-2.2-4.9-4.4-4.9c-2.3,0-4.4,1.6-4.4,4.9
		C118.1,162.9,120.1,164.5,122.4,164.5z"/>
	<path class="st3" d="M139.1,152.8c3.5,0,6.2,2.6,6.2,6.7c0,4.1-2.7,6.8-6.2,6.8c-2.4,0-4.1-1.3-4.9-2.6v8.7H132V153h2.2v2.4
		C135,154.1,136.7,152.8,139.1,152.8z M138.7,154.7c-2.4,0-4.5,1.8-4.5,4.9c0,3.1,2.1,4.9,4.5,4.9c2.4,0,4.5-1.8,4.5-4.9
		C143.1,156.5,141.1,154.7,138.7,154.7z"/>
	<path class="st3" d="M153.9,166.4c-3.7,0-6.5-2.6-6.5-6.8c0-4.2,2.7-6.8,6.5-6.8c3.8,0,6.3,2.7,6.3,6.3c0,0.5,0,0.9-0.1,1.3h-10.5
		c0.2,2.7,2,4.1,4.3,4.1c2,0,3.2-1,3.7-2.4h2.4C159.3,164.5,157.2,166.4,153.9,166.4z M149.7,158.6h8.3c0-2.6-1.9-4-4.2-4
		C151.7,154.7,149.9,156.1,149.7,158.6z"/>
	<path class="st3" d="M165.3,166.2h-2.2V153h2.2v2.1c0.7-1.5,2.2-2.4,4.2-2.4v2.3H169c-2.1,0-3.7,0.9-3.7,4V166.2z"/>
</g>
</svg>
