<?xml version="1.0" encoding="utf-8"?>
<!-- Generator: Adobe Illustrator 24.0.1, SVG Export Plug-In . SVG Version: 6.00 Build 0)  -->
<svg version="1.1" id="Layer_1" xmlns="http://www.w3.org/2000/svg" xmlns:xlink="http://www.w3.org/1999/xlink" x="0px" y="0px"
	 viewBox="0 0 881.3 233.7" style="enable-background:new 0 0 881.3 233.7;" xml:space="preserve">
<style type="text/css">
	.st0{enable-background:new    ;}
	.st1{fill:#231F20;}
	.st2{fill:#00ACED;stroke:#00ACED;stroke-width:5;stroke-linecap:round;stroke-miterlimit:10;}
	.st3{fill:#231F20;stroke:#00ACED;stroke-width:5;stroke-linecap:round;stroke-miterlimit:10;}
</style>
<title>modern_link_logo</title>
<g id="Text">
	<g class="st0">
		<path class="st1" d="M213.3,26.9l24,55.1l24.1-55.1h3.2v58.3h-2.2V30.1l-24.2,55.1h-1.7l-24.1-54.8v54.8h-2.2V26.9H213.3z"/>
		<path class="st1" d="M335.7,60.4c0,3.8-0.5,7.3-1.5,10.4c-1,3.1-2.5,5.8-4.4,8.1c-1.9,2.2-4.2,4-6.9,5.2c-2.7,1.2-5.7,1.9-9.1,1.9
			c-3.3,0-6.4-0.6-9.1-1.9c-2.7-1.2-5-3-6.9-5.2s-3.4-4.9-4.4-8.1s-1.6-6.6-1.6-10.4v-8.7c0-3.8,0.5-7.3,1.5-10.4
			c1-3.1,2.5-5.8,4.4-8.1c1.9-2.2,4.2-4,6.9-5.2c2.7-1.2,5.7-1.9,9.1-1.9c3.4,0,6.4,0.6,9.1,1.9c2.7,1.2,5,3,6.9,5.2
			c1.9,2.2,3.4,4.9,4.4,8.1c1,3.2,1.6,6.6,1.6,10.4V60.4z M333.6,51.6c0-3.4-0.4-6.6-1.3-9.4c-0.9-2.9-2.2-5.3-3.9-7.4
			c-1.7-2.1-3.8-3.7-6.2-4.8c-2.5-1.1-5.3-1.7-8.4-1.7c-3.1,0-5.9,0.6-8.3,1.7c-2.4,1.1-4.5,2.8-6.2,4.8c-1.7,2.1-3,4.5-3.9,7.4
			c-0.9,2.9-1.3,6-1.3,9.4v8.8c0,3.4,0.4,6.6,1.3,9.5c0.9,2.9,2.2,5.3,3.9,7.4c1.7,2.1,3.8,3.7,6.2,4.8c2.5,1.1,5.2,1.7,8.4,1.7
			c3.1,0,6-0.6,8.4-1.7c2.5-1.1,4.5-2.8,6.2-4.8c1.7-2.1,3-4.5,3.8-7.4s1.3-6,1.3-9.5V51.6z"/>
		<path class="st1" d="M363,85.2V26.9h16.1c3.4,0,6.6,0.6,9.6,1.9c2.9,1.2,5.5,3,7.6,5.2c2.1,2.3,3.8,5,5,8.1
			c1.2,3.1,1.8,6.6,1.8,10.4v7.1c0,3.8-0.6,7.3-1.8,10.4c-1.2,3.1-2.9,5.8-5,8.1c-2.1,2.3-4.7,4-7.6,5.2c-2.9,1.2-6.1,1.9-9.6,1.9
			H363z M365.2,29v54h14c3.1,0,6-0.6,8.7-1.7c2.7-1.2,5-2.8,6.9-4.8c1.9-2.1,3.5-4.5,4.6-7.4c1.1-2.9,1.7-6,1.7-9.4v-7.2
			c0-3.4-0.6-6.5-1.7-9.4c-1.1-2.9-2.6-5.3-4.6-7.4c-1.9-2.1-4.3-3.7-6.9-4.8c-2.7-1.2-5.6-1.7-8.7-1.7H365.2z"/>
		<path class="st1" d="M462,56.3h-29.2V83h33.3v2.2h-35.5V26.9h35.5V29h-33.3v25.1H462V56.3z"/>
		<path class="st1" d="M513.4,60.2h-20.2v24.9H491V26.9h18.6c2.8,0,5.3,0.4,7.7,1.1c2.3,0.7,4.4,1.8,6.1,3.2c1.7,1.4,3,3.2,4,5.3
			s1.4,4.5,1.4,7.2c0,2.1-0.3,4-1,5.8c-0.7,1.8-1.6,3.4-2.8,4.8c-1.2,1.4-2.6,2.6-4.2,3.5c-1.6,0.9-3.3,1.6-5.1,1.9l15.6,24.9v0.6
			h-2.3L513.4,60.2z M493.2,58.1h18.4c2.5,0,4.7-0.4,6.5-1.2c1.9-0.8,3.5-1.9,4.7-3.2c1.3-1.3,2.2-2.9,2.8-4.6
			c0.6-1.7,0.9-3.5,0.9-5.3c0-2.3-0.4-4.4-1.2-6.2c-0.8-1.8-1.9-3.3-3.4-4.6c-1.5-1.3-3.3-2.2-5.3-2.9c-2.1-0.7-4.4-1-7-1h-16.4
			V58.1z"/>
		<path class="st1" d="M600.8,85.2h-2.2L561,30.5v54.6h-2.2V26.9h2.2l37.6,54.5V26.9h2.2V85.2z"/>
		<path class="st1" d="M666.5,83h29.9v2.2h-32.1V26.9h2.2V83z"/>
		<path class="st1" d="M724.4,85.2h-2.2V26.9h2.2V85.2z"/>
		<path class="st1" d="M797.9,85.2h-2.2l-37.6-54.6v54.6h-2.2V26.9h2.2l37.6,54.5V26.9h2.2V85.2z"/>
		<path class="st1" d="M839.4,54.5l-9.3,8.6v22.1h-2.2V26.9h2.2v33.7l9.5-9.3l24.3-24.4h3.1L841,53l28,32.2h-2.8L839.4,54.5z"/>
	</g>
	<g class="st0">
		<path class="st1" d="M398,109.5l21,50.2l21.1-50.2h6.4v56.9h-4.8v-24.8l0.4-25.3l-21.2,50.2h-3.7l-21.1-50l0.4,25.1v24.8h-4.8
			v-56.9H398z"/>
		<path class="st1" d="M492.2,139.1h-26.6v23.2h30.6v4.1h-35.4v-56.9H496v4.1h-30.4V135h26.6V139.1z"/>
		<path class="st1" d="M506.3,166.3v-56.9h15.9c3.5,0,6.8,0.6,9.8,1.8c3,1.2,5.5,3,7.7,5.2s3.8,5,5,8.2c1.2,3.2,1.8,6.7,1.8,10.6
			v5.2c0,3.9-0.6,7.4-1.8,10.6c-1.2,3.2-2.9,5.9-5,8.1c-2.2,2.3-4.8,4-7.8,5.2c-3,1.2-6.4,1.8-10,1.8H506.3z M511.1,113.6v48.7h10.8
			c3,0,5.8-0.5,8.2-1.6c2.4-1.1,4.5-2.5,6.2-4.5s3-4.2,4-6.9c0.9-2.7,1.4-5.6,1.4-8.8v-5.3c0-3.3-0.5-6.3-1.4-8.9
			c-0.9-2.7-2.3-4.9-4-6.8c-1.7-1.9-3.8-3.3-6.2-4.4c-2.4-1-5.1-1.5-8-1.5H511.1z"/>
		<path class="st1" d="M564.6,166.3h-4.8v-56.9h4.8V166.3z"/>
		<path class="st1" d="M611.4,150.4h-25.8l-5.9,15.9h-5l21.5-56.9h4.6l21.5,56.9h-5L611.4,150.4z M587.1,146.3h22.8l-11.4-31
			L587.1,146.3z"/>
	</g>
</g>
<g id="Graphic">
	<path id="Line_1" class="st2" d="M11.3,129.5c0,2.4-2,4.4-4.4,4.4c-2.4,0-4.4-2-4.4-4.4c0-2.4,2-4.4,4.4-4.4c0,0,0,0,0,0
		C9.4,125.1,11.3,127.1,11.3,129.5z M77.9,222.3c-2.4,0-4.4,2-4.4,4.4c0,2.4,2,4.4,4.4,4.4c2.4,0,4.4-2,4.4-4.4c0,0,0,0,0,0
		C82.3,224.3,80.3,222.4,77.9,222.3L77.9,222.3z M7,129.7l70.5,96.5"/>
	<path id="Line_2" class="st2" d="M188.6,178c0,2.4-2,4.4-4.4,4.4s-4.4-2-4.4-4.4s2-4.4,4.4-4.4l0,0
		C186.6,173.6,188.6,175.5,188.6,178C188.6,178,188.6,178,188.6,178z M7.5,129.7l177,49.5"/>
	<path id="Line_3" class="st2" d="M145.4,6.9c0,2.4-2,4.4-4.4,4.4s-4.4-2-4.4-4.4s2-4.4,4.4-4.4c0,0,0,0,0,0
		C143.5,2.5,145.4,4.5,145.4,6.9C145.4,6.9,145.4,6.9,145.4,6.9z M184.4,179.2L141,6.8"/>
	<path id="Line_4" class="st2" d="M61.5,84.8c0,2.4-2,4.4-4.4,4.4c-2.4,0-4.4-2-4.4-4.4c0-2.4,2-4.4,4.4-4.4l0,0
		C59.5,80.4,61.5,82.4,61.5,84.8z M141.2,6.8l-84.1,78"/>
	<path id="Line_5" class="st3" d="M57,84.8l307.5,89.8 M365.2,170.4c-2.4,0-4.4,2-4.4,4.4s2,4.4,4.4,4.4c2.4,0,4.4-2,4.4-4.4
		C369.7,172.4,367.7,170.4,365.2,170.4L365.2,170.4z"/>
</g>
</svg>
