<?xml version="1.0" encoding="utf-8"?>
<!-- Generator: Adobe Illustrator 24.0.3, SVG Export Plug-In . SVG Version: 6.00 Build 0)  -->
<svg version="1.1" id="Layer_1" xmlns="http://www.w3.org/2000/svg" xmlns:xlink="http://www.w3.org/1999/xlink" x="0px" y="0px"
	 viewBox="0 0 500 229" style="enable-background:new 0 0 500 229;" xml:space="preserve">
<style type="text/css">
	.st0{clip-path:url(#SVGID_2_);}
	.st1{fill:#79ACBB;}
	.st2{fill:#0B5730;}
	.st3{fill:#276AAA;}
	.st4{fill:none;stroke:#FFFFFF;stroke-width:3;stroke-miterlimit:10;}
	.st5{fill:#FFFFFF;stroke:#FFFFFF;stroke-width:3;stroke-miterlimit:10;}
</style>
<title>logo</title>
<g>
	<g>
		<defs>
			<path id="SVGID_1_" d="M56,138.5c-1.7,2.3-4.8,2.7-7.1,1.1c-0.4-0.3-0.7-0.6-1-1c-2.9-3.7-5.6-7.2-8.2-10.8
				C28.5,112.3,18.1,96.2,11,78.2C7.2,68.8,4.5,59,5,48.7C5.9,28,21.3,9.7,41.5,5.4C67.8-0.3,92.8,16,98.1,42.5
				c1.9,9.4,0.4,18.6-2.5,27.7c-5.2,16.3-13.4,31-22.9,45.1C67.4,123.1,61.8,130.6,56,138.5z M51.9,25.4c-12.6-0.1-23,10-23.1,22.7
				c0,0.2,0,0.4,0,0.5c0.1,13,10.4,23,23.6,22.9C64.9,71.4,75,60.9,74.9,48.1C74.9,35.5,64.6,25.3,51.9,25.4
				C51.9,25.3,51.9,25.3,51.9,25.4z"/>
		</defs>
		<clipPath id="SVGID_2_">
			<use xlink:href="#SVGID_1_"  style="overflow:visible;"/>
		</clipPath>
		<g class="st0">
			<polygon class="st1" points="-2.3,63.4 -7.1,-8.9 87.7,-27.1 132.8,-0.8 98.3,93.1 -7.6,100.8 			"/>
			<polygon class="st2" points="3.5,42.1 108.8,42.9 81.2,149.7 38.1,164.8 -9.3,65.1 			"/>
			<polygon class="st2" points="9.1,44.9 17.8,44.9 12.8,35.7 7.9,44.9 			"/>
			<polygon class="st2" points="9.1,41 17.8,41 12.8,31.9 7.9,41 			"/>
			<polygon class="st2" points="9.1,36.7 17.8,36.7 12.8,27.5 7.9,36.7 			"/>
			<polygon class="st2" points="24.2,44.9 32.9,44.9 28,35.7 23.1,44.9 			"/>
			<polygon class="st2" points="24.2,41 32.9,41 28,31.9 23.1,41 			"/>
			<polygon class="st2" points="24.2,36.7 32.9,36.7 28,27.5 23.1,36.7 			"/>
			<path class="st3" d="M-7.6,41.1c0,0,39.5-2.4,41.3,13.2C35.6,70.2,47,94.8,67,93.2c15.8-1.2,37.7,18.9,19.4,46.8
				s-43.8-1.9-63.7-28.4S-7.6,41.1-7.6,41.1z"/>
			<polygon class="st2" points="87.6,44.9 96.3,44.9 91.3,35.7 86.4,44.9 			"/>
			<polygon class="st2" points="87.6,41 96.3,41 91.3,31.9 86.4,41 			"/>
			<polygon class="st2" points="87.6,36.7 96.3,36.7 91.3,27.5 86.4,36.7 			"/>
			<polygon class="st2" points="75.5,44.9 84.2,44.9 79.3,35.7 74.4,44.9 			"/>
			<polygon class="st2" points="75.5,41 84.2,41 79.3,31.9 74.4,41 			"/>
			<polygon class="st2" points="75.5,36.7 84.2,36.7 79.3,27.5 74.4,36.7 			"/>
			<path class="st4" d="M4.1,41.2c2.1-1.1,7.6,2,11.3,12.8c2.1,6.1,9.8,38.8,25.7,39.2c9.7,0.2,30-2.2,37.4,2.5c0,0,7.8,4.5,7.9,6.6
				"/>
			<path class="st4" d="M6,41.3c2.1-1.1,16.8,1.3,20.4,12c2.1,6.1,9.8,38.4,25.7,39.2c9.4,0.5,20.2,0.2,21.4,1.1"/>
		</g>
	</g>
</g>
<g id="ontario_summer">
	<path class="st5" d="M110,39.8c-0.1-4.5,0.7-8.9,2.3-13.1c2.8-7.2,8.6-12.8,15.8-15.3c7.6-2.7,15.9-2.7,23.6,0
		c3.5,1.3,6.8,3.3,9.5,5.8c2.8,2.7,5,5.9,6.4,9.5c1.6,4.2,2.4,8.6,2.4,13.1c0.1,4.5-0.7,8.9-2.3,13.1c-1.4,3.6-3.5,6.9-6.3,9.6
		c-2.7,2.6-6,4.6-9.5,5.8c-3.8,1.4-7.9,2-11.9,2c-4.1,0.1-8.1-0.6-11.9-2c-3.5-1.3-6.8-3.3-9.5-5.9c-2.7-2.7-4.9-6-6.2-9.6
		C110.7,48.6,109.9,44.2,110,39.8z M127,39.8c0,5.8,1.2,10,3.5,12.9c4.6,5.2,12.5,5.7,17.7,1.1c0.4-0.4,0.8-0.7,1.1-1.1
		c2.3-2.8,3.5-7.1,3.5-12.9s-1.1-10-3.4-12.8c-2.3-2.8-5.8-4.4-9.4-4.3c-3.6-0.1-7.1,1.4-9.4,4.2C128.3,29.7,127.1,34,127,39.8
		L127,39.8z"/>
	<path class="st5" d="M231.4,66.6c-1.1,1-2.4,1.7-3.8,2c-2,0.5-4,0.7-6,0.7c-2.2,0-4.5-0.3-6.6-1s-3.8-2.4-5.1-5l-9.4-19.1
		c-0.9-2-1.8-3.8-2.6-5.5s-1.6-3.7-2.5-6l-0.6,0.1c0.3,3.4,0.4,6.9,0.4,10.4s0,7,0.1,10.4v14.6c-1,0.3-2.1,0.4-3.2,0.6
		c-1.4,0.2-2.8,0.3-4.2,0.3c-1.2,0-2.5-0.1-3.7-0.3c-1-0.1-1.9-0.5-2.6-1.1c-0.7-0.6-1.3-1.4-1.7-2.3c-0.4-1.2-0.6-2.5-0.6-3.8V14.1
		c1-1.4,2.4-2.4,4.1-2.9c1.9-0.6,3.9-1,5.9-0.9c2.3,0,4.5,0.4,6.7,1.1c2.3,0.9,4.1,2.7,5.1,5l9.5,19.1c0.9,2,1.8,3.8,2.6,5.5
		s1.6,3.7,2.5,6l0.5-0.1c-0.2-3.4-0.4-6.8-0.5-10.2s-0.1-6.8-0.1-10.2V11.2c1-0.3,2.1-0.4,3.2-0.6c1.4-0.2,2.8-0.3,4.2-0.3
		c2.2-0.1,4.4,0.4,6.4,1.5c1.4,1,2.2,3,2.2,6.1L231.4,66.6z"/>
	<path class="st5" d="M241.1,24.4c-0.5-0.9-0.9-1.8-1.2-2.8c-0.4-1.2-0.6-2.5-0.6-3.8c0-2.5,0.6-4.2,1.7-5.3
		c1.2-1.1,2.7-1.7,4.3-1.6h41.3c0.5,0.9,0.9,1.8,1.2,2.8c0.4,1.2,0.6,2.5,0.6,3.8c0,2.5-0.6,4.2-1.7,5.3c-1.2,1.1-2.7,1.7-4.3,1.6
		h-10.5v43.7c-1.1,0.3-2.2,0.5-3.3,0.6c-1.5,0.2-2.9,0.3-4.4,0.3c-1.3,0-2.6-0.1-3.8-0.3c-1-0.2-2-0.6-2.8-1.2s-1.4-1.4-1.7-2.4
		c-0.4-1.3-0.6-2.6-0.6-4V24.4H241.1z"/>
	<path class="st5" d="M304.9,12.9c1.5-0.8,3.2-1.4,4.9-1.8c2.1-0.6,4.4-0.8,6.6-0.9c2.9-0.1,5.7,0.4,8.4,1.4
		c2.1,0.6,3.9,2.2,4.7,4.3c1.1,3.3,2.4,7.1,3.7,11.4s2.7,8.9,4,13.5c1.3,4.7,2.6,9.2,3.9,13.7s2.4,8.5,3.3,12
		c-0.9,1-2.1,1.7-3.4,2.1c-1.7,0.6-3.6,0.9-5.4,0.8c-1.3,0-2.6-0.1-3.8-0.4c-0.9-0.2-1.8-0.6-2.6-1.1c-0.7-0.5-1.2-1.2-1.6-2
		c-0.4-0.9-0.8-1.9-1.1-2.8l-1.7-6.5h-17.1c-0.5,1.9-1,3.8-1.5,5.9s-1,4-1.5,5.9c-0.9,0.3-1.8,0.6-2.8,0.8c-1.2,0.2-2.4,0.3-3.5,0.3
		c-3.2,0-5.6-0.6-7.1-1.7c-1.5-1-2.4-2.8-2.3-4.6c0-0.9,0.1-1.8,0.3-2.6c0.2-0.9,0.5-1.9,0.9-3.1c0.4-1.7,1-3.8,1.8-6.3
		s1.7-5.3,2.6-8.2s2-6,3-9l3-8.8c1-2.8,1.8-5.2,2.6-7.3S304.4,14,304.9,12.9z M316.2,25.1c-0.9,2.6-1.9,5.6-3,8.9s-2.1,6.5-3,9.9
		H322c-0.9-3.4-1.8-6.7-2.7-10c-0.9-3.2-1.8-6.2-2.5-8.8L316.2,25.1z"/>
	<path class="st5" d="M368.5,50v18.2c-1.1,0.3-2.2,0.4-3.3,0.6c-1.5,0.2-2.9,0.3-4.4,0.3c-1.3,0-2.6-0.1-3.8-0.3
		c-1-0.2-1.9-0.6-2.8-1.2c-0.8-0.6-1.3-1.4-1.7-2.4c-0.4-1.3-0.6-2.6-0.6-4V16.6c-0.1-1.1,0.3-2.2,1.1-3.1c0.9-0.8,1.9-1.4,3-1.8
		c2.4-0.8,4.9-1.4,7.5-1.7c3-0.4,6.1-0.5,9.1-0.5c8.7,0,15.3,1.8,19.7,5.5c4.4,3.7,6.6,8.6,6.6,14.9c0.1,3.6-1,7.1-3,10
		c-1.9,2.7-4.3,4.9-7.2,6.4c2.3,3.1,4.5,6,6.7,8.7c1.9,2.3,3.7,4.8,5.2,7.4c-0.5,2-1.7,3.8-3.5,5.1c-1.6,1.2-3.6,1.8-5.6,1.8
		c-1.2,0-2.4-0.1-3.6-0.5c-1-0.3-1.8-0.7-2.6-1.3c-0.8-0.6-1.5-1.3-2.1-2.1c-0.6-0.8-1.2-1.7-1.8-2.7l-8-12.8L368.5,50z M374.5,37.4
		c2.1,0.1,4.1-0.5,5.7-1.8c1.5-1.4,2.2-3.4,2.1-5.5c0.1-2.1-0.7-4.1-2.3-5.4c-1.5-1.2-4-1.9-7.3-1.9c-0.8,0-1.5,0-2.3,0.1
		c-0.6,0.1-1.2,0.2-1.9,0.3v14.2H374.5z"/>
	<path class="st5" d="M426.3,68.2c-1.1,0.3-2.2,0.4-3.3,0.6c-1.5,0.2-2.9,0.3-4.4,0.3c-1.3,0-2.6-0.1-3.8-0.3
		c-1-0.2-1.9-0.6-2.8-1.2c-0.8-0.6-1.4-1.4-1.7-2.4c-0.4-1.3-0.6-2.6-0.6-4v-50c0.7-0.1,1.8-0.3,3.3-0.5c1.4-0.2,2.9-0.3,4.4-0.3
		c1.3,0,2.6,0.1,3.8,0.3c1,0.2,1.9,0.6,2.8,1.2c0.8,0.6,1.4,1.4,1.7,2.4c0.4,1.3,0.6,2.6,0.6,4V68.2z"/>
	<path class="st5" d="M435.7,39.8c-0.1-4.5,0.7-8.9,2.3-13.1c2.8-7.2,8.5-12.8,15.8-15.3c7.6-2.6,15.9-2.6,23.6,0
		c3.5,1.3,6.8,3.3,9.5,5.8c2.8,2.7,5,5.9,6.4,9.5c1.6,4.2,2.4,8.6,2.3,13.1c0.1,4.5-0.7,8.9-2.3,13.1c-1.4,3.6-3.5,6.9-6.3,9.6
		c-2.7,2.6-6,4.6-9.5,5.8c-3.8,1.4-7.9,2-11.9,2c-4.1,0.1-8.1-0.6-11.9-2c-3.5-1.3-6.8-3.3-9.5-5.9c-2.7-2.7-4.9-6-6.3-9.6
		C436.4,48.6,435.7,44.2,435.7,39.8z M452.7,39.8c0,5.8,1.2,10,3.5,12.9c4.6,5.2,12.5,5.7,17.7,1.1c0.4-0.4,0.8-0.7,1.1-1.1
		c2.3-2.8,3.5-7.1,3.5-12.9s-1.1-10-3.4-12.8s-5.8-4.4-9.4-4.3c-3.6-0.1-7.1,1.4-9.4,4.2C454,29.7,452.8,34,452.7,39.8L452.7,39.8z"
		/>
	<path class="st5" d="M129.2,118c-2.8-0.9-5.3-1.9-7.6-2.9c-2.1-0.9-4.1-2.1-5.9-3.6c-1.6-1.4-2.9-3.1-3.8-5c-1-2.2-1.4-4.6-1.4-7
		c-0.2-5,2.2-9.9,6.2-12.9c4.1-3.2,9.9-4.8,17.4-4.8c2.5,0,5.1,0.2,7.6,0.6c2.1,0.3,4.1,0.9,6,1.8c1.5,0.7,2.9,1.7,3.9,3
		s1.4,2.8,1.4,4.4c0,1.5-0.4,2.9-1.1,4.2c-0.7,1.2-1.7,2.2-2.8,3c-1.7-1-3.6-1.8-5.6-2.3c-2.5-0.7-5.1-1-7.7-1
		c-2.9,0-4.9,0.4-6.3,1.2c-1.2,0.5-1.9,1.7-2,3c0,0.9,0.5,1.8,1.2,2.3c1.1,0.7,2.4,1.3,3.7,1.7l5,1.6c5.9,1.9,10.5,4.3,13.7,7.2
		c3.2,2.9,4.8,6.9,4.8,12c0.1,5.1-2.3,10-6.4,13c-4.2,3.3-10.4,5-18.7,5c-2.7,0-5.4-0.2-8.1-0.7c-2.3-0.4-4.5-1.1-6.5-2.1
		c-1.7-0.8-3.2-2-4.3-3.4c-1-1.3-1.6-3-1.6-4.7s0.5-3.4,1.6-4.7c1-1.2,2.2-2.2,3.5-3c2,1.5,4.2,2.7,6.5,3.6c2.7,1,5.5,1.5,8.4,1.5
		c3.1,0,5.3-0.5,6.5-1.4c1.1-0.7,1.9-2,1.9-3.3c0-1.2-0.5-2.3-1.5-2.9c-1.3-0.8-2.8-1.5-4.3-1.9L129.2,118z"/>
	<path class="st5" d="M215.9,119.7c0,3.2-0.6,6.4-1.8,9.3c-1.1,2.8-2.9,5.2-5.1,7.2c-2.3,2.1-5,3.6-8,4.6c-7,2.1-14.4,2.1-21.4,0
		c-3-1-5.7-2.5-8.1-4.6c-2.2-2-3.9-4.4-5.1-7.2c-1.2-3-1.8-6.1-1.8-9.3V83.5c0.7-0.1,1.8-0.3,3.3-0.5c1.4-0.2,2.9-0.3,4.4-0.3
		c1.3,0,2.6,0.1,3.8,0.3c1,0.2,2,0.6,2.8,1.2s1.4,1.4,1.7,2.4c0.4,1.3,0.6,2.6,0.6,4v28.9c-0.2,2.6,0.8,5.2,2.5,7.1
		c3.7,3.4,9.3,3.4,13,0c1.7-1.9,2.6-4.5,2.5-7.1v-36c0.7-0.1,1.8-0.3,3.3-0.5c1.4-0.2,2.9-0.3,4.4-0.3c1.3,0,2.6,0.1,3.8,0.3
		c1,0.2,2,0.6,2.8,1.2s1.4,1.4,1.7,2.4c0.4,1.3,0.6,2.6,0.6,4L215.9,119.7z"/>
	<path class="st5" d="M267.6,126.8c-0.9,0.8-2,1.3-3.2,1.7c-1.5,0.4-3,0.6-4.5,0.6c-1.9,0.1-3.8-0.2-5.6-0.9
		c-1.4-0.5-2.5-1.6-2.9-2.9c-1.8-5.6-3.2-10-4.4-13.5c-1.1-3.4-2-6.4-2.6-9H244c-0.2,3.7-0.3,7.1-0.4,10.2s-0.2,6.1-0.2,9
		s-0.1,5.8-0.2,8.8c-0.1,3-0.2,6.2-0.4,9.9c-1,0.4-2.1,0.6-3.2,0.8c-1.3,0.2-2.7,0.3-4,0.3c-2.3,0.1-4.5-0.4-6.5-1.4
		c-1.5-0.9-2.3-2.5-2.3-4.8l2.7-48.3c0.9-1.1,2-2,3.3-2.7c2.3-1.1,4.8-1.6,7.3-1.4c2.7-0.1,5.4,0.4,7.9,1.6c2,1.1,3.4,2.9,4.1,5.1
		c0.6,1.5,1.2,3.2,1.8,5.2s1.3,4,2,6.1c0.7,2.1,1.3,4.2,1.9,6.2s1.2,3.9,1.7,5.5h0.5c1.5-5.3,3-10.5,4.5-15.4s2.9-9.1,4.2-12.4
		c1.2-0.6,2.4-1,3.6-1.3c1.6-0.4,3.3-0.5,5-0.5c2.6-0.1,5.2,0.4,7.6,1.4c1.7,0.6,3,2.1,3.4,3.9c0.2,1.3,0.5,3.2,0.8,5.8
		s0.6,5.6,0.9,8.9s0.6,6.8,1,10.4s0.6,7.2,0.9,10.6s0.5,6.5,0.7,9.3s0.3,5,0.4,6.5c-1,0.6-2.2,1.1-3.4,1.4c-1.5,0.3-3,0.5-4.5,0.4
		c-2.1,0.1-4.2-0.4-6.1-1.2c-1.6-0.8-2.5-2.4-2.6-4.8c-0.4-6.9-0.6-13.1-0.7-18.6s-0.2-10.1-0.4-13.8h-0.5c-0.6,2.5-1.5,5.6-2.7,9.3
		C270.9,116.2,269.4,121,267.6,126.8z"/>
	<path class="st5" d="M343.1,126.8c-0.9,0.8-2,1.3-3.2,1.7c-1.5,0.4-3,0.6-4.5,0.6c-1.9,0.1-3.8-0.2-5.6-0.9
		c-1.4-0.5-2.5-1.6-2.9-2.9c-1.8-5.6-3.2-10-4.4-13.5c-1.1-3.4-2-6.5-2.6-9h-0.5c-0.2,3.7-0.3,7.1-0.4,10.2s-0.2,6.1-0.2,9
		s-0.1,5.8-0.2,8.8c-0.1,3-0.2,6.2-0.4,9.9c-1,0.4-2.1,0.6-3.2,0.8c-1.3,0.2-2.7,0.3-4,0.3c-2.2,0.1-4.5-0.3-6.5-1.3
		c-1.5-0.9-2.3-2.5-2.3-4.8l2.8-48.4c0.9-1.1,2-2,3.3-2.7c2.2-1.1,4.7-1.6,7.2-1.4c2.7-0.1,5.4,0.4,7.9,1.6c2,1.1,3.4,2.9,4.2,5.1
		c0.6,1.5,1.2,3.2,1.8,5.2c0.7,2,1.3,4,2,6.1s1.3,4.2,1.9,6.2s1.2,3.9,1.7,5.5h0.5c1.5-5.3,3-10.5,4.5-15.4s2.9-9.1,4.2-12.4
		c1.2-0.6,2.4-1,3.6-1.3c1.6-0.4,3.3-0.5,5-0.5c2.6-0.1,5.2,0.4,7.6,1.4c1.7,0.6,3,2.1,3.4,3.9c0.2,1.3,0.5,3.2,0.8,5.8
		s0.6,5.6,0.9,8.9s0.6,6.8,1,10.4s0.6,7.2,0.9,10.6s0.5,6.5,0.7,9.3s0.3,5,0.4,6.5c-1.1,0.6-2.3,1.1-3.5,1.4c-1.5,0.3-3,0.5-4.5,0.4
		c-2.1,0.1-4.2-0.4-6.1-1.2c-1.6-0.8-2.5-2.4-2.6-4.8c-0.4-6.9-0.6-13.1-0.7-18.6s-0.2-10.1-0.4-13.8h-0.5c-0.7,2.5-1.6,5.6-2.8,9.3
		C346.3,116.2,344.8,121,343.1,126.8z"/>
	<path class="st5" d="M378.9,92.3c-0.4-4.5,3-8.4,7.5-8.8c0.4,0,0.9,0,1.3,0H419c0.5,0.9,0.9,1.8,1.2,2.7c0.3,1.2,0.5,2.4,0.5,3.6
		c0,2.4-0.5,4.1-1.6,5.1s-2.6,1.6-4.1,1.5h-20v8.8h21.3c0.5,0.8,0.9,1.8,1.2,2.7c0.4,1.2,0.5,2.3,0.5,3.6c0,2.4-0.5,4.1-1.5,5.1
		c-1.1,1-2.6,1.6-4.1,1.5H395v9.9h24.3c0.5,0.9,0.9,1.8,1.2,2.8c0.3,1.2,0.5,2.4,0.5,3.6c0,2.4-0.5,4.1-1.6,5.2
		c-1.1,1.1-2.6,1.6-4.1,1.6h-27.6c-4.5,0.4-8.4-3-8.8-7.5c0-0.4,0-0.9,0-1.3V92.3z"/>
	<path class="st5" d="M447.3,122.3v18.2c-1.1,0.3-2.2,0.5-3.3,0.6c-1.5,0.2-2.9,0.3-4.4,0.3c-1.3,0-2.6-0.1-3.8-0.3
		c-1-0.2-1.9-0.6-2.7-1.2c-0.8-0.6-1.3-1.4-1.7-2.4c-0.4-1.3-0.6-2.6-0.6-4V88.9c-0.1-1.1,0.3-2.2,1.1-3.1c0.9-0.8,1.9-1.4,3-1.8
		c2.4-0.8,4.9-1.4,7.5-1.7c3-0.4,6.1-0.5,9.1-0.5c8.7,0,15.3,1.8,19.7,5.5c4.4,3.7,6.6,8.6,6.6,14.9c0.1,3.6-1,7.1-3,10
		c-1.9,2.7-4.3,4.9-7.2,6.4c2.3,3.1,4.5,6,6.7,8.7c1.9,2.3,3.7,4.8,5.2,7.4c-0.5,2-1.7,3.8-3.5,5.1c-1.6,1.2-3.6,1.8-5.6,1.8
		c-1.2,0-2.4-0.1-3.6-0.5c-1-0.3-1.8-0.7-2.6-1.3c-0.8-0.6-1.5-1.3-2.1-2.1c-0.7-0.8-1.3-1.7-1.8-2.6l-8-12.8L447.3,122.3z
		 M453.3,109.7c2.1,0.1,4.1-0.5,5.7-1.8c1.5-1.4,2.2-3.4,2.1-5.4c0.1-2.1-0.7-4.1-2.3-5.4c-1.5-1.2-4-1.8-7.3-1.8
		c-0.8,0-1.5,0-2.3,0.1c-0.6,0.1-1.2,0.2-1.9,0.3v14.2L453.3,109.7z"/>
</g>
<g id="find_yourself_at_home">
	<path class="st3" d="M51.1,182.1c-0.2,0.5-0.4,0.9-0.7,1.3c-0.2,0.3-0.4,0.6-0.7,0.8s-0.6,0.3-0.9,0.4c-0.4,0.1-0.8,0.1-1.1,0.1
		c-1.8-0.2-3.4-0.3-4.7-0.4s-2.5-0.1-3.5-0.1c-0.9,0-1.7,0-2.6,0.1c-0.7,0.1-1.5,0.2-2.2,0.4c-0.3,0.5-0.7,1.2-1.3,2.2
		s-1.2,2.2-2,3.5s-1.4,2.7-2.2,4.1s-1.4,2.9-2,4.2c-1,2.3-2.2,4.5-3.6,6.6c-1.1,1.4-2,2.2-2.7,2.2c-0.7,0.1-1.4-0.1-1.9-0.5
		c-0.4-0.4-0.6-0.9-0.6-1.4c0.1-1.1,0.4-2.1,0.8-3.1c0.5-1.3,1.3-3,2.2-4.9c0.4-0.7,0.7-1.4,1.1-2.2l1.3-2.4l1.3-2.3l1.1-2.1L27,187
		c0.2-0.4,0.4-0.7,0.4-0.9s0.1-0.3,0.1-0.3l0.1-0.1c0,0,0,0,0-0.1v-0.1h-0.5c-0.6,0-1.2,0-1.8-0.2c-0.4,0-0.7-0.4-0.7-0.8
		c0-0.3,0.1-0.6,0.3-0.8c0.3-0.7,0.8-1.3,1.4-1.7c0.4-0.4,0.9-0.6,1.5-0.9c0.4-0.2,0.9-0.3,1.3-0.3H30c0.5-1.1,1-2.1,1.6-3.2
		l1.6-3.2c0.8-1.7,1.8-3.4,3-4.9c0.9-1.2,2.1-2.3,3.3-3.2c1.2-0.8,2.6-1.4,4-1.7c1.6-0.4,3.3-0.5,5-0.5s3.1,0.1,4.1,0.1
		c0.7,0.1,1.4,0.2,2.1,0.3c0.7,0.1,1.3,0.5,1.7,1.1c0.3,0.5,0.5,1.1,0.5,1.7c0,0.5-0.1,1-0.2,1.5c-0.2,0.5-0.4,0.9-0.7,1.3
		c-0.3,0.4-0.6,0.7-1,1c-0.3,0.2-0.7,0.4-1.1,0.4c-0.2,0-0.4,0-0.6-0.1c-0.4-0.2-0.8-0.4-1.2-0.5c-0.3-0.1-0.7-0.3-1-0.4
		c-0.4-0.1-0.8-0.2-1.2-0.2s-1-0.1-1.6-0.1s-1.5,0-2.3,0l-3.3,0.1l-1.5,2.6l-1.3,2.3l-1.3,2.3c-0.5,0.8-1,1.6-1.5,2.6
		c0.8-0.3,1.6-0.5,2.3-0.7c0.8-0.2,1.7-0.4,2.6-0.5s1.8-0.2,2.7-0.3s1.8-0.1,2.6-0.1c1.1-0.1,2.2,0.1,3.2,0.4c0.6,0.2,1.1,0.8,1,1.4
		c0,0.2,0,0.4,0,0.7C51.4,181.4,51.3,181.8,51.1,182.1z"/>
	<path class="st3" d="M48.4,187.5c0.3-0.5,0.7-0.9,1.1-1.2c1-0.6,2.3-0.4,3.2,0.4c0.5,0.5,0.8,1.1,0.8,1.8c0,0.2,0,0.4-0.1,0.5
		c0,0.2-0.1,0.4-0.2,0.5l-0.7,1.3c-0.2,0.4-0.3,0.7-0.5,1s-0.3,0.6-0.4,0.9s-0.3,0.6-0.5,1s-0.5,1-0.8,1.6s-0.6,1.2-0.8,1.8
		c-0.3,0.6-0.5,1.2-0.7,1.8c-0.2,0.5-0.3,1.1-0.3,1.6s0.1,0.9,0.4,1c0.3,0.2,0.7,0.3,1.1,0.2c0.6,0,1.2-0.1,1.7-0.4
		c0.6-0.2,1.2-0.6,1.8-0.9c0.6-0.4,1.2-0.8,1.8-1.3s1.1-1,1.7-1.4s1-0.9,1.4-1.4s0.8-0.9,1.1-1.2s0.7-0.5,1.2-0.6
		c0.3,0,0.7,0.2,0.9,0.5c0.2,0.4,0.4,0.8,0.3,1.2c0,0.5-0.1,1-0.3,1.4c-0.3,0.6-0.6,1-1.1,1.4c-1,1-2,2-3,2.9s-2.1,1.7-3.2,2.4
		c-1,0.7-2.1,1.3-3.3,1.7c-1,0.4-2.2,0.6-3.3,0.6c-1.4,0.1-2.7-0.4-3.7-1.2c-1-1-1.5-2.3-1.4-3.7c0-0.9,0.1-1.8,0.4-2.6
		c0.2-0.9,0.6-1.7,0.9-2.5c0.3-0.8,0.7-1.6,1.1-2.3c0.4-0.7,0.7-1.4,1-2.1c0.1-0.2,0.3-0.6,0.5-1.2c0.2-0.5,0.5-1.1,0.8-1.6
		L48.4,187.5z M51.6,180.9c0-0.5,0.1-0.9,0.2-1.4c0.2-0.5,0.4-0.9,0.7-1.3c0.3-0.4,0.8-0.7,1.2-1c0.6-0.3,1.2-0.4,1.8-0.4
		c0.8-0.1,1.7,0.1,2.4,0.7c0.4,0.4,0.7,1,0.7,1.6c0,0.4-0.1,0.8-0.2,1.2c-0.1,0.4-0.4,0.9-0.7,1.2c-0.3,0.4-0.7,0.7-1.1,1
		c-0.5,0.3-1.1,0.4-1.7,0.4c-0.9,0.1-1.8-0.1-2.5-0.6C52,182.1,51.7,181.5,51.6,180.9z"/>
	<path class="st3" d="M63.3,188.5c0.3-0.7,0.8-1.4,1.5-1.9c0.5-0.4,1.1-0.6,1.7-0.6c0.5,0,0.9,0.2,1.3,0.5c0.4,0.4,0.6,0.9,0.6,1.5
		c0,0.3,0,0.6-0.1,0.8c-0.1,0.3-0.2,0.6-0.3,0.9c0.5-0.6,1.2-1.2,1.8-1.7c0.8-0.6,1.7-1.1,2.7-1.5c1-0.5,2-0.8,3-1.1
		c0.9-0.3,1.9-0.4,2.9-0.4c0.9,0,1.8,0.2,2.6,0.8c0.7,0.6,1.1,1.6,1,2.5c0,0.7-0.1,1.5-0.3,2.2c-0.2,0.8-0.5,1.5-0.8,2.3
		s-0.7,1.5-1.1,2.2s-0.8,1.4-1.2,2.1l-1.1,1.8c-0.3,0.5-0.6,1-0.8,1.3c-0.2,0.3-0.4,0.7-0.4,1.1c0,0.2,0.1,0.3,0.2,0.4
		c0.1,0.1,0.3,0.2,0.5,0.2s0.3,0,0.5,0c0.2-0.1,0.5-0.2,0.6-0.3c1.1-0.4,2.2-0.9,3.2-1.5c1.1-0.6,2.2-1.2,3.2-1.9s1.9-1.3,2.8-2
		s1.6-1.2,2.1-1.8c0.1-0.1,0.3-0.2,0.5-0.3c0.1-0.1,0.3-0.1,0.4-0.1c0.3,0,0.6,0.1,0.8,0.4c0.2,0.3,0.3,0.6,0.3,1
		c0,0.7-0.2,1.4-0.6,2c-0.4,0.8-1.1,1.5-1.8,2.1l-3.1,2.2c-0.9,0.7-1.9,1.3-2.8,1.9c-1,0.6-2,1.1-3.1,1.6c-1.3,0.6-2.5,1-3.9,1.4
		c-0.5,0.1-1,0.3-1.4,0.4c-0.4,0.1-0.8,0.1-1.2,0.1c-0.8,0.1-1.7-0.2-2.3-0.9c-0.5-0.7-0.8-1.5-0.7-2.4c0-0.1,0-0.3,0-0.4
		s0-0.3,0-0.4c0.1-0.7,0.2-1.4,0.5-2c0.3-0.8,0.6-1.5,1-2.2c0.4-0.8,0.8-1.5,1.3-2.3s0.9-1.5,1.2-2.1s0.7-1.3,0.9-1.8
		c0.2-0.4,0.3-0.8,0.4-1.3c0-0.3-0.1-0.5-0.2-0.8c-0.2-0.2-0.5-0.3-0.7-0.3c-1.3,0-2.5,0.4-3.6,1.1c-1.1,0.8-2.2,1.7-3.1,2.8
		c-1,1.1-1.9,2.2-2.7,3.4c-0.8,1.2-1.5,2.3-2.2,3.2c-0.4,0.7-0.8,1.4-1.1,2.1c-0.3,0.7-0.7,1.4-1,2.1c-0.3,0.6-0.7,1.1-1.2,1.6
		c-0.4,0.4-1,0.6-1.7,0.6c-0.6,0-1.2-0.2-1.6-0.6c-0.4-0.4-0.6-1-0.6-1.6c0.1-0.6,0.2-1.1,0.4-1.6c0.3-0.7,0.6-1.6,1-2.6
		s0.9-2,1.5-3.1s1.1-2.2,1.6-3.3s1-2.1,1.5-3.1S63,189.1,63.3,188.5z"/>
	<path class="st3" d="M104.2,200.3v0.1v0.1c0,0.4,0.1,0.8,0.3,1.1c0.1,0.4,0.5,0.6,0.8,0.6c0.1,0,0.2,0,0.3-0.1
		c1.2-0.4,2.3-0.9,3.3-1.6c1.1-0.7,2.2-1.5,3.3-2.4c1-0.8,2-1.7,2.9-2.6c0.9-0.9,1.6-1.7,2.2-2.4c0.2-0.3,0.5-0.5,0.9-0.5
		c0.3,0,0.6,0.2,0.8,0.4c0.2,0.3,0.4,0.7,0.3,1.1c0,0.5-0.1,0.9-0.3,1.3c-0.3,0.6-0.6,1.1-1,1.6c-1.2,1.3-2.3,2.5-3.5,3.7
		c-1.1,1.1-2.4,2.2-3.7,3.1c-1.1,0.9-2.4,1.6-3.7,2.2c-1.1,0.5-2.3,0.8-3.6,0.8c-1.2,0.1-2.5-0.4-3.4-1.2c-0.9-1-1.3-2.3-1.2-3.6
		v-0.3c0-0.1,0-0.2,0-0.3c-0.5,0.8-1,1.6-1.7,2.2c-1.4,1.3-3.1,2.3-4.9,2.8c-0.8,0.3-1.7,0.4-2.6,0.4c-0.7,0-1.4-0.1-2-0.3
		s-1.1-0.5-1.6-0.9c-0.4-0.5-0.8-1-1-1.6c-0.3-0.8-0.4-1.6-0.4-2.4c0-1.6,0.3-3.2,0.8-4.7c0.5-1.4,1.2-2.8,2-4.1
		c0.8-1.2,1.8-2.3,2.9-3.3c1.1-0.9,2.2-1.8,3.4-2.5c1.1-0.7,2.3-1.2,3.5-1.6c1-0.3,2.1-0.5,3.2-0.6c1,0,2,0.2,2.9,0.6
		c0.4,0.2,0.8,0.5,1.1,0.8c0.1-0.2,0.1-0.3,0.2-0.5c0.2-0.5,0.4-0.9,0.5-1.2s0.3-0.6,0.3-0.8s0.2-0.6,0.5-1.2s0.6-1.4,1-2.3
		s0.8-1.8,1.2-2.8s0.8-1.9,1.2-2.8s0.7-1.6,0.9-2.3s0.4-1,0.5-1.2c0.1-0.5,0.3-1,0.6-1.4c0.2-0.4,0.5-0.8,0.8-1.2
		c0.3-0.3,0.7-0.6,1.1-0.8c0.5-0.2,1-0.3,1.5-0.3c0.6,0,1.3,0.1,1.8,0.5c0.5,0.5,0.8,1.2,0.7,1.9c0,0.4-0.1,0.8-0.1,1.1
		c-0.1,0.4-0.2,0.8-0.3,1.1s-0.3,0.7-0.4,1.1s-0.3,0.7-0.4,1c-1,2-2,4.1-3.1,6.4c-1.1,2.3-2.1,4.6-3.2,6.9c-1.1,2.3-2.1,4.6-3,6.8
		S105,198.5,104.2,200.3z M103.4,188.9c-1.3,0.1-2.5,0.3-3.7,0.8c-1.5,0.5-2.9,1.3-4.1,2.3c-1.3,1-2.3,2.3-3.1,3.7
		c-0.9,1.5-1.4,3.2-1.4,5c0,0.8,0.3,1.2,1,1.2c0.8,0,1.6-0.2,2.3-0.5c0.8-0.4,1.5-0.8,2.1-1.4c0.7-0.6,1.3-1.3,1.9-2
		s1.1-1.5,1.6-2.3s0.9-1.6,1.3-2.4s0.8-1.5,1-2.2c0.1-0.2,0.2-0.5,0.4-0.9S103.1,189.3,103.4,188.9z"/>
	<path class="st3" d="M146.4,187.7c0.4-0.4,0.9-0.7,1.4-1c0.3-0.2,0.7-0.4,1-0.5c0.2-0.1,0.5-0.2,0.8-0.2c0.2,0,0.4,0,0.7,0
		c0.4,0,0.7,0.2,0.9,0.5s0.3,0.6,0.3,0.9c0,0.3,0,0.5-0.1,0.8l-6.6,13.6c1-0.8,2.1-1.5,3.2-2.1c1.2-0.7,2.4-1.3,3.5-1.8
		s2.1-1,2.9-1.3c0.4-0.2,0.9-0.4,1.4-0.5c0.5,0,1,0.2,1.3,0.6c0.4,0.4,0.6,0.9,0.6,1.4c0,0.6-0.2,1.1-0.6,1.6
		c-0.5,0.7-1.2,1.2-2,1.6c-1.4,0.8-2.6,1.4-3.6,1.9s-1.9,1-2.7,1.4s-1.5,0.8-2.1,1.2s-1.2,0.7-1.7,1.1s-1.1,0.8-1.6,1.2
		s-1.1,0.9-1.7,1.5c-0.4,1.2-0.9,2.3-1.3,3.4s-0.8,2-1.2,2.8s-0.7,1.5-0.9,2l-0.4,0.8c-1.6,3.3-3.3,4.9-5.2,4.9
		c-0.7,0-1.4-0.3-1.9-0.8c-0.5-0.6-0.8-1.3-0.7-2.1c0-0.8,0.1-1.6,0.3-2.4c0.2-0.9,0.6-1.8,1.1-2.7c0.6-1.1,1.3-2.2,2.1-3.3
		c0.8-1.2,1.9-2.6,3.2-4.2l5.8-11.8c-2.4,2.9-5,5.6-7.9,7.9c-2.4,1.8-4.6,2.8-6.7,2.8c-0.6,0-1.2-0.1-1.7-0.5
		c-0.5-0.3-0.8-0.9-0.7-1.5c0-1.1,0.3-2.3,0.7-3.3c0.3-0.7,0.6-1.3,0.8-1.8s0.6-1.1,0.8-1.7c0.3-0.6,0.6-1.1,0.9-1.8
		s0.7-1.4,1.1-2.2s0.8-1.7,1.3-2.8s1-2.3,1.5-3.7c0.6-1.3,1.9-2.1,3.3-2.2c0.5,0,1.1,0.1,1.5,0.4c0.4,0.2,0.6,0.7,0.6,1.1
		c0,0.2,0,0.4-0.1,0.6l-5.4,11.1c-0.2,0.4-0.4,0.9-0.4,1.3c0,0.3,0.1,0.4,0.4,0.4c0.3,0,0.6-0.1,0.8-0.3c0.3-0.2,0.6-0.5,0.9-0.7
		L146.4,187.7z"/>
	<path class="st3" d="M167.6,185c0.8,0,1.6,0.1,2.4,0.3c0.8,0.2,1.6,0.5,2.4,1c0.7,0.5,1.3,1.1,1.8,1.9c0.5,0.9,0.8,1.9,0.7,2.9
		c0,0.7-0.1,1.3-0.2,2c-0.2,0.8-0.4,1.6-0.7,2.4c0.2,0.2,0.4,0.4,0.7,0.5s0.5,0.1,0.8,0.1c0.5,0,0.9-0.1,1.4-0.4
		c0.5-0.3,1.1-0.6,1.5-0.9c0.5-0.4,1.1-0.8,1.6-1.3s1-0.9,1.5-1.4s0.9-0.9,1.3-1.3l0.9-1.1c0.1-0.1,0.3-0.2,0.5-0.2
		c0.3,0,0.6,0.2,0.7,0.4c0.2,0.4,0.3,0.8,0.3,1.2c0,0.6-0.2,1.2-0.4,1.8c-0.4,0.8-1,1.5-1.7,2.1l-1.6,1.8c-0.6,0.7-1.3,1.3-1.9,1.9
		c-0.7,0.6-1.4,1.1-2.1,1.5c-0.7,0.4-1.4,0.6-2.2,0.6c-0.5,0-1-0.1-1.5-0.2c-0.5-0.2-1-0.4-1.4-0.8c-0.7,1.1-1.5,2.1-2.4,3
		s-1.9,1.7-3,2.3c-1.1,0.7-2.3,1.2-3.6,1.5c-1.3,0.4-2.7,0.5-4.1,0.5c-0.6,0-1.3-0.1-1.9-0.3c-0.7-0.2-1.4-0.6-2.1-1.1
		c-0.7-0.5-1.2-1.2-1.7-1.9c-0.5-0.9-0.7-1.9-0.7-2.9c0-0.9,0.2-1.9,0.4-2.8c0.3-1.2,0.7-2.3,1.2-3.4c0.6-1.2,1.2-2.4,2-3.4
		c0.8-1.2,1.7-2.2,2.8-3.1c1.1-0.9,2.4-1.7,3.7-2.2C164.5,185.3,166.1,185,167.6,185z M166.1,190.1c-0.9,0-1.8,0.2-2.6,0.7
		c-0.9,0.5-1.6,1.1-2.2,1.8c-0.7,0.8-1.2,1.6-1.6,2.5c-0.4,0.9-0.6,1.9-0.6,2.9c0,0.4,0,0.8,0.1,1.2s0.2,0.8,0.4,1.2
		s0.5,0.7,0.8,0.9c0.4,0.3,0.9,0.4,1.4,0.4c0.9,0,1.8-0.3,2.6-0.7c0.9-0.5,1.6-1.1,2.3-1.9c0.7-0.8,1.2-1.7,1.6-2.6
		c0.4-1,0.6-2,0.6-3c0-0.4,0-0.8-0.1-1.2c0-0.4-0.2-0.8-0.4-1.1c-0.2-0.4-0.5-0.7-0.8-0.9C167.1,190.2,166.6,190.1,166.1,190.1
		L166.1,190.1z"/>
	<path class="st3" d="M210.9,199.2c-0.9,1-1.9,2-3,2.9s-2.3,1.7-3.5,2.5c-1.1,0.7-2.3,1.3-3.6,1.7c-1,0.4-2.1,0.6-3.2,0.7
		c-0.8,0-1.6-0.3-2.3-0.8c-0.7-0.7-1-1.7-0.9-2.7c0-1.1,0.2-2.1,0.5-3.1c-0.6,0.8-1.2,1.6-1.9,2.3c-0.8,0.8-1.7,1.5-2.6,2.1
		c-1,0.7-2.1,1.2-3.3,1.6c-1.3,0.4-2.6,0.6-4,0.6c-0.6,0-1.3-0.1-1.9-0.2c-0.6-0.1-1.1-0.4-1.6-0.7s-0.8-0.8-1.1-1.3
		c-0.3-0.7-0.4-1.4-0.4-2.1c0,0,0-0.3,0.1-0.9c0.2-0.9,0.4-1.8,0.7-2.7c0.4-1.2,1.1-2.8,1.9-4.8c1.1-2.4,2.4-4.8,3.7-7.2
		c0.3-0.6,0.8-1.2,1.4-1.6c0.6-0.3,1.2-0.5,1.8-0.4c0.3,0,0.6,0,0.8,0.1c0.3,0.1,0.6,0.2,0.8,0.3s0.5,0.3,0.6,0.6
		c0.2,0.2,0.2,0.5,0.2,0.8c0,0.2,0,0.4-0.1,0.6c-0.1,0.5-0.4,0.9-0.6,1.3c-0.3,0.5-0.7,1.1-1.1,1.8l-1.4,2.2
		c-0.5,0.8-0.9,1.6-1.3,2.5c-0.4,0.9-0.7,1.7-1,2.6c-0.3,0.8-0.5,1.7-0.5,2.6c0,0.4,0.1,0.7,0.3,1s0.6,0.5,1,0.4
		c1.3,0,2.5-0.4,3.6-1.1c1.2-0.7,2.3-1.6,3.2-2.6c1-1,1.9-2.2,2.6-3.4c0.8-1.2,1.4-2.3,2-3.3c0.4-0.7,0.7-1.4,1-2.1
		c0.3-0.7,0.6-1.4,0.9-2.1c0.3-0.6,0.7-1.1,1.1-1.6c0.9-0.9,2.4-0.9,3.3,0c0.4,0.4,0.6,1,0.6,1.6c0,0.5-0.2,1-0.4,1.4
		c-0.3,0.6-0.6,1.3-1,2.1s-0.8,1.6-1.3,2.5s-0.9,1.8-1.3,2.7c-0.4,0.9-0.7,1.8-1,2.7c-0.2,0.8-0.4,1.6-0.4,2.5
		c0,0.7,0.4,1.1,1.3,1.1c0.8,0,1.5-0.2,2.3-0.5c1-0.4,1.9-0.9,2.8-1.5c1-0.7,2-1.5,2.9-2.3c1-0.8,1.8-1.8,2.6-2.8L210.9,199.2z"/>
	<path class="st3" d="M217.1,189.2c0.8-0.5,1.5-0.9,2.4-1.3c0.8-0.4,1.6-0.7,2.4-1c0.7-0.3,1.4-0.5,2.2-0.7c0.6-0.1,1.2-0.2,1.9-0.2
		s1.4,0.2,2,0.6c0.5,0.6,0.8,1.3,0.7,2.1c0,0.2,0,0.5,0,0.7c0,0.3-0.1,0.5-0.1,0.8c-0.2,0.6-0.5,1.3-0.9,1.8
		c-0.5,0.7-1.1,1.5-1.7,2.1c-0.6,0.7-1.4,1.5-2.1,2.2l-2.1,2.1c-0.6,0.6-1.2,1.2-1.6,1.6s-0.6,0.8-0.6,1c0,0.1,0,0.2,0,0.3
		s0.1,0.1,0.3,0.1c1.1-0.4,2.2-1,3.5-1.6s2.6-1.3,3.9-2s2.5-1.3,3.7-1.9s2.1-1.2,2.9-1.6c0.2-0.1,0.4-0.2,0.5-0.2
		c0.2-0.1,0.3-0.1,0.5-0.1c0.3,0,0.7,0.1,0.9,0.4c0.2,0.2,0.4,0.6,0.4,0.9c0,0.6-0.2,1.1-0.6,1.5c-0.5,0.7-1.2,1.3-1.9,1.8l-2.3,1.4
		c-0.9,0.5-1.7,1.1-2.7,1.7s-1.9,1.1-2.8,1.7s-1.9,1-2.7,1.5c-0.8,0.4-1.6,0.7-2.5,1c-0.6,0.2-1.3,0.4-2,0.4c-1.1,0.1-2.2-0.3-3-1
		c-0.7-0.6-1-1.5-1-2.5c0-0.1,0-0.2,0-0.4c0.1-0.9,0.4-1.7,0.8-2.5c0.4-0.8,0.8-1.6,1.3-2.3s0.9-1.4,1.5-2.1s1-1.3,1.4-1.8
		s0.7-1,1-1.6c0.2-0.4,0.4-0.9,0.4-1.3c0-0.1,0-0.2-0.1-0.3c0-0.1-0.1-0.2-0.3-0.1c-0.4,0-0.8,0.1-1.2,0.3c-0.6,0.2-1.2,0.4-1.7,0.7
		c-0.6,0.3-1.2,0.6-1.7,1c-0.5,0.3-0.9,0.7-1.2,1.2s-0.7,1.2-1.1,2.1l-1.3,2.6c-0.4,0.9-0.9,1.8-1.3,2.7l-1.1,2.3
		c-0.2,0.6-0.5,1.1-0.9,1.5s-0.8,0.8-1.2,1.1s-0.9,0.5-1.4,0.7c-0.4,0.2-0.8,0.3-1.3,0.3c-0.4,0-0.8-0.1-1.1-0.4
		c-0.3-0.3-0.4-0.7-0.4-1.1c0-0.3,0-0.5,0.1-0.8c0.1-0.4,0.2-0.7,0.4-1.1c0.4-0.7,0.7-1.4,1.1-2.2s0.8-1.7,1.2-2.7l1.6-3.4
		c0.6-1.3,1.3-2.8,2.2-4.5c-0.3-0.2-0.5-0.5-0.7-0.9s-0.3-0.8-0.3-1.3c0-0.4,0.1-0.8,0.3-1.2c0.2-0.3,0.5-0.6,0.8-0.8
		c0.4-0.2,0.7-0.4,1.1-0.5c0.5-0.1,0.9-0.2,1.4-0.2s1,0,1.5,0.1s0.9,0.2,1.4,0.4c0.4,0.2,0.7,0.4,1,0.6c0.2,0.2,0.4,0.5,0.4,0.9
		c0,0.1,0,0.2-0.1,0.2l-0.1,0.3c0,0.1-0.1,0.2-0.1,0.3s-0.1,0.2-0.1,0.2v0.1l0,0L217.1,189.2z"/>
	<path class="st3" d="M239.9,189.8c1.1,0.6,2.2,1.3,3.2,2.1c0.9,0.7,1.7,1.6,2.4,2.5c0.6,0.8,1.1,1.7,1.5,2.7
		c0.3,0.9,0.5,1.8,0.5,2.7c0,1.1-0.4,2.1-1,3c-0.7,0.9-1.5,1.7-2.5,2.2c-1.1,0.6-2.3,1.1-3.5,1.4c-1.3,0.3-2.7,0.5-4,0.5
		c-1,0-2-0.1-3-0.3c-0.9-0.2-1.8-0.5-2.6-1s-1.5-1.1-2-1.8c-0.6-0.8-1-1.7-1.2-2.6c0-0.1-0.1-0.3-0.1-0.4c0-0.5,0.2-1,0.6-1.4
		c0.3-0.4,0.8-0.6,1.2-0.6c0.2,0,0.5,0,0.7,0.1c0.3,0.1,0.5,0.3,0.6,0.5c0.3,0.5,0.6,0.9,1.1,1.3c0.5,0.4,1,0.7,1.5,0.9
		c0.6,0.3,1.2,0.5,1.8,0.6s1.2,0.2,1.9,0.2c0.6,0,1.2-0.1,1.8-0.2c0.5-0.1,1-0.3,1.5-0.6c0.4-0.2,0.8-0.6,1-1
		c0.3-0.4,0.4-0.9,0.4-1.4c0-1-0.2-1.9-0.7-2.7c-0.5-0.9-1-1.6-1.7-2.3s-1.6-1.4-2.4-2c-0.9-0.6-1.8-1.2-2.7-1.8
		c-0.2-0.1-0.3-0.3-0.4-0.5c-0.2-0.2-0.3-0.5-0.3-0.9c0-0.2,0.1-0.4,0.2-0.6c0.3-0.4,0.7-0.9,1.1-1.2c0.4-0.4,0.8-0.8,1.3-1.2
		s1-0.7,1.5-0.9s1.1-0.3,1.7-0.3c0.4,0,0.8,0.1,1.2,0.2c0.3,0.1,0.7,0.2,0.9,0.4s0.4,0.4,0.6,0.6c0.1,0.2,0.2,0.4,0.2,0.6
		c0,0.3-0.1,0.5-0.2,0.8c-0.1,0.3-0.3,0.5-0.5,0.7c-0.2,0.3-0.5,0.5-0.8,0.7C240.4,189.3,240.2,189.5,239.9,189.8z"/>
	<path class="st3" d="M262.5,184.9c1.3-0.1,2.6,0.3,3.6,1.2c0.8,0.9,1.3,2,1.2,3.2c0,0.9-0.2,1.8-0.6,2.6c-0.5,1-1.3,2-2.2,2.7
		c-1.3,1.1-2.7,2.1-4.2,2.8c-2.1,1.1-4.3,2.1-6.6,2.9c0.1,0.6,0.4,1,0.9,1.3c0.6,0.3,1.3,0.5,2,0.5c1,0,1.9-0.1,2.9-0.4
		c1-0.3,2.1-0.6,3-1c1-0.4,2-0.9,2.9-1.3s1.8-0.9,2.6-1.4s1.4-0.8,1.9-1.1s0.9-0.5,1-0.6s0.3-0.2,0.5-0.2h0.4c0.2,0,0.4,0,0.6,0.2
		c0.2,0.1,0.3,0.2,0.4,0.4c0.1,0.1,0.2,0.3,0.2,0.5c0,0.1,0.1,0.3,0.1,0.4c0,0.2,0,0.4-0.1,0.6c-0.1,0.3-0.2,0.6-0.4,0.8
		c-0.1,0.1-0.4,0.4-1,0.8s-1.3,0.9-2.1,1.5s-1.9,1.2-3.1,1.9s-2.4,1.3-3.7,1.8c-1.3,0.5-2.6,1-4,1.4s-2.7,0.5-4.1,0.5
		c-1.1,0-2.1-0.2-3.1-0.7c-0.9-0.4-1.7-1.1-2.3-1.8c-0.6-0.8-1.1-1.7-1.4-2.6c-0.3-1-0.5-2.1-0.5-3.1c0-0.9,0.2-1.9,0.5-2.8
		c0.4-1.1,0.8-2.1,1.4-3c0.7-1.1,1.4-2.1,2.3-3c0.9-1,1.9-1.8,3-2.6c1.2-0.8,2.4-1.4,3.7-1.8C259.5,185.2,261,184.9,262.5,184.9z
		 M261.4,188.9h-0.3h-0.3c-0.7,0-1.4,0.1-2.1,0.4c-0.6,0.3-1.2,0.7-1.8,1.1c-0.5,0.5-1,1-1.4,1.6s-0.8,1.2-1.1,1.8s-0.6,1.2-0.8,1.7
		s-0.4,1-0.5,1.4c0.7-0.4,1.4-0.8,2.1-1.2l2.1-1.3c0.6-0.4,1.2-0.8,1.7-1.1s0.8-0.6,1-0.7c0.7-0.4,1.3-0.9,1.8-1.5
		c0.3-0.4,0.5-0.8,0.5-1.2c0-0.3-0.1-0.5-0.3-0.7C261.9,189.1,261.7,189,261.4,188.9L261.4,188.9z"/>
	<path class="st3" d="M274.9,197.8c-0.2,0.5-0.5,1-0.6,1.6c-0.2,0.5-0.3,1-0.3,1.6c0,0.2,0,0.5,0.2,0.7s0.4,0.3,0.7,0.3
		c0.5,0,1-0.2,1.5-0.4c0.7-0.3,1.4-0.6,2-1c0.7-0.4,1.4-0.9,2.2-1.4c0.8-0.5,1.5-1.1,2.3-1.6s1.5-1.1,2.2-1.7s1.3-1.1,1.9-1.5
		c0.2-0.1,0.4-0.2,0.6-0.3c0.2,0,0.4-0.1,0.6,0c0.4,0,0.7,0.1,1,0.4c0.3,0.3,0.4,0.7,0.4,1.1c0,0.5-0.2,1-0.4,1.4
		c-0.4,0.6-0.8,1.1-1.4,1.5c-1.2,1.1-2.5,2.2-3.8,3.3c-1.2,1-2.5,1.9-3.8,2.7c-1.2,0.8-2.4,1.4-3.7,1.9c-1.2,0.4-2.4,0.7-3.6,0.7
		c-0.7,0-1.4-0.1-2-0.3c-0.5-0.2-0.9-0.5-1.3-0.9c-0.3-0.4-0.6-0.8-0.7-1.3s-0.2-1.1-0.2-1.6c0-1,0.1-2,0.4-2.9s0.6-1.9,1-2.8
		c0.7-1.5,1.4-3,2.1-4.5s1.4-2.9,1.9-4.1l8.9-18.9c0.3-0.7,0.8-1.2,1.4-1.6c0.6-0.3,1.2-0.5,1.8-0.5c0.6,0,1.2,0.2,1.6,0.5
		c0.5,0.4,0.8,1,0.8,1.6c0,0.4-0.1,0.8-0.2,1.1c-0.2,0.4-0.4,0.8-0.6,1.3c-0.5,0.9-1.1,2-1.7,3.4c-0.7,1.3-1.4,2.8-2.2,4.3
		c-0.8,1.6-1.6,3.2-2.4,4.9l-2.4,4.9c-0.8,1.6-1.5,3.1-2.2,4.6C275.9,195.5,275.3,196.7,274.9,197.8z"/>
	<path class="st3" d="M305.5,189.6l-2.9,0.1H300h-2.5H295c-0.5,1-1.1,2.1-1.7,3.5l-2,4.1c-0.7,1.4-1.4,2.9-2.1,4.4s-1.4,2.9-2,4.2
		s-1.2,2.5-1.7,3.6s-0.9,1.9-1.2,2.5c-0.2,0.4-0.5,0.9-0.8,1.2c-0.3,0.4-0.6,0.7-1,1s-0.7,0.5-1.1,0.6c-0.3,0.1-0.7,0.2-1.1,0.2
		s-0.9-0.1-1.3-0.4c-0.4-0.2-0.6-0.7-0.6-1.1c0-0.3,0.1-0.6,0.2-0.9c0.1-0.4,0.3-0.8,0.5-1.2l10.3-21.9h-1.5
		c-0.8,0.1-1.5-0.1-2.2-0.5c-0.4-0.3-0.6-0.7-0.6-1.2s0.3-1,0.7-1.4c0.6-0.5,1.4-0.7,2.2-0.6h3.5c1.2-2.4,2.6-4.7,4.2-6.9
		c1.2-1.6,2.6-3,4.1-4.3c1.2-1,2.5-1.7,3.9-2.2c1.2-0.4,2.4-0.6,3.7-0.6c0.5,0,1.1,0.1,1.6,0.3s1,0.6,1.3,1c0.4,0.5,0.7,1,0.9,1.6
		c0.2,0.7,0.4,1.5,0.4,2.3c0,0.9-0.1,1.9-0.4,2.8c-0.1,0.3-0.2,0.5-0.4,0.7c-0.3,0.3-0.8,0.6-1.2,0.7c-0.2,0-0.4,0.1-0.5,0.1
		c-0.4,0-0.8-0.1-1.1-0.3c-0.3-0.2-0.5-0.5-0.5-0.9c0-0.2,0-0.5,0-0.7s0-0.4,0-0.6c0.1-0.6-0.1-1.2-0.5-1.8
		c-0.3-0.3-0.7-0.5-1.2-0.5c-0.8,0.1-1.5,0.3-2.1,0.8c-0.9,0.6-1.7,1.3-2.5,2.1c-0.9,0.9-1.7,1.9-2.4,3c-0.7,1.1-1.3,2.2-1.8,3.4
		h6.8c0.6,0,1.2,0,1.7,0s0.9,0.1,1.4,0.2c0.3,0.1,0.7,0.2,0.9,0.5c0.2,0.3,0.4,0.6,0.3,1c0,0.2,0,0.4-0.1,0.6
		c-0.1,0.2-0.2,0.4-0.4,0.6c-0.2,0.2-0.5,0.4-0.8,0.5C306.5,189.5,306,189.6,305.5,189.6z"/>
	<path class="st3" d="M346,197.8c-0.4,0.3-0.8,0.8-1.4,1.4s-1.2,1.2-2,1.9s-1.5,1.4-2.4,2.1c-0.8,0.7-1.7,1.3-2.6,1.9
		c-0.8,0.5-1.7,1-2.6,1.4c-0.8,0.3-1.6,0.5-2.4,0.5c-0.6,0-1.2-0.1-1.8-0.4c-0.5-0.3-0.9-0.7-1.2-1.1c-0.3-0.5-0.6-1-0.7-1.6
		c-0.2-0.6-0.2-1.2-0.2-1.8c0-0.4,0-0.8,0.1-1.2s0.2-0.8,0.3-1.1c-0.6,0.8-1.3,1.7-2.1,2.5c-0.8,0.9-1.6,1.6-2.5,2.4
		c-0.9,0.7-1.8,1.3-2.8,1.8c-0.9,0.4-1.9,0.7-2.9,0.7c-0.6,0-1.2-0.1-1.8-0.3c-0.7-0.2-1.3-0.5-1.9-1s-1.1-1.1-1.5-1.8
		c-0.4-0.8-0.6-1.8-0.6-2.7c0-1,0.1-1.9,0.4-2.9c0.3-1.2,0.6-2.3,1.1-3.5s1.2-2.4,1.9-3.6c0.8-1.2,1.7-2.2,2.7-3.1
		c1.1-0.9,2.3-1.7,3.6-2.2c1.4-0.6,3-0.9,4.5-0.9c0.8,0,1.5,0.1,2.2,0.3c0.6,0.2,1.1,0.4,1.6,0.7s0.9,0.6,1.3,1
		c0.3-0.2,0.7-0.3,1-0.5c0.3-0.1,0.6-0.3,0.9-0.4c0.9-0.3,1.9-0.2,2.6,0.4c0.4,0.3,0.7,0.8,0.7,1.3c0,0.1,0,0.2,0,0.3
		c-0.1,0.4-0.2,0.8-0.5,1.4l-0.7,1.9c-0.3,0.7-0.5,1.4-0.8,2.2s-0.5,1.5-0.7,2.2s-0.4,1.4-0.5,2c-0.1,0.5-0.2,1.1-0.2,1.6
		s0.1,1,0.3,1.4c0.2,0.4,0.6,0.6,1,0.6c0.3,0,0.7-0.1,1-0.3c0.5-0.2,0.9-0.5,1.3-0.8c0.5-0.3,1-0.7,1.5-1.1s1-0.8,1.4-1.2
		c1.1-1,2.2-2.1,3.5-3.3c0.3-0.2,0.6-0.4,0.9-0.4c0.4,0,0.8,0.2,1,0.6c0.3,0.4,0.4,0.8,0.4,1.3C346.6,196.9,346.4,197.4,346,197.8z
		 M325.7,190.2c-0.9,0-1.8,0.2-2.7,0.7c-0.9,0.5-1.6,1.1-2.3,1.9c-0.7,0.8-1.2,1.6-1.6,2.6c-0.4,0.9-0.6,1.9-0.6,2.9
		c0,0.4,0,0.8,0.1,1.2c0,0.4,0.2,0.8,0.3,1.1c0.2,0.3,0.4,0.7,0.8,0.9c0.4,0.3,0.8,0.4,1.3,0.4s1.1-0.2,1.5-0.6
		c0.6-0.4,1.2-0.9,1.8-1.5c0.6-0.6,1.2-1.3,1.8-2c0.6-0.7,1.1-1.4,1.6-2.1c0.4-0.6,0.8-1.2,1.1-1.8c0.2-0.4,0.4-0.8,0.4-1.2
		s-0.1-0.7-0.4-1s-0.6-0.6-0.9-0.8c-0.4-0.2-0.8-0.4-1.2-0.5C326.5,190.3,326.1,190.3,325.7,190.2L325.7,190.2z"/>
	<path class="st3" d="M351.7,190c-0.7,1.4-1.4,2.8-2,4.1s-1.2,2.6-1.8,3.7c-0.3,0.5-0.5,1.1-0.7,1.6s-0.3,1.1-0.3,1.6
		c0,0.2,0.1,0.5,0.2,0.6c0.2,0.2,0.4,0.3,0.6,0.2c0.5,0,1.1-0.2,1.5-0.4c0.7-0.3,1.4-0.6,2-1c0.7-0.4,1.5-0.9,2.3-1.4
		s1.6-1.1,2.4-1.6s1.5-1.1,2.2-1.7s1.3-1.1,1.9-1.5c0.2-0.2,0.6-0.3,0.9-0.3s0.6,0.2,0.8,0.4c0.2,0.3,0.3,0.7,0.3,1.1
		c0,0.5-0.1,0.9-0.3,1.4c-0.3,0.5-0.7,1-1.2,1.4c-1.3,1.1-2.5,2.2-3.8,3.3c-1.2,1-2.5,1.9-3.9,2.7c-1.2,0.8-2.5,1.4-3.8,1.9
		c-1.2,0.4-2.4,0.7-3.6,0.7c-0.7,0-1.4-0.1-2-0.3c-0.5-0.2-0.9-0.5-1.3-0.9c-0.3-0.4-0.6-0.8-0.7-1.2c-0.1-0.5-0.2-1-0.2-1.5
		c0-1,0.2-2,0.5-3s0.7-1.9,1.1-2.8c0.6-1.2,1.2-2.4,1.7-3.6l1.7-3.4H345c-0.8,0.1-1.6-0.1-2.2-0.5c-0.4-0.3-0.6-0.7-0.6-1.2
		c0-0.2,0.1-0.5,0.2-0.7c0.1-0.3,0.3-0.6,0.6-0.8c0.3-0.3,0.6-0.5,0.9-0.6c0.4-0.2,0.8-0.3,1.2-0.3h3.1l6.2-12.2
		c0.3-0.7,0.8-1.2,1.5-1.6c0.5-0.3,1.2-0.5,1.8-0.5c0.6,0,1.1,0.2,1.6,0.5s0.8,0.9,0.7,1.6c0,0.4-0.1,0.8-0.2,1.1
		c-0.2,0.4-0.4,0.8-0.7,1.3l-0.6,1.2c-0.3,0.4-0.5,0.9-0.8,1.5s-0.6,1.1-0.9,1.6s-0.6,1.1-0.9,1.6c-0.7,1.3-1.4,2.6-2.1,3.9h9.5
		c0.4,0,0.9,0,1.3,0.1c0.3,0,0.7,0.1,1,0.3c0.3,0.1,0.5,0.3,0.6,0.6c0.2,0.3,0.3,0.7,0.2,1c0,0.2,0,0.4-0.1,0.6
		c-0.1,0.2-0.2,0.4-0.4,0.6c-0.2,0.2-0.5,0.4-0.8,0.4c-0.4,0.1-0.8,0.2-1.2,0.2L351.7,190z"/>
	<path class="st3" d="M369.6,201.6c0.5-1,1-2.1,1.6-3.3s1.2-2.4,1.8-3.6s1.2-2.3,1.7-3.4s1-2,1.4-2.8l9.6-19
		c0.1-0.3,0.3-0.5,0.5-0.7c0.3-0.2,0.5-0.4,0.8-0.6c0.3-0.2,0.6-0.3,1-0.4c0.3-0.1,0.7-0.2,1-0.2c0.6-0.1,1.2,0.1,1.7,0.5
		c0.3,0.3,0.5,0.7,0.5,1.2s-0.1,0.9-0.3,1.4c-0.2,0.5-0.5,0.9-0.7,1.3c-0.9,1.5-1.7,2.9-2.5,4.4l-2.4,4.5c-0.8,1.5-1.6,3-2.4,4.5
		s-1.6,3-2.5,4.4c0.5-0.5,1.1-1.1,1.7-1.6c0.6-0.6,1.3-1.1,2-1.6s1.5-0.9,2.4-1.2c1.5-0.5,3.1-0.6,4.6-0.3c0.5,0.1,1,0.3,1.5,0.6
		c0.4,0.3,0.8,0.6,1,1.1c0.3,0.5,0.4,1.1,0.4,1.7c0,0.8-0.1,1.6-0.4,2.4c-0.3,0.7-0.6,1.4-1,2.1c-0.4,0.6-0.9,1.3-1.3,1.9
		c-0.5,0.6-1,1.2-1.4,1.8s-0.8,1.2-1.1,1.9c-0.3,0.7-0.5,1.4-0.6,2.2v0.1v0.1c0,0.4,0.1,0.6,0.4,0.7c0.3,0.1,0.7,0.2,1,0.1
		c0.6,0,1.2-0.1,1.7-0.3c0.6-0.2,1.2-0.5,1.8-0.8c0.6-0.4,1.2-0.7,1.9-1.2s1.2-0.9,1.8-1.3s1.1-0.9,1.5-1.3s0.9-0.8,1.2-1.1
		c0.2-0.2,0.4-0.3,0.6-0.4c0.2-0.1,0.4-0.1,0.5-0.1c0.3,0,0.7,0.1,0.9,0.4c0.3,0.3,0.4,0.7,0.4,1.1c0,0.5-0.2,1-0.4,1.4
		c-0.4,0.6-0.9,1.2-1.5,1.6c-1.1,0.9-2.2,1.8-3.3,2.7c-1.1,0.8-2.2,1.6-3.4,2.3c-1.1,0.6-2.2,1.2-3.4,1.6c-1,0.4-2.1,0.6-3.2,0.7
		c-1.2,0.1-2.4-0.3-3.3-0.9c-0.9-0.7-1.4-1.9-1.3-3c0-1,0.2-1.9,0.5-2.8c0.3-0.9,0.8-1.8,1.3-2.6s1-1.6,1.6-2.4
		c0.5-0.7,1-1.5,1.5-2.3c0.2-0.3,0.4-0.6,0.5-0.9c0.1-0.3,0.2-0.6,0.2-0.9c0-0.3-0.1-0.5-0.2-0.7c-0.2-0.2-0.5-0.3-0.7-0.3
		c-1.1,0-2.2,0.3-3.2,0.8c-1,0.6-1.9,1.3-2.7,2.2c-0.8,0.9-1.6,1.9-2.3,2.9c-0.7,1-1.4,2-2,3c-0.3,0.4-0.5,0.9-0.8,1.5
		s-0.6,1.1-0.9,1.7s-0.6,1.2-1,1.7c-0.3,0.5-0.6,1.1-1,1.5c-0.3,0.4-0.7,0.8-1.1,1.1s-0.8,0.4-1.2,0.4c-0.6,0-1.2-0.2-1.6-0.6
		c-0.4-0.4-0.6-1-0.5-1.5c0-0.5,0.1-1,0.2-1.4C369.1,202.8,369.4,202.2,369.6,201.6z"/>
	<path class="st3" d="M411.4,185c0.8,0,1.6,0.1,2.4,0.3s1.6,0.5,2.4,1c0.7,0.5,1.3,1.1,1.8,1.9c0.5,0.9,0.8,1.9,0.7,2.9
		c0,0.7-0.1,1.3-0.2,2c-0.2,0.8-0.4,1.6-0.7,2.4c0.2,0.2,0.4,0.4,0.7,0.5c0.3,0.1,0.5,0.1,0.8,0.1c0.5,0,0.9-0.1,1.4-0.4
		c0.5-0.3,1.1-0.6,1.5-0.9c0.6-0.4,1.1-0.8,1.6-1.3s1-0.9,1.5-1.4s0.9-0.9,1.3-1.3l1-1.1c0.1-0.1,0.3-0.2,0.5-0.2
		c0.3,0,0.6,0.2,0.7,0.4c0.2,0.3,0.3,0.7,0.3,1.1c0,0.6-0.2,1.2-0.5,1.8c-0.4,0.8-1,1.5-1.7,2.1c-0.5,0.5-1,1.1-1.6,1.8
		s-1.3,1.3-1.9,1.9c-0.7,0.6-1.4,1.1-2.1,1.5s-1.4,0.6-2.2,0.6c-0.5,0-1-0.1-1.5-0.2c-0.5-0.2-1-0.4-1.5-0.8c-0.7,1.1-1.5,2.1-2.4,3
		s-1.9,1.7-3,2.3c-1.1,0.7-2.3,1.2-3.6,1.5c-1.3,0.4-2.7,0.6-4.1,0.6c-0.6,0-1.3-0.1-1.9-0.3c-0.7-0.2-1.4-0.6-2.1-1.1
		s-1.2-1.2-1.6-1.9c-0.5-0.9-0.7-1.9-0.7-2.9c0-0.9,0.2-1.9,0.4-2.8c0.3-1.2,0.7-2.3,1.2-3.4c0.6-1.2,1.2-2.4,2-3.4
		c0.8-1.2,1.7-2.2,2.7-3.1c1.1-0.9,2.4-1.7,3.7-2.2C408.2,185.2,409.8,185,411.4,185z M409.9,190.1c-0.9,0-1.8,0.2-2.6,0.7
		c-0.9,0.5-1.6,1.1-2.2,1.8c-0.7,0.8-1.2,1.6-1.6,2.5s-0.6,1.9-0.6,2.9c0,0.4,0,0.8,0.1,1.2s0.2,0.8,0.4,1.2
		c0.2,0.4,0.5,0.7,0.8,0.9c0.4,0.3,0.9,0.4,1.4,0.4c0.9,0,1.8-0.3,2.6-0.7c0.9-0.5,1.6-1.1,2.3-1.9c0.7-0.8,1.2-1.7,1.6-2.6
		c0.4-1,0.6-2,0.6-3c0-0.4,0-0.8-0.1-1.2c0-0.4-0.2-0.8-0.4-1.1c-0.2-0.4-0.5-0.7-0.8-0.9C410.9,190.2,410.4,190.1,409.9,190.1
		L409.9,190.1z"/>
	<path class="st3" d="M432.8,205.2c0-1,0.2-2,0.6-2.9c0.5-1,1-2,1.6-3s1.4-2.1,2.1-3.1s1.5-2.1,2.2-3.3c0.2-0.3,0.3-0.6,0.5-0.9
		c0.1-0.3,0.2-0.6,0.2-0.9c0-0.3-0.1-0.6-0.3-0.8c-0.2-0.2-0.5-0.3-0.8-0.3c-0.8,0-1.6,0.2-2.3,0.5c-0.8,0.4-1.5,0.8-2.1,1.3
		c-0.7,0.6-1.4,1.2-2,1.9s-1.2,1.5-1.7,2.2s-1,1.5-1.5,2.3l-1.2,2.1c-0.4,0.7-0.7,1.4-1,2.1c-0.3,0.7-0.6,1.4-1,2.1
		c-0.3,0.6-0.7,1.1-1.1,1.6c-0.9,0.9-2.4,0.9-3.3,0c-0.4-0.4-0.6-1-0.6-1.6s0.2-1.1,0.4-1.6c0.2-0.7,0.6-1.6,1-2.6s0.9-2,1.4-3.1
		s1-2.2,1.5-3.3l1.4-3.1c0.4-1,0.8-1.8,1.1-2.5c0.3-0.7,0.8-1.4,1.4-1.9c0.5-0.4,1.1-0.6,1.7-0.6c0.5,0,1,0.2,1.3,0.6
		c0.4,0.4,0.6,1,0.6,1.6s-0.1,1.1-0.4,1.7l1.7-1.6c0.6-0.6,1.3-1.1,2-1.6s1.5-0.9,2.4-1.2c1-0.3,2-0.5,3-0.5c0.5,0,1,0.1,1.5,0.2
		c0.5,0.1,0.9,0.3,1.3,0.6s0.7,0.7,0.9,1.1c0.3,0.5,0.4,1.1,0.4,1.7c0.4-0.4,0.9-0.9,1.5-1.3c0.5-0.4,1.1-0.8,1.7-1.2s1.3-0.6,2-0.9
		c0.8-0.2,1.6-0.3,2.4-0.3c0.6,0,1.2,0.1,1.8,0.2c0.6,0.1,1.1,0.4,1.6,0.7s0.8,0.8,1.1,1.2c0.2,0.6,0.3,1.2,0.3,1.9
		c0,1.2-0.3,2.3-0.8,3.3s-1.2,2-1.9,2.9c-0.2,0.3-0.5,0.7-0.9,1.1c-0.4,0.4-0.8,0.9-1.1,1.4c-0.4,0.5-0.7,1-1,1.6
		c-0.3,0.5-0.4,1-0.4,1.5c0,0.4,0.1,0.7,0.4,0.8s0.7,0.2,1,0.2c0.9,0,1.8-0.3,2.7-0.7c1-0.5,1.9-1.1,2.8-1.8s1.7-1.4,2.5-2.2
		c0.8-0.7,1.4-1.4,1.9-1.9c0.1-0.1,0.2-0.2,0.4-0.3c0.2-0.1,0.3-0.1,0.5-0.1c0.4,0,0.7,0.2,1,0.5s0.5,0.8,0.4,1.2
		c0,0.4-0.1,0.9-0.4,1.3c-0.3,0.5-0.7,1-1.2,1.4c-1.1,1-2.1,2-3.2,2.9s-2.2,1.7-3.3,2.4c-1,0.7-2.1,1.2-3.2,1.7
		c-1.1,0.4-2.2,0.6-3.4,0.6c-1.2,0.1-2.5-0.3-3.5-1c-0.9-0.8-1.4-2-1.3-3.2c0-0.9,0.2-1.9,0.6-2.8c0.4-0.9,0.8-1.7,1.4-2.5
		c0.5-0.8,1.1-1.6,1.7-2.3s1.1-1.4,1.6-2.2c0.2-0.3,0.3-0.6,0.5-0.9c0.1-0.3,0.2-0.6,0.2-0.9c0-0.3-0.1-0.6-0.3-0.8
		c-0.2-0.2-0.5-0.3-0.8-0.3c-0.8,0-1.6,0.2-2.3,0.5c-0.8,0.4-1.5,0.8-2.1,1.3c-0.7,0.6-1.4,1.2-2,1.9s-1.2,1.5-1.7,2.2
		s-1,1.5-1.5,2.3s-0.9,1.4-1.3,2.1c-0.4,0.7-0.7,1.4-1,2.1c-0.3,0.7-0.6,1.4-1,2.1c-0.3,0.6-0.7,1.1-1.1,1.6c-0.4,0.4-1,0.7-1.6,0.7
		c-0.3,0-0.5-0.1-0.8-0.1c-0.3-0.1-0.5-0.2-0.8-0.4c-0.2-0.2-0.4-0.3-0.5-0.6C432.9,205.7,432.8,205.5,432.8,205.2z"/>
	<path class="st3" d="M475,184.9c1.3-0.1,2.6,0.3,3.6,1.2c0.8,0.9,1.3,2,1.2,3.2c0,0.9-0.2,1.8-0.6,2.6c-0.5,1-1.3,2-2.2,2.7
		c-1.3,1.1-2.7,2-4.2,2.8c-2.1,1.1-4.3,2.1-6.6,2.9c0.1,0.6,0.4,1,0.9,1.3c0.6,0.3,1.3,0.5,2,0.5c1,0,1.9-0.1,2.9-0.4
		c1-0.3,2-0.6,3-1s2-0.9,2.9-1.3s1.8-0.9,2.6-1.4s1.4-0.8,1.9-1.1s0.9-0.5,1-0.6s0.3-0.2,0.5-0.2h0.4c0.2,0,0.4,0,0.6,0.2
		c0.2,0.1,0.3,0.2,0.4,0.4c0.1,0.1,0.2,0.3,0.2,0.5c0,0.1,0.1,0.3,0.1,0.4c0,0.2,0,0.4-0.1,0.6c-0.1,0.3-0.2,0.6-0.4,0.8
		c-0.3,0.3-0.7,0.5-1,0.8c-0.5,0.4-1.3,0.9-2.1,1.5s-1.9,1.2-3.1,1.9s-2.4,1.3-3.7,1.8c-1.3,0.5-2.7,1-4,1.4
		c-1.3,0.3-2.7,0.5-4.1,0.5c-1.1,0-2.1-0.2-3.1-0.7c-0.9-0.4-1.7-1.1-2.3-1.8c-0.6-0.8-1.1-1.7-1.4-2.6c-0.3-1-0.5-2.1-0.5-3.1
		c0-0.9,0.2-1.9,0.5-2.8c0.4-1.1,0.8-2.1,1.4-3c0.7-1.1,1.4-2.1,2.3-3c0.9-1,1.9-1.8,3.1-2.6s2.4-1.4,3.7-1.8
		C472,185.2,473.5,184.9,475,184.9z M474,188.9h-0.3h-0.3c-0.7,0-1.4,0.1-2.1,0.4c-0.6,0.3-1.2,0.7-1.8,1.1c-0.5,0.5-1,1-1.4,1.6
		s-0.8,1.2-1.1,1.8s-0.6,1.2-0.8,1.7s-0.4,1-0.5,1.4c0.7-0.4,1.4-0.8,2.1-1.2l2.1-1.3c0.7-0.4,1.2-0.8,1.7-1.1s0.8-0.6,1-0.7
		c0.7-0.4,1.3-0.9,1.8-1.5c0.3-0.4,0.5-0.8,0.5-1.2c0-0.3-0.1-0.5-0.3-0.7C474.4,189.1,474.2,189,474,188.9L474,188.9z"/>
</g>
<path d="M52.1,24.9c-0.2-0.1-0.4-0.1-0.6,0.1c-12.7,0.2-22.8,10.7-22.6,23.4c0.1,13.1,10.5,23.2,23.8,23.1
	c12.6-0.1,22.7-10.7,22.6-23.6C75.1,35.1,64.7,24.8,52.1,24.9z M52.5,68.8c-11.8,0.1-21-8.8-21.1-20.4c-0.2-11.2,8.8-20.5,20.1-20.7
	c0.2-0.2,0.4-0.2,0.5-0.1c11.2-0.1,20.4,9,20.5,20.3C72.7,59.3,63.7,68.7,52.5,68.8z"/>
</svg>
