<svg id="Layer_1" data-name="Layer 1" xmlns="http://www.w3.org/2000/svg" viewBox="0 0 453.41 149.96"><defs><style>.cls-1{fill:#fe0006;}</style></defs><title>rev3k_logo</title><g id="_3" data-name="3"><path class="cls-1" d="M359.09,52.67c-2,10.44-8.89,16.43-18.37,21.28,10.21,4,11.6,11.7,10.51,20.72-1.49,12.26-3.76,24.31-8.15,35.92-6.3,16.65-18.87,24.94-35.94,27.2-9.3,1.23-18.61,1.09-27.69-1.59-12.74-3.76-18.7-12.68-17.61-25.91.82-10,3-19.74,5-29.52.43-2.11,1.27-2.63,3.22-2.61,10,.06,20,.11,30,0,2.67,0,2.87,1,2.41,3.14-1.8,8.44-3.5,16.89-5.23,25.34a15.16,15.16,0,0,0-.45,2.83c0,2.34-1.1,5.12,2.26,6.24a6.81,6.81,0,0,0,8.27-3.62c2.14-4.48,3.12-9.35,4.08-14.16,1.25-6.3,3.15-12.49,3.46-19,.33-7-1.65-9.44-8.53-10.47-1.21-.18-2.44-.33-3.67-.41-6.2-.42-6.2-.41-4.94-6.37.88-4.14,1.79-8.28,2.6-12.44.37-1.87,1.1-2.81,3.24-2.65a70.21,70.21,0,0,0,7.81-.09c7.26-.29,10.43-2.27,12.28-9.18,1.08-4,2.95-4.87,6.77-4.76C340,52.86,349.41,52.67,359.09,52.67Z" transform="translate(-8.12 -8.58)"/><path class="cls-1" d="M344.11,45.26c-4.66,0-9.32-.2-14,.07-3,.18-3.38-1-2.78-3.49a28.89,28.89,0,0,0,.7-4.44c.21-2.56.13-5.24-2.9-6-3.18-.84-6,0-7.66,3.19-2.34,4.56-3,9.63-4.09,14.56-1.57,7.12-1.48,7.14-8.53,7.14-8.62,0-17.25,0-25.88,0-2.18,0-2.78-.36-2.22-2.74,1.7-7.31,2.87-14.74,5.56-21.81,4.5-11.87,12.91-18.95,25.38-21.36a86.74,86.74,0,0,1,35.84.15C356.31,13.39,361.94,20.79,362,34c0,2.87-.17,5.75-.34,8.61-.11,1.91-.94,2.82-3.12,2.74C353.7,45.13,348.9,45.26,344.11,45.26Z" transform="translate(-8.12 -8.58)"/></g><g id="bottom"><path d="M91.6,81.63c-2.7,7.12-9,8.93-16,10.51,3.43,1.69,6.73,2.55,8.88,5.28,3.26,4.15,3.37,8.86,2.4,13.69-2.82,13.94-5.82,27.84-8.57,41.8-.45,2.3-1.43,2.7-3.51,2.67-7.67-.12-15.36-.21-23,0-3.17.1-3.13-1.14-2.62-3.53q4.38-20.46,8.56-41c.36-1.73.42-3.53.61-5.3.36-3.43-1.71-4.39-4.64-4.91-3.34-.59-3.31,1.63-3.76,3.77-3.29,15.94-6.66,31.86-9.95,47.8-.44,2.13-1.14,3.19-3.7,3.12-8.49-.21-17-.14-25.49,0-2.33,0-3-.35-2.47-2.95Q15.68,118.33,22.75,84c.39-1.89.91-2.83,3.08-2.82,21.65.08,43.29.06,64.93.09C91,81.24,91.21,81.44,91.6,81.63Z" transform="translate(-8.12 -8.58)"/><path d="M393.3,152.74c-.45,2.25-1.2,2.87-3.38,2.84q-12.94-.17-25.9,0c-2.34,0-2.7-.69-2.25-2.81q7.37-34.5,14.53-69c.43-2.06,1.17-2.59,3.16-2.58,18.64.06,37.27,0,55.87,0,.14.36.38.72.31.81-4.4,5.15-3.38,11.18-2.85,17.15,1.56,17.58,3,35.18,4.66,52.76.26,2.76-.22,3.78-3.3,3.69-8.63-.23-17.27-.16-25.91,0-2.46,0-3.23-.53-3.28-3.15-.28-13.54-.81-27.08-1.25-40.62" transform="translate(-8.12 -8.58)"/><path d="M220.26,84.41c.63-2.28,1.42-3.35,4.08-3.29,9.3.2,18.6.08,28.36.08-3.47,10.22-6.79,20-10.13,29.83-4.67,13.7-9.45,27.37-14,41.13-.88,2.7-2.05,3.48-4.84,3.45-13.43-.17-26.87-.15-40.31,0-2.73,0-3.77-.39-3.56-3.48,1.51-22.82,2.86-45.65,4.18-68.48.12-2,.85-2.5,2.74-2.48,8.64.08,17.28.15,25.92,0,2.78-.06,2.69,1.21,2.45,3.21-.83,6.93-1.56,13.86-2.33,20.8" transform="translate(-8.12 -8.58)"/><path d="M124.8,155.53c-8.09,0-16.18-.06-24.26.05-2.38,0-2.87-.37-2.32-3,4.91-22.86,9.63-45.76,14.33-68.67.44-2.13,1.32-2.83,3.55-2.82q22.6.15,45.23,0c2.58,0,2.82.71,2.29,3C162.25,90,161.09,95.9,160,101.81c-.4,2.12-1.32,2.85-3.54,2.76-4.65-.19-9.32.05-14-.1-2-.07-2.81.6-3.2,2.6-1.39,7.11-2.94,14.19-4.5,21.26-.49,2.19.18,2.88,2.43,2.83,5.34-.14,10.7.09,16-.1,3-.11,4.17.23,3.21,3.74-1.55,5.66-2.61,11.47-3.61,17.26-.45,2.61-1.38,3.62-4.18,3.55C140.7,155.4,132.75,155.53,124.8,155.53Z" transform="translate(-8.12 -8.58)"/></g><g id="top"><path d="M60,33.74A180.4,180.4,0,0,1,83.36,35.2c8.1,1.2,13.56,6.93,14.31,15,.67,7.33-.71,14.44-2.42,21.51-.34,1.43-1,2.07-2.49,2.06q-12.53-.06-25.05,0c-1.63,0-2.1-.32-1.67-2.08a85.77,85.77,0,0,0,2-10.86c.44-4-1.07-5.46-5-5.92-2-.23-2.94.22-3.3,2.41C59,61.94,57.86,66.45,57,71c-.38,2-1.08,2.9-3.39,2.85q-12.73-.26-25.46,0c-2.76.06-3.22-.76-2.66-3.28C28,59.37,30.38,48.15,32.59,36.9c.51-2.59,1.52-3.28,4-3.22C43.47,33.85,50.32,33.74,60,33.74Z" transform="translate(-8.12 -8.58)"/><path d="M149.46,33.74c7.54,0,15.08.09,22.62-.05,2.45,0,3.53.34,2.88,3.11q-2.22,9.6-4.06,19.28c-.38,2-1.42,2.26-3.13,2.24-5.21-.07-10.42.1-15.63-.09-2.11-.08-2.88.73-3.22,2.61-.48,2.69-1.51,5.35-1.59,8-.12,4.51-2.43,5.13-6.29,5-7.8-.27-15.62-.14-23.44,0-2.17,0-2.85-.35-2.32-2.74,2.53-11.5,4.88-23,7.24-34.55.41-2,1.2-2.91,3.49-2.86C133.82,33.84,141.64,33.74,149.46,33.74Z" transform="translate(-8.12 -8.58)"/><path d="M203.83,33.74c4.66,0,9.32.08,14,0,2-.05,2.65.49,2.43,2.56Q218.33,53.6,216.66,71c-.22,2.2-1,2.92-3.31,2.88-8.49-.14-17-.19-25.48,0-2.79.06-3.13-1-3-3.34.77-11.19,1.52-22.39,2.09-33.59.13-2.71,1.14-3.37,3.69-3.26C195.05,33.88,199.44,33.74,203.83,33.74Z" transform="translate(-8.12 -8.58)"/><path d="M268.89,33.74c-4.44,13-8.74,25.55-12.95,38.09-.46,1.37-1.06,2-2.57,2-9.83-.06-19.67,0-29.91,0,4-13,7.84-25.67,11.65-38.34.54-1.81,1.81-1.72,3.21-1.72Z" transform="translate(-8.12 -8.58)"/><path d="M378.39,73.79c2.74-13,5.44-25.65,8-38.33.35-1.73,1.37-1.73,2.65-1.73,8.9,0,17.79.08,26.69,0,2.4,0,2.33,1.1,2,2.78Q414,54.11,410.35,71.76a2.17,2.17,0,0,1-2.47,2.06C398.18,73.77,388.48,73.79,378.39,73.79Z" transform="translate(-8.12 -8.58)"/><path d="M411.85,73.79c3-6,5.72-11.61,8.52-17.18,3.43-6.84,6.92-13.64,10.37-20.47.61-1.19.94-2.45,2.79-2.44,9.13.08,18.26,0,28,0C456,44.06,450.16,53.64,445.7,63.82c-3.51,8-8.2,11.46-17,10.12C423.38,73.13,417.84,73.79,411.85,73.79Z" transform="translate(-8.12 -8.58)"/></g></svg>