<?xml version="1.0" encoding="utf-8"?>
<!-- Generator: Adobe Illustrator 24.1.0, SVG Export Plug-In . SVG Version: 6.00 Build 0)  -->
<svg version="1.1" id="Layer_1" xmlns="http://www.w3.org/2000/svg" xmlns:xlink="http://www.w3.org/1999/xlink" x="0px" y="0px"
	 viewBox="0 0 132 65" style="enable-background:new 0 0 132 65;" xml:space="preserve">
<style type="text/css">
	.st0{fill:#6C3C97;}
	.st1{fill:#FFFFFF;}
	.st2{font-family:'Futura-Bold';}
	.st3{font-size:20px;}
</style>
<g id="logo" transform="translate(-27 -36)">
	<g id="roku" transform="translate(-110.5 -247.511)">
		<path id="Path_1" class="st0" d="M158.1,296.9c0-3.7-3-6.7-6.7-6.7h-3.3v13.4h3.3C155.1,303.5,158.1,300.6,158.1,296.9
			 M173.1,323.6H161l-9.6-13.3h-3.2v13.3h-10.7v-40h15.3c8.8,0,16,6,16,13.4c0,4.5-2.8,8.5-7,11L173.1,323.6"/>
		<path id="Path_2" class="st0" d="M185.2,299.3c-2.8,0-5.2,3.8-5.2,8.6s2.4,8.6,5.2,8.6c2.9,0,5.3-3.8,5.3-8.6
			S188.1,299.3,185.2,299.3 M201.6,307.9c0,9.1-7.3,16.4-16.3,16.5c-9.1,0-16.4-7.3-16.5-16.3c0-9.1,7.3-16.4,16.3-16.5
			c0,0,0,0,0.1,0C194.2,291.5,201.6,298.8,201.6,307.9C201.6,307.8,201.6,307.8,201.6,307.9 M226.7,292.2l-12.3,12.3v-12.3h-10.7
			v31.4h10.7v-12.7l12.8,12.7h13.4l-16.3-16.3l13.5-13.5v18.6c0,6.2,3.7,11.9,13.1,11.9c4-0.1,7.8-1.8,10.5-4.8l4.8,4.1h2.3v-31.3
			h-10.7v20.3c-1,2.1-3.1,3.4-5.5,3.4c-2.6,0-3.8-1.6-3.8-6.5v-17.2H226.7L226.7,292.2z"/>
	</g>
	<text transform="matrix(1 0 0 1 27 95)" class="st1 st2 st3">FLASHBACK</text>
</g>
</svg>
