<?xml version="1.0" encoding="utf-8"?>
<!-- Generator: Adobe Illustrator 24.0.3, SVG Export Plug-In . SVG Version: 6.00 Build 0)  -->
<svg version="1.1" id="Layer_1" xmlns="http://www.w3.org/2000/svg" xmlns:xlink="http://www.w3.org/1999/xlink" x="0px" y="0px"
	 viewBox="0 0 300 90" style="enable-background:new 0 0 300 90;" xml:space="preserve">
<style type="text/css">
	.st0{fill:#EB1E2F;}
	.st1{fill:#FFFFFF;}
</style>
<polyline class="st0" points="117.4,60.9 80,63.2 45,65.2 43.7,65.2 45,66.7 65.1,88.6 80,86.1 117.4,79.1 262.6,52.4 "/>
<g>
	<polyline class="st1" points="138.2,8.4 138.2,12.7 143.7,12.7 143.7,37.6 147.7,37.6 147.7,12.7 153.2,12.7 153.2,8.4 	"/>
	<rect x="276.8" y="8.4" class="st1" width="4.2" height="29.2"/>
	<polyline class="st1" points="281.2,23 292,8.4 297.4,8.4 285.8,23 297.1,37.6 291.6,37.6 	"/>
	<polyline class="st1" points="262.4,37.6 247.3,37.6 247.3,8.4 262.4,8.4 262.4,12.4 251.5,12.4 251.5,21.2 262.4,21.2 262.4,25 
		251.5,25 251.5,33.6 262.4,33.6 	"/>
	<polyline class="st1" points="217.2,37.6 213,37.6 213,8.4 217.2,8.4 217.2,20.7 229,20.7 229,8.4 232.9,8.4 232.9,37.6 229,37.6 
		229,25 217.2,25 	"/>
	<path class="st1" d="M176,16c2.2-7.3,10.4-10.3,17.3-8c1.5,0.7,3.3,1.5,4.9,2V5.4c-8.6-4-20.4-3.3-25.7,5.5
		c-5.5,8.3-2.9,20.6,6.4,25.1c4.9,2.8,13.7,2.5,18.6,0l0.2-5.5c-4.6,3.3-11.1,4.5-15.9,1.5c-5.1-3.5-6.6-7-6.6-13.3l0.2-0.7"/>
	<path class="st1" d="M124.7,24c1.5-1.5,2.2-3.8,2.2-6c0-2.8-0.9-5.3-2.9-7c-1.5-1.3-3.8-2.3-6.6-2.3c-0.4,0-0.7-0.2-0.9-0.2h-8.6
		v29.2h4.2V24.3l5.3,7.8l4,5.5h5.5l-8-11.1C121.1,26.5,123.1,25.5,124.7,24 M114.1,23.7h-2V12.7h3.3c0.4,0,1.3,0.2,2,0.2
		c1.3,0.3,2.4,0.5,3.5,1c1.3,1,1.8,2.5,1.8,4c0,1.8-0.9,3.5-2,4.5c-0.9,0.5-2,1-3.3,1.3C116.5,23.7,115.2,23.7,114.1,23.7z"/>
	<path class="st1" d="M93.7,17c-0.7-1.5-2-3.3-3.5-4.5c-1.1-1.3-3.1-2.8-4.7-3.5c-1.8-0.3-3.8-0.8-5.5-0.8c0-0.2,0-0.2,0-0.2
		c-1.8,0-4,0.5-5.7,1.2c-1.6,0.5-3.3,1.8-4.6,3c-1.1,1.5-2.4,3.3-3.1,5c-0.9,1.5-1.1,3.8-1.1,5.5c0,2,0.2,4,1.1,5.8
		c0.4,1.8,1.3,3.3,2.2,4.5c1.5,1.8,3.5,3,5.3,3.8c1.8,0.7,4,1.2,6,1.2c2,0,4.2-0.5,6-1.2c1.8-0.8,3.8-2,5.1-3.8
		c1.3-1.3,2.2-2.8,2.7-4.5c0.9-1.8,1.3-3.5,1.3-5.8C95,20.7,94.6,18.5,93.7,17 M87.3,30.5c-1.8,2-4.6,3.3-7.3,3.3
		c-1.3,0-3.1-0.5-4.2-1c-1.3-0.2-2.7-1.5-3.3-2.3c-1.1-0.8-1.8-2.3-2.2-3.5c-0.2-1.2-0.7-2.8-0.7-4.3c0-1.2,0.4-3,0.9-4.3
		c0.4-1.2,1.1-2.5,2.2-3c0.7-1,2-2,3.3-2.5c1.1-0.2,2.7-0.7,4-0.7v0.2c1.3,0,2.7,0.5,4,0.5c1.3,0.5,2.4,1.5,3.5,2.8
		c0.9,1,2,2,2.2,3.2c0.4,1,0.9,2.5,0.9,3.8C90.6,25.8,89.5,28.5,87.3,30.5z"/>
	<path class="st1" d="M52.7,12.7c-0.7-1.3-1.8-2.3-2.7-3c-1.1-0.2-2-0.7-3.1-1c-0.4,0-1.3,0-2,0c-0.7,0-1.5-0.2-2.2-0.2h-6.6v29.2
		h4.4V25.8h3.1c0.4,0,0.9,0,1.3,0c2.4,0,4.6-0.8,6.2-2.3c1.5-1.5,2.9-3.8,2.9-6.3C54.1,15.7,53.6,13.9,52.7,12.7 M48.3,21
		c-0.9,0.5-2,0.8-3.3,1c-0.7,0-1.3,0-1.8,0h-2.7v-9.6h3.1c0.4,0,0.9,0.3,1.3,0.3c1.1,0,2.2,0.2,3.3,1c0.7,0.7,1.5,2,1.5,3.5
		C49.9,19,49,20.2,48.3,21z"/>
	<path class="st1" d="M17.1,31c2-4.5-1.3-7-5.3-9c-1.8-0.2-4.6-2.3-6.4-3.5C0.5,14.7,0.9,7.7,6,4.1c4-2.3,8.9-1.5,12.8,0.5v4.8
		C16.2,6.9,9.1,4.9,7.3,9.7C4.5,16.2,15.1,18,18.6,21c5.5,3.5,4.9,11.8-0.7,15.3c-4,2-11.1,2.5-14.6-0.8v-0.2v-4
		C6.9,34,14.9,36.1,17.1,31"/>
</g>
</svg>
