<?xml version="1.0" encoding="UTF-8" standalone="no"?>
<!-- Created with Inkscape (http://www.inkscape.org/) -->

<svg
   xmlns:dc="http://purl.org/dc/elements/1.1/"
   xmlns:cc="http://creativecommons.org/ns#"
   xmlns:rdf="http://www.w3.org/1999/02/22-rdf-syntax-ns#"
   xmlns:svg="http://www.w3.org/2000/svg"
   xmlns="http://www.w3.org/2000/svg"
   xmlns:sodipodi="http://sodipodi.sourceforge.net/DTD/sodipodi-0.dtd"
   xmlns:inkscape="http://www.inkscape.org/namespaces/inkscape"
   width="466.13596"
   height="68.973038"
   id="svg6013"
   version="1.1"
   inkscape:version="0.48.1 "
   sodipodi:docname="AJAX.svg">
  <defs
     id="defs6015" />
  <sodipodi:namedview
     id="base"
     pagecolor="#ffffff"
     bordercolor="#666666"
     borderopacity="1.0"
     inkscape:pageopacity="0.0"
     inkscape:pageshadow="2"
     inkscape:zoom="1.5722656"
     inkscape:cx="253.19367"
     inkscape:cy="-80.406102"
     inkscape:document-units="px"
     inkscape:current-layer="layer1"
     showgrid="false"
     fit-margin-top="0"
     fit-margin-left="0"
     fit-margin-right="0"
     fit-margin-bottom="0"
     inkscape:window-width="1280"
     inkscape:window-height="1004"
     inkscape:window-x="-8"
     inkscape:window-y="-8"
     inkscape:window-maximized="1" />
  <metadata
     id="metadata6018">
    <rdf:RDF>
      <cc:Work
         rdf:about="">
        <dc:format>image/svg+xml</dc:format>
        <dc:type
           rdf:resource="http://purl.org/dc/dcmitype/StillImage" />
        <dc:title />
      </cc:Work>
    </rdf:RDF>
  </metadata>
  <g
     inkscape:label="Layer 1"
     inkscape:groupmode="layer"
     id="layer1"
     transform="translate(-90.10495,-390.87567)">
    <g
       id="g20"
       transform="matrix(1.25,0,0,-1.25,463.60342,404.25742)">
      <path
         d="m 0,0 3.359,0 -4.933,-23.201 31.845,0 1.476,6.955 -18.393,0 1.294,6.086 17.067,0 1.478,6.955 -17.066,0 1.294,6.085 18.21,0 1.477,6.952 -35.006,0 L 0,0 z m 39.097,9.832 -1.482,-6.954 10.843,0 -5.541,-26.079 13.909,0 5.541,26.079 10.263,0 1.48,6.954 -35.013,0 z m -51.302,0.004 -4.709,-22.15 -0.138,0 -6.412,22.15 -23.813,0 -2.104,-9.836 3.458,0 -4.302,-20.237 c 0.657,0.009 1.312,0.019 1.967,0.019 3.349,0 6.691,-0.127 10.038,-0.387 l 4.448,20.922 0.091,0 6.438,-22.245 c 6.359,-1.031 12.781,-2.528 19.351,-4.516 0.03,-0.01 0.068,-0.023 0.104,-0.034 l 7.668,36.314 -12.085,0 z"
         style="fill:#5b6770;fill-opacity:1;fill-rule:nonzero;stroke:none"
         id="path22"
         inkscape:connector-curvature="0" />
    </g>
    <path
       d="m 233.13955,412.61192 c -1.8,8.4625 -6.80125,12.35 -12.52125,12.35 -5.72,0 -9.06625,-3.8875 -7.2675,-12.35 1.79875,-8.46375 6.80125,-12.355 12.5225,-12.355 5.715,0 9.065,3.89125 7.26625,12.355 m -5.27375,-21.73375 c -10.6375,0 -16.10375,1.77375 -20.64625,4.57625 -5.46375,3.37375 -9.89625,9.15 -11.6,17.1575 -2.62375,12.35 2.8175,21.73125 23.00375,21.73125 10.64,0 18.39375,-2.8575 23.7675,-7.14875 4.12625,-3.26125 7.12875,-8.23625 8.4775,-14.5825 2.62625,-12.355 -2.81625,-21.73375 -23.0025,-21.73375 m 124.92625,1.08875 -43.7675,0 -1.8525,8.6925 13.55125,0 -6.9225,32.6 17.385,0 6.9275,-32.6 12.82625,0 1.8525,-8.6925 z m -174.73875,13.895 c -0.8625,4.05875 -3.38625,5.43375 -9.56375,5.43375 l -3.54625,0 2.2625,-10.6375 5.2625,0 c 4.97125,0 6.3125,1.77375 5.585,5.20375 m 3.06875,-13.89625 -33.865,0 -2.6325,12.29125 4.43,0 -6.16625,29.0025 17.38625,0 2.82125,-13.27125 13.61125,0 c 8.6925,0 16.15,-3.60125 18.28875,-13.67 2.28875,-10.75 -3.9225,-14.3525 -13.87375,-14.3525 m 107.495,13.2675 c -0.82625,3.88875 -3.93,5.0325 -7.64625,5.0325 l -6.63375,0 2.115,-9.9525 6.34875,0 c 4.23125,0 6.595,1.25625 5.81625,4.92 m 1.62125,-13.26625 -33.7975,0 -2.6325,12.29 4.4175,0 -6.165,29.0025 17.3875,0 3.185,-14.98875 4.07,0 c 2.9075,0 4.395,1.1725 5.195,3.7225 l 3.8025,11.26625 17.575,0 -7.8775,-18.815 c 5.3425,-0.91375 9.19125,-5.61 10.06375,-11.1 1.38875,-8.7575 -3.96,-11.3775 -15.22375,-11.3775 m -168.12625,-1.08875 c -16.5275,0 -25.6825,4.06 -27.60375,13.09625 -0.49875,2.34375 -0.43375,5.26125 1.38375,7.20625 4.5125,4.8625 23.83,6.8075 25.61625,9.43625 0.3475,0.515 0.5,1.1425 0.34125,1.88875 -0.70375,3.315 -4.77625,4.175 -8.38,4.175 -2.285,0 -3.70875,-0.57375 -4.62125,-1.66 -0.8575,-1.0875 -0.96125,-2.745 -0.53,-5.0325 l -17.73,0 c -1.28625,7.665 -1.62125,14.355 20.79625,14.355 18.815,0 27.14125,-5.26125 28.87625,-13.44 0.85375,-4.0025 -0.33125,-6.23375 -1.62875,-7.6625 -4.445,-4.92 -23.155,-6.74875 -25.29625,-9.32375 -0.4175,-0.455 -0.4775,-1.2575 -0.34375,-1.88625 0.45,-2.11625 2.68625,-3.49 6.34625,-3.49 2.175,0 3.82875,0.2875 4.8475,1.1425 1.075,0.85875 1.51625,2.28875 1.14375,4.575 l 17.04375,0 c 1.5825,-8.5175 -2.70375,-13.38 -20.26125,-13.38 m 277.60875,13.3825 c 1.585,-8.5225 -2.70125,-13.385 -20.26625,-13.385 -16.53125,0 -25.69125,4.06125 -27.61625,13.09875 -0.4975,2.34625 -0.43,5.26375 1.38625,7.21 4.51625,4.86375 23.8425,6.80875 25.6275,9.44 0.3475,0.51375 0.49875,1.1425 0.34125,1.88875 -0.705,3.31625 -4.77875,4.1775 -8.38125,4.1775 -2.28875,0 -3.7125,-0.575 -4.62625,-1.66125 -0.855,-1.08875 -0.96125,-2.74625 -0.53125,-5.03375 l -17.73625,0 c -1.19625,7.12875 -1.55875,13.4125 16.4325,14.26 8.89,-2.14875 17.67625,-3.55375 26.455,-4.23625 3.8675,-2.29125 6.01625,-5.39875 6.80625,-9.11 0.85,-4.0025 -0.33375,-6.23625 -1.63,-7.66375 -4.44875,-4.92125 -23.1675,-6.7525 -25.3075,-9.32875 -0.4175,-0.455 -0.4775,-1.25625 -0.34375,-1.88625 0.45,-2.1175 2.6875,-3.49 6.35,-3.49 2.175,0 3.8275,0.2875 4.85,1.1425 1.075,0.85875 1.515,2.28875 1.14125,4.5775 l 17.04875,0 z"
       style="fill:#000000;fill-opacity:1;fill-rule:nonzero;stroke:none"
       id="path26"
       inkscape:connector-curvature="0" />
    <g
       id="g28"
       transform="matrix(1.25,0,0,-1.25,413.90255,459.3233)">
      <path
         d="m 0,0 c 7.731,7.854 26.342,0.752 28.261,0.943 0.98,0.099 1.428,1.495 -0.518,2.272 -18.469,7.36 -45.735,9.245 -60.713,6.539 -1.65,-0.456 -2.22,-1.895 0.381,-2.208 2.611,-0.32 9.28,-0.824 18.804,-3.07 5.283,-1.247 9.182,-2.94 12.514,-4.777 C -0.83,-0.522 -0.438,-0.444 0,0"
         style="fill:#00558c;fill-opacity:1;fill-rule:nonzero;stroke:none"
         id="path30"
         inkscape:connector-curvature="0" />
    </g>
    <g
       id="g32"
       transform="matrix(1.25,0,0,-1.25,451.21205,450.5733)">
      <path
         d="m 0,0 1.565,7.446 c -29.019,8.783 -56.791,8.325 -86.078,-2.094 -1.482,-0.517 -1.955,-2.666 1.103,-2.182 4.51,0.7 22.702,3.142 38.917,3.228 C -31.475,6.466 -15.717,3.72 -2.527,-0.648 -0.998,-1.086 -0.251,-0.85 0,0"
         style="fill:#c8102e;fill-opacity:1;fill-rule:nonzero;stroke:none"
         id="path34"
         inkscape:connector-curvature="0" />
    </g>
  </g>
</svg>
