<?xml version="1.0" encoding="utf-8"?>
<!-- Generator: Adobe Illustrator 24.1.0, SVG Export Plug-In . SVG Version: 6.00 Build 0)  -->
<svg version="1.1"
	 id="svg6013" inkscape:version="0.48.1 " sodipodi:docname="AJAX.svg" xmlns:cc="http://creativecommons.org/ns#" xmlns:dc="http://purl.org/dc/elements/1.1/" xmlns:inkscape="http://www.inkscape.org/namespaces/inkscape" xmlns:rdf="http://www.w3.org/1999/02/22-rdf-syntax-ns#" xmlns:sodipodi="http://sodipodi.sourceforge.net/DTD/sodipodi-0.dtd" xmlns:svg="http://www.w3.org/2000/svg"
	 xmlns="http://www.w3.org/2000/svg" xmlns:xlink="http://www.w3.org/1999/xlink" x="0px" y="0px" viewBox="0 0 126 69"
	 style="enable-background:new 0 0 126 69;" xml:space="preserve">
<style type="text/css">
	.st0{fill:#5B6770;}
	.st1{fill:#00558C;}
	.st2{fill:#C8102E;}
</style>
<sodipodi:namedview  bordercolor="#666666" borderopacity="1.0" fit-margin-bottom="0" fit-margin-left="0" fit-margin-right="0" fit-margin-top="0" id="base" inkscape:current-layer="layer1" inkscape:cx="253.19367" inkscape:cy="-80.406102" inkscape:document-units="px" inkscape:pageopacity="0.0" inkscape:pageshadow="2" inkscape:window-height="1004" inkscape:window-maximized="1" inkscape:window-width="1280" inkscape:window-x="-8" inkscape:window-y="-8" inkscape:zoom="1.5722656" pagecolor="#ffffff" showgrid="false">
	</sodipodi:namedview>
<g id="layer1" transform="translate(-90.10495,-390.87567)" inkscape:groupmode="layer" inkscape:label="Layer 1">
	<path class="st0" d="M198,392l-5.9,27.7h-0.2l-8-27.7h-29.8l-2.6,12.3h4.3l-5.4,25.3c0.8,0,1.6,0,2.5,0c4.2,0,8.4,0.2,12.5,0.5
		l5.6-26.2h0.1l8,27.8c7.9,1.3,16,3.2,24.2,5.6c0,0,0.1,0,0.1,0l9.6-45.4C213.1,392,198,392,198,392z"/>
	<path d="M149.4,404.3c1.6-8.5-2.7-13.4-20.3-13.4c-16.5,0-25.7,4.1-27.6,13.1c-0.5,2.3-0.4,5.3,1.4,7.2c4.5,4.9,23.8,6.8,25.6,9.4
		c0.3,0.5,0.5,1.1,0.3,1.9c-0.7,3.3-4.8,4.2-8.4,4.2c-2.3,0-3.7-0.6-4.6-1.7c-0.9-1.1-1-2.7-0.5-5H97.6c-1.2,7.1-1.6,13.4,16.4,14.3
		c8.9-2.1,17.7-3.6,26.5-4.2c3.9-2.3,6-5.4,6.8-9.1c0.9-4-0.3-6.2-1.6-7.7c-4.4-4.9-23.2-6.8-25.3-9.3c-0.4-0.5-0.5-1.3-0.3-1.9
		c0.5-2.1,2.7-3.5,6.4-3.5c2.2,0,3.8,0.3,4.8,1.1c1.1,0.9,1.5,2.3,1.1,4.6L149.4,404.3L149.4,404.3z"/>
	<g id="g28" transform="matrix(1.25,0,0,-1.25,413.90255,459.3233)">
		<path id="path30" inkscape:connector-curvature="0" class="st1" d="M-200.3,0c7.7,7.9,26.3,0.8,28.3,0.9c1,0.1,1.4,1.5-0.5,2.3
			c-18.5,7.4-45.7,9.2-60.7,6.5c-1.7-0.5-2.2-1.9,0.4-2.2c2.6-0.3,9.3-0.8,18.8-3.1c5.3-1.2,9.2-2.9,12.5-4.8
			C-201.1-0.5-200.7-0.4-200.3,0"/>
	</g>
	<g id="g32" transform="matrix(1.25,0,0,-1.25,451.21205,450.5733)">
		<path id="path34" inkscape:connector-curvature="0" class="st2" d="M-200.3,0l1.6,7.4c-29,8.8-56.8,8.3-86.1-2.1
			c-1.5-0.5-2-2.7,1.1-2.2c4.5,0.7,22.7,3.1,38.9,3.2c13,0.1,28.8-2.7,42-7C-201.3-1.1-200.5-0.8-200.3,0"/>
	</g>
</g>
</svg>
