<?xml version="1.0" encoding="utf-8"?>
<!-- Generator: Adobe Illustrator 23.0.1, SVG Export Plug-In . SVG Version: 6.00 Build 0)  -->
<svg version="1.1" id="logo" xmlns="http://www.w3.org/2000/svg" xmlns:xlink="http://www.w3.org/1999/xlink" x="0px" y="0px"
	 viewBox="0 0 202.6 179.2" style="enable-background:new 0 0 202.6 179.2;" xml:space="preserve">
<style type="text/css">
	.st0{fill:#5D7031;}
	.st1{fill:#FFFFFF;stroke:#FFFFFF;stroke-width:6;stroke-linejoin:round;}
	.st2{fill:#666565;}
	.st3{fill:none;stroke:#9ABD4B;stroke-width:4.41;stroke-miterlimit:10;}
	.st4{fill:#D8AE58;}
	.st5{fill:#FFFFFF;}
	.st6{fill:#FFFFFF;stroke:#FFFFFF;stroke-width:6;stroke-miterlimit:10;}
	.st7{fill:none;}
	.st8{fill:#666665;}
	.st9{fill:none;stroke:#666665;stroke-width:2;stroke-linecap:round;stroke-linejoin:round;}
	.st10{fill:none;stroke:#666665;stroke-width:2;stroke-miterlimit:10;}
	.st11{fill:none;stroke:#666665;stroke-width:2.1;stroke-miterlimit:10;}
	.st12{fill:none;stroke:#D42027;stroke-width:2;stroke-linejoin:round;}
	.st13{fill:none;stroke:#D42027;stroke-linejoin:round;}
	.st14{fill:none;stroke:#D42027;stroke-width:2;stroke-linecap:round;stroke-linejoin:round;}
	.st15{fill:none;stroke:#D42027;stroke-miterlimit:10;}
</style>
<title>traa_logo</title>
<path class="st0" d="M80.4,63.8h2.2l-8.5-17.7l-8.5,17.7H68l-2.2,4.7H68l-2.2,4.7h7.4v4c0,0.6,0.5,1.1,1.1,1.1l0,0
	c0.6,0,1.1-0.5,1.1-1c0,0,0,0,0,0v-4h7.4l-2.2-4.7h2.2L80.4,63.8z"/>
<path class="st0" d="M75.3,73.2h7.4l-2.2-4.7h2.2l-2.2-4.7h2.2l-8.5-17.7v32.2l0,0c0.6,0,1.1-0.5,1.1-1c0,0,0,0,0,0L75.3,73.2z"/>
<path class="st1" d="M158.3,96.1c0,0-10.3-1.2-14.2,7.6c0,0-1.5,6.2-5.4,8c0,0,12.6-3.5,16.7-6.3c0,0,4.6-5.2,6.4-6.5"/>
<path class="st0" d="M166.8,59.6h3.3l-12.5-26.1l-12.5,26.1h3.3l-3.3,6.9h3.3l-3.3,6.9H156v6c0,0.9,0.7,1.6,1.6,1.6l0,0
	c0.9,0,1.6-0.7,1.6-1.6v-6h10.9l-3.3-6.9h3.3L166.8,59.6z"/>
<path class="st0" d="M159.2,73.4h10.9l-3.3-6.9h3.3l-3.3-6.9h3.3l-12.5-26.1V81l0,0c0.9,0,1.6-0.7,1.6-1.6V73.4z"/>
<path class="st0" d="M139.7,61.6h1.9l-7.3-15.3L127,61.6h1.9l-1.9,4h1.9l-1.9,4h6.4v3.5c0,0.5,0.4,0.9,0.9,0.9l0,0
	c0.5,0,0.9-0.4,0.9-0.9v-3.4h6.4l-1.9-4h1.9L139.7,61.6z"/>
<path class="st0" d="M135.2,69.7h6.4l-1.9-4h1.9l-1.9-4h1.9l-7.3-15.3v27.7l0,0c0.5,0,0.9-0.4,0.9-0.9V69.7z"/>
<path class="st0" d="M57.4,60.5h2.8L49.5,38.9L38.8,60.5h2.8l-2.8,5.7h2.8l-2.8,5.7h9.4v5c0,0.7,0.7,1.3,1.4,1.2l0,0
	c0.7,0,1.3-0.6,1.3-1.3v-5h9.4l-2.8-5.7h2.8L57.4,60.5z"/>
<path class="st0" d="M50.8,71.9h9.4l-2.8-5.7h2.8l-2.8-5.7h2.8L49.5,38.9v39.3l0,0c0.7,0,1.3-0.6,1.3-1.3L50.8,71.9z"/>
<path class="st2" d="M70.3,80.6"/>
<circle class="st3" cx="104.7" cy="78.7" r="76.5"/>
<path class="st2" d="M27.5,119.7l-0.9-1.9l-11.7,5.7l-0.9-1.8l11.7-5.7l-0.9-1.9l1.9-0.9l2.7,5.6L27.5,119.7z"/>
<path class="st2" d="M33.1,124.9L20,132.7l-1-1.8l6.1-3.6l-1.1-1.9l-6.1,3.7l-1-1.8l13.1-7.8l1,1.8l-5.1,3l1.1,1.8l5.1-3L33.1,124.9
	z"/>
<path class="st2" d="M26.6,136l-1.2-1.6l-3.1,1.8l-1.1-1.6l13.7-7l1.2,1.6l-11,10.8l-1.2-1.7L26.6,136z M28.2,134.4l4.1-3.7l0,0
	l-4.8,2.7L28.2,134.4z"/>
<path class="st2" d="M43.4,137.9l-11.4,10l-1.3-1.5l7-6.2l-7.9,5.2l-0.9-1l6.2-7.1l0,0l-7,6.2l-1.4-1.6l11.4-10l1.8,2.1l-6,7l0,0
	l7.7-5L43.4,137.9z"/>
<path class="st2" d="M44.2,141.8l-2.6,2.7l1.5,1.4l-1.5,1.6l-1.5-1.4l-3.4,3.6l2.2,2.1l-1.5,1.6l-3.7-3.6l10.5-11l3.6,3.4l-1.5,1.6
	L44.2,141.8z"/>
<path class="st2" d="M48.9,148.6l0.4-0.5c0.7-0.8,0.7-1.5,0.3-1.9c-0.5-0.3-1.1-0.2-1.4,0.2c0,0,0,0.1-0.1,0.1
	c-0.4,0.5-0.7,1.1-0.7,1.8l-0.4,3.7c0,1.4-0.5,2.8-1.4,3.8c-1.4,1.7-3.2,1.8-4.5,0.7s-1.5-2.8-0.1-4.5l1-1.2l1.6,1.3l-0.9,1.1
	c-0.6,0.7-0.6,1.3-0.2,1.6s1,0.2,1.6-0.5c0.5-0.6,0.7-1.3,0.8-2l0.2-2.9c0.2-2,0.2-2.6,1.5-4.3s3.1-1.8,4.5-0.7s1.4,2.9,0.1,4.5
	l-0.7,0.8L48.9,148.6z"/>
<path class="st2" d="M52.3,164.4l1.7-6.2c-0.2-0.1-0.5-0.3-0.5-0.4l-3.3,5.2l-1.7-1.1l8.1-12.8l2.9,1.8c1.7,1,1.4,3.2,0.1,5.2
	s-2.6,2.7-3.8,2.8l-1.7,6.6L52.3,164.4z M54.6,155.9l0.5,0.4c1.1,0.7,1.5,0.7,2.7-1.2c0.7-1,1-1.9,0.3-2.4l-1.1-0.7L54.6,155.9z"/>
<path class="st2" d="M57.5,167.3l-1.8-1L63,153l1.8,1L57.5,167.3z"/>
<path class="st2" d="M63.5,170.3l-2-0.9l4.1-14.9l2,0.9l-3.4,10.8l0,0l6.1-9.6l2,0.9L63.5,170.3z"/>
<path class="st2" d="M74.3,160.6l-1.3,3.5l1.9,0.7l-0.7,2l-1.9-0.7l-1.7,4.6l2.9,1.1l-0.7,2l-4.8-1.8l5.2-14.3l4.6,1.7l-0.7,2
	L74.3,160.6z"/>
<path class="st2" d="M79.3,175.8l-0.2-6.4l-0.6-0.2l-1.6,5.9l-1.9-0.5l4.1-14.6l3.3,0.9c1.9,0.5,2.3,2.6,1.6,5
	c-0.6,2.2-1.7,3.4-2.8,3.8l0.3,6.8L79.3,175.8z M79.1,167l0.6,0.2c1.3,0.4,1.7,0.2,2.3-1.9c0.3-1.2,0.4-2.1-0.4-2.4l-1.3-0.4
	L79.1,167z"/>
<path class="st2" d="M91.2,174.6l-2-0.3l-0.9,3.4l-1.9-0.3l4.6-14.7l2,0.3l0.2,15.3l-2-0.3L91.2,174.6z M91.2,172.4l0.2-5.5l0,0
	l-1.4,5.3L91.2,172.4z"/>
<path class="st2" d="M102.4,163.9l-1,15.1l-2-0.1l-1.4-8.8l0,0l-0.6,8.7l-2-0.1l1-15.1l2.1,0.1l1.3,8.5l0,0l0.6-8.4L102.4,163.9z"/>
<path class="st2" d="M107.7,168.2V167c0-0.5-0.4-1.2-0.9-1.2s-1,0.8-1,1.3l0.2,8.8c0,0.5,0.3,1.2,1,1.2s1.1-0.8,1.1-2v-2.3h-1.1
	v-2.2l3-0.1l0.1,4.7c0,2.1-0.8,3.9-2.9,4c-1.7,0-3.1-1.3-3.2-3c0-0.1,0-0.2,0-0.3l-0.2-8.8c0-1.5,0.7-3.4,3-3.5
	c1.7,0,3.1,1.5,3.1,3.2c0,0,0,0.1,0,0.1v1.2L107.7,168.2z"/>
<path class="st2" d="M116.8,176.2l0.2,2.2l-4.7,0.5l-1.5-15.1l2-0.2l1.3,13L116.8,176.2z"/>
<path class="st2" d="M118.9,164.9l0.6,3.7l2-0.4l0.4,2.1l-2,0.4l0.8,4.9l3.1-0.5l0.4,2.1l-5.1,0.9l-2.5-15l4.8-0.8l0.4,2.1
	L118.9,164.9z"/>
<path class="st2" d="M130.8,175.6l-3.4-5.4l-0.6,0.2l1.5,5.9l-2,0.5l-3.7-14.7l3.3-0.8c1.9-0.5,3.3,1.1,3.9,3.5
	c0.6,2.2,0.2,3.8-0.6,4.6l3.7,5.8L130.8,175.6z M126.2,168.1l0.6-0.2c1.3-0.3,1.6-0.6,1-2.8c-0.3-1.2-0.7-2-1.5-1.9l-1.3,0.3
	L126.2,168.1z"/>
<path class="st2" d="M134.6,163l-0.2-0.6c-0.4-1-0.9-1.4-1.4-1.3c-0.5,0.3-0.7,0.9-0.5,1.4c0,0,0,0,0,0c0.2,0.6,0.6,1.2,1.1,1.6
	l2.9,2.3c1.2,0.7,2.1,1.9,2.5,3.2c0.7,2.1-0.2,3.7-1.7,4.2s-3.2-0.2-3.9-2.2l-0.5-1.5l1.9-0.7l0.5,1.3c0.3,0.9,0.8,1.2,1.3,1
	s0.7-0.8,0.4-1.6c-0.2-0.7-0.7-1.3-1.3-1.7l-2.4-1.6c-1.6-1.2-2.2-1.6-2.8-3.5s0.1-3.6,1.7-4.2s3.2,0.3,3.9,2.2l0.4,1L134.6,163z"/>
<path class="st2" d="M147.6,165.4l-1.8,0.9l1.2,3.4l-1.7,0.8l-4.5-14.7l1.8-0.9l8.7,12.6l-1.9,0.9L147.6,165.4z M146.4,163.6
	l-2.9-4.6h-0.1l1.8,5.2L146.4,163.6z"/>
<path class="st2" d="M150.8,155.3l-0.3-0.6c-0.5-0.9-1.2-1.2-1.6-1c-0.5,0.3-0.6,0.9-0.3,1.4c0,0,0,0.1,0.1,0.1
	c0.3,0.6,0.8,1.1,1.4,1.3l3.3,1.6c1.3,0.5,2.4,1.4,3.1,2.6c1.1,1.9,0.6,3.6-0.9,4.5s-3.2,0.4-4.3-1.4l-0.8-1.4l1.8-1l0.7,1.2
	c0.5,0.8,1,1,1.5,0.7s0.5-0.9,0.1-1.7c-0.4-0.6-0.9-1.1-1.6-1.4l-2.6-1.1c-1.8-0.9-2.4-1.1-3.5-2.9s-0.7-3.6,0.8-4.4
	s3.2-0.3,4.3,1.4l0.5,0.9L150.8,155.3z"/>
<path class="st2" d="M156.7,151.4l-0.4-0.5c-0.6-0.9-1.3-1.1-1.7-0.8c-0.4,0.3-0.5,1-0.1,1.4c0,0,0.1,0.1,0.1,0.1
	c0.4,0.6,0.9,1,1.5,1.2l3.4,1.4c1.3,0.4,2.5,1.2,3.3,2.4c1.3,1.8,0.8,3.6-0.5,4.5s-3.1,0.7-4.4-1.1l-0.9-1.3l1.7-1.2l0.8,1.1
	c0.5,0.8,1.1,0.9,1.6,0.6s0.5-0.9-0.1-1.7c-0.4-0.6-1-1.1-1.7-1.3l-2.7-0.9c-1.9-0.8-2.5-0.9-3.7-2.6s-0.9-3.5,0.5-4.5
	s3.2-0.6,4.4,1.1l0.6,0.9L156.7,151.4z"/>
<path class="st2" d="M163.4,144.7l5.6,6.7c1,1.2,1.5,3.2-0.1,4.5c-1.7,1.4-3.5,0.5-4.5-0.7l-5.6-6.7c-1-1.2-1.6-3.1,0.2-4.6
	C160.6,142.7,162.4,143.5,163.4,144.7z M161.9,146c-0.3-0.4-1.1-0.8-1.5-0.4s-0.2,1.3,0,1.6l5.6,6.7c0.3,0.4,1.1,0.8,1.6,0.4
	s0.2-1.2-0.1-1.6L161.9,146z"/>
<path class="st2" d="M168.2,141.8l-0.8-0.9c-0.3-0.3-1.1-0.6-1.5-0.2c-0.4,0.5-0.3,1.2,0.1,1.6l6.1,6.2c0.4,0.5,1.1,0.5,1.6,0.2
	c0.4-0.4,0.1-1.2-0.2-1.5l-0.8-0.9l1.5-1.4l0.8,0.9c1.3,1.1,1.5,3,0.4,4.3c-1.1,1.3-3,1.5-4.3,0.4c-0.2-0.1-0.3-0.3-0.4-0.4
	l-6.1-6.3c-1.3-1.1-1.5-3-0.5-4.3s3-1.5,4.3-0.5c0.2,0.2,0.4,0.3,0.5,0.5l0.8,0.9L168.2,141.8z"/>
<path class="st2" d="M180,144.9l-1.4,1.5l-11.3-10.1l1.4-1.5L180,144.9z"/>
<path class="st2" d="M181.3,137.9l-1.2,1.6l2.5,2.5l-1.2,1.5l-10.5-11.2l1.3-1.6l13.4,7.6l-1.3,1.6L181.3,137.9z M179.3,136.8
	l-4.7-2.9l0,0l3.9,3.9L179.3,136.8z"/>
<path class="st2" d="M178.4,125.5l-1.2,1.7l10.8,7.4l-1.1,1.7l-10.8-7.4l-1.2,1.7l-1.8-1.2l3.5-5.1L178.4,125.5z"/>
<path class="st2" d="M191.2,129.4l-1.1,1.8l-13-7.8l1.1-1.7L191.2,129.4z"/>
<path class="st2" d="M184.5,116.6l7.8,4c1.4,0.7,2.6,2.4,1.7,4.2c-1,2-3,1.9-4.4,1.1l-7.8-4c-1.4-0.7-2.6-2.3-1.6-4.3
	C181.1,115.9,183.1,115.9,184.5,116.6z M183.6,118.4c-0.4-0.2-1.3-0.3-1.6,0.2s0.3,1.3,0.6,1.5l7.8,4c0.4,0.2,1.3,0.3,1.6-0.3
	s-0.3-1.2-0.7-1.4L183.6,118.4z"/>
<path class="st2" d="M184.5,108.4l14,5.8l-0.8,1.9l-8.8-1.5l0,0l8.1,3.3l-0.8,1.9l-14-5.8l0.8-2l8.5,1.5l0,0l-7.8-3.2L184.5,108.4z"
	/>
<path class="st2" d="M75.2,133.9h-1.5l-0.3,2.1h-1.5l1.8-8.8h1.6l1.8,8.8h-1.5L75.2,133.9z M74.9,132.6l-0.5-3.2l0,0l-0.5,3.2H74.9z
	"/>
<path class="st2" d="M83.5,127.1v8.8h-1.6l-1.6-5.1l0,0v5.1h-1.6v-8.8h1.7l1.5,4.9l0,0v-4.9L83.5,127.1z"/>
<path class="st2" d="M88.5,129.7V129c0-0.4-0.4-0.7-0.8-0.7c-0.4,0-0.6,0.3-0.7,0.7v5.1c0,0.4,0.4,0.7,0.8,0.7
	c0.6,0,0.9-0.4,0.9-1.1v-1.4h-0.9v-1.3h2.3v2.7c0.1,1.2-0.8,2.2-2,2.3c-0.1,0-0.2,0-0.3,0c-1.8,0-2.4-1.1-2.4-2V129
	c0-0.9,0.6-2,2.4-2c1.1-0.1,2.2,0.7,2.3,1.9c0,0,0,0.1,0,0.1v0.7L88.5,129.7z"/>
<path class="st2" d="M95.5,134.7v1.3h-3.6v-8.8h1.6v7.6L95.5,134.7z"/>
<path class="st2" d="M98.8,128.4v2.2h1.6v1.3h-1.6v2.9h2.4v1.3h-4v-8.8h3.8v1.3H98.8z"/>
<path class="st2" d="M106.5,136l-1.5-3.6h-0.5v3.6h-1.6v-8.8h2.6c1.5,0,2.2,1.1,2.2,2.5c0.1,1-0.4,2-1.3,2.5l1.7,3.8L106.5,136z
	 M104.5,131.1h0.5c1,0,1.3-0.1,1.3-1.4c0-0.7-0.2-1.3-0.8-1.3h-1L104.5,131.1z"/>
<path class="st2" d="M112.5,129.6v-0.4c0-0.6-0.3-1-0.7-1c-0.4,0-0.7,0.3-0.7,0.6c0,0,0,0,0,0c0,0.4,0.1,0.8,0.4,1.1l1.6,1.8
	c0.6,0.6,1,1.4,1,2.2c0,1.1-1,2-2.1,2c-0.1,0-0.1,0-0.2,0c-1.1,0.2-2.1-0.6-2.3-1.7c0-0.1,0-0.2,0-0.3v-0.9h1.6v0.8
	c0,0.5,0.3,0.8,0.7,0.8c0.4,0,0.7-0.3,0.7-0.7c0,0,0-0.1,0-0.1c0-0.5-0.2-0.9-0.5-1.2l-1.3-1.4c-0.8-1-1.2-1.3-1.2-2.5
	c0.2-1.3,1.4-2.1,2.6-2c1,0.1,1.8,0.9,2,2v0.6L112.5,129.6z"/>
<path class="st2" d="M115.9,134.4h1.6v1.6h-1.6L115.9,134.4z"/>
<path class="st2" d="M124,129v5.1c0,1.1-1,2-2.1,2c0,0-0.1,0-0.1,0c-1.7,0-2.3-1.1-2.3-2V129c0-0.9,0.6-2,2.3-2
	c1.1-0.1,2.2,0.7,2.3,1.8C124,128.9,124,128.9,124,129z M122.4,129c0-0.4-0.4-0.7-0.8-0.7c-0.3,0-0.6,0.3-0.7,0.7v5.1
	c0,0.4,0.3,0.8,0.8,0.8c0,0,0,0,0,0c0.4,0,0.7-0.4,0.7-0.8V129z"/>
<path class="st2" d="M129.4,136l-1.5-3.6h-0.5v3.6h-1.6v-8.8h2.6c1.5,0,2.2,1.1,2.2,2.5c0.1,1-0.4,2-1.3,2.5l1.7,3.8L129.4,136z
	 M127.4,131.1h0.5c1,0,1.3-0.1,1.3-1.4c0-0.7-0.2-1.3-0.8-1.3h-1L127.4,131.1z"/>
<path class="st2" d="M135.6,129.7V129c0-0.4-0.3-0.8-0.8-0.8c-0.4,0-0.8,0.3-0.8,0.8v5.1c0,0.4,0.4,0.7,0.8,0.7
	c0.6,0,0.9-0.4,0.9-1.1v-1.4h-0.9v-1.3h2.3v2.7c0.1,1.2-0.8,2.2-2,2.3c-0.1,0-0.2,0-0.3,0c-1.8,0-2.4-1.1-2.4-2V129
	c0-0.9,0.6-2,2.4-2c1.1-0.1,2.2,0.7,2.3,1.8c0,0.1,0,0.1,0,0.2v0.7L135.6,129.7z"/>
<path class="st2" d="M80.7,31.3v2.4h1.8v1.4h-1.8v3.2h2.7v1.4H79v-9.8h4.2v1.4H80.7z"/>
<path class="st2" d="M88.5,32.6v-0.4c0-0.7-0.4-1.1-0.8-1.1c-0.4,0-0.8,0.3-0.8,0.7c0,0,0,0,0,0c0,0.5,0.2,0.9,0.5,1.2l1.8,2
	c0.7,0.6,1.1,1.5,1.1,2.5c-0.1,1.3-1.1,2.3-2.4,2.2c-0.1,0-0.1,0-0.2,0c-1.2,0.2-2.4-0.7-2.5-2c0-0.1,0-0.2,0-0.2v-1h1.8v0.9
	c0,0.6,0.3,0.9,0.8,0.9c0.4,0,0.8-0.4,0.8-0.8c0,0,0-0.1,0-0.1c0-0.5-0.2-1-0.6-1.3l-1.4-1.5c-0.9-1.1-1.3-1.4-1.3-2.7
	c0.2-1.4,1.5-2.4,2.9-2.2c1.1,0.2,2,1,2.2,2.2v0.7H88.5z"/>
<path class="st2" d="M97.4,31.3h-1.8v8.4h-1.8v-8.4h-1.8v-1.4h5.3V31.3z"/>
<path class="st2" d="M98.5,37.9h1.8v1.8h-1.8V37.9z"/>
<path class="st2" d="M106.2,29.9h1.8v9.8h-1.8v-8.4h-0.8v-1L106.2,29.9z"/>
<path class="st2" d="M110,33.7c0-0.1,0-1.2,0-1.4c-0.1-1.4,1-2.5,2.3-2.6c0.2,0,0.3,0,0.5,0c1.3-0.1,2.4,0.8,2.6,2.1
	c0,0,0,0.1,0,0.1v4.9c0.1,1.5-1,2.8-2.5,2.9c0,0-0.1,0-0.1,0c-1.2,0.1-2.3-0.8-2.4-2.1c0,0,0-0.1,0-0.1v-0.8h1.7v0.8
	c0,0.4,0.3,0.8,0.7,0.8c0,0,0,0,0,0c0.7,0,0.9-0.7,0.9-1.5v-1.6c-0.3,0.4-0.7,0.6-1.2,0.6c-1.2,0.1-2.2-0.7-2.4-1.9
	C110,33.9,110,33.8,110,33.7z M111.8,33.7c0,0.5,0.4,0.8,0.8,0.8c0,0,0,0,0,0c0.6,0,0.9-0.3,0.9-0.5v-2c0-0.4-0.4-0.8-0.8-0.8
	c-0.7,0-1,0.4-1,1.2C111.8,32.4,111.8,33.6,111.8,33.7z"/>
<path class="st2" d="M123,36.9c0.1,1.6-1.1,2.9-2.7,3c-1.6,0.1-2.9-1.1-3-2.7c0-0.1,0-0.2,0-0.3c0-1.1,0.6-2.1,1.6-2.4
	c-0.8-0.4-1.3-1.3-1.3-2.2c-0.1-1.2,0.8-2.4,2.1-2.5c0.1,0,0.3,0,0.4,0c1.3-0.1,2.4,0.7,2.5,2c0,0.2,0,0.3,0,0.5
	c0,0.9-0.5,1.7-1.3,2.2C122.4,34.8,123,35.8,123,36.9z M121.2,36.9c0-0.9-0.2-1.6-1-1.8c-0.8,0.2-1.1,0.8-1.1,1.8
	c0,0.9,0.3,1.5,1.2,1.5C120.9,38.4,121.2,37.6,121.2,36.9z M119.3,32.3c-0.2,0.5,0.1,1,0.5,1.2c0.5,0.2,1-0.1,1.2-0.5
	c0.1-0.2,0.1-0.4,0-0.6c0-0.7-0.3-1.2-0.8-1.2S119.3,31.6,119.3,32.3z"/>
<path class="st2" d="M130.3,35.8c0,0.1,0,1.2,0,1.4c0.1,1.4-0.9,2.5-2.3,2.6c-0.2,0-0.3,0-0.5,0c-1.3,0.1-2.4-0.8-2.6-2.1
	c0,0,0-0.1,0-0.1v-4.9c-0.1-1.5,1-2.8,2.5-2.9c0,0,0.1,0,0.1,0c1.2-0.1,2.3,0.8,2.4,2.1c0,0,0,0.1,0,0.1v0.7h-1.7v-0.7
	c0-0.4-0.3-0.8-0.7-0.8c0,0,0,0-0.1,0c-0.7,0-0.9,0.8-0.9,1.5v1.5c0.3-0.4,0.7-0.6,1.2-0.6c1.2-0.2,2.2,0.7,2.4,1.8
	C130.3,35.6,130.3,35.7,130.3,35.8z M128.5,35.8c0-0.4-0.4-0.8-0.8-0.8c0,0,0,0,0,0c-0.5,0-0.9,0.2-0.9,0.5v2c0,0.4,0.4,0.8,0.8,0.8
	c0.7,0,1-0.4,1-1.2C128.5,37.1,128.5,36,128.5,35.8L128.5,35.8z"/>
<circle class="st4" cx="104.8" cy="14.1" r="3.9"/>
<ellipse transform="matrix(0.7714 -0.6363 0.6363 0.7714 15.9923 68.2626)" class="st5" cx="103" cy="11.9" rx="0.8" ry="0.5"/>
<circle class="st4" cx="82.6" cy="19.3" r="3.9"/>
<ellipse transform="matrix(0.7714 -0.6363 0.6363 0.7714 7.6243 55.3361)" class="st5" cx="80.8" cy="17.1" rx="0.8" ry="0.5"/>
<circle class="st4" cx="126.2" cy="19.3" r="3.9"/>
<ellipse transform="matrix(0.7714 -0.6363 0.6363 0.7714 17.5816 83.0628)" class="st5" cx="124.4" cy="17.1" rx="0.8" ry="0.5"/>
<ellipse class="st5" cx="82.6" cy="20.6" rx="2" ry="1"/>
<ellipse class="st5" cx="104.8" cy="15.4" rx="2" ry="1"/>
<ellipse class="st5" cx="126.2" cy="20.6" rx="2" ry="1"/>
<path class="st6" d="M116.9,70c0,0-2.8-1.5-4.2-1.6c0,0-11.2-10.6-13.7-12c0,0-6.7,11-9.7,11.9c0,0-0.8,1,2.7,1.3c0,0,3.3,0,3.6,0.4
	c0,0,1.2,0.4,1.1,1.1"/>
<path class="st6" d="M69.3,72.5c-4-2.1-8.3-3.3-12.8-3.5c0,0-2.3,0.5-4.2,4.3c0,0,0,0.7,1.2,1.3"/>
<path class="st6" d="M49,90.7c-1.5-0.2-13.2,4.8-13.2,4.8C12.2,110.2,3,108,3,108c0-5,8.9-19.2,8.9-19.2c4.7-5.8,1.9-9.6,1.9-9.6
	C3.4,57.7,4.7,57.5,4.7,57.5c5.8-0.1,27.9,10.1,27.9,10.1c3.4,1.8,6.9,3.3,10.5,4.7l5.1,2c1.5,0.8,13.2,0.5,13.2,0.5
	c23.6-6.8,94.1-6.3,94.1-6.3l7.8,0.6c0,0,30.4,3.7,35.1,11.9c0,0-7.2,3.8-11.5,7.8c0,0,6.1-0.7,7.5-1l5.3-0.4c0,0,0.4,0.4-7.7,6.3
	c-4,1.9-8.2,3.5-12.5,4.8l-7.3,1.6c-6,1.5-11.7,4.4-16.8,5.4c0,0-14.7,3-39,1.3s-16.6-2.7-35.7-7.3S61,92.6,49,90.7z"/>
<path class="st6" d="M116.3,100.4c0,0-3.6,15.2-10.3,17.4c-2.2-2.5-3.9-5.3-5.1-8.4c-0.8-2.1-1.4-4.2-1.7-6.4c0,0,0.3-2.4,2.3-2.6
	c0,0,3.2,1.1,4.7,0"/>
<path class="st6" d="M76.5,97c-2.6,3.9-6,7.3-9.8,10.1c0,0-2.8,3-4.1,2.7c-0.7-0.2-0.3-2.1-0.1-4.9c-1.1-3.3-3-6.2-5.4-8.7
	c0,0-1.8-1.5,0-2.3c0,0,0.4,0.1,5-1"/>
<path class="st7" d="M38.8,95"/>
<path class="st7" d="M38.8,69.6"/>
<polygon class="st8" points="8,64.6 29.4,72.8 7.4,66.5 "/>
<polygon class="st8" points="12.3,74.7 23.8,77 12.1,76.7 "/>
<polygon class="st8" points="13.4,85.2 23.8,84 13.9,87.2 "/>
<polygon class="st8" points="10.2,90.9 27.4,88.1 10.7,92.8 "/>
<polygon class="st8" points="6.3,97.2 28.4,90.8 6.9,99.1 "/>
<polygon class="st8" points="3.2,102.7 28.1,95 3.9,104.6 "/>
<path class="st8" d="M185.9,78.9c0-0.4-0.3-0.7-0.6-0.8c-0.1,0-0.5-0.2-0.7-0.2c-0.3-0.1-0.7-0.1-1,0c-0.4,0.1-0.8,0.2-1.1,0.4
	c-0.4,0.2-0.8,0.6-1,1c-0.2,0.5-0.1,1,0.3,1.4c0.9,0.4,1.4,1.1,2.4,0.8c0.3,0,0.7-0.1,0.9-0.4c0.2-0.3,0.4-0.6,0.5-0.9
	c0.1-0.2,0.2-0.4,0.2-0.6"/>
<path class="st9" d="M43.2,91.8c0,0,4.6-6.3,44.9,9.8c0,0-0.8-0.1,11.1,3.3"/>
<path class="st10" d="M114.3,106.6c5.6,0.2,16.6,0.6,24.3,0.5c0,0,1.6,0,4.2-0.1"/>
<path class="st8" d="M158.3,96.2c-1.4-0.1-2.8,0-4.2,0.3c-0.4,0.1-0.7,0.2-1,0.2s-0.7,0.2-1,0.3c-0.3,0.1-0.7,0.2-1,0.4
	c-0.3,0.1-0.6,0.3-0.9,0.4c-0.3,0.2-0.6,0.3-0.9,0.5l-0.9,0.6c-0.3,0.2-0.5,0.4-0.8,0.7c-0.3,0.2-0.5,0.5-0.7,0.7
	c-0.2,0.3-0.5,0.5-0.7,0.8l-0.6,0.9c-0.4,0.6-0.7,1.2-1,1.8v-0.1c-0.4,1.7-1.1,3.3-1.9,4.8c-0.4,0.8-1,1.5-1.6,2.1
	c-0.3,0.3-0.6,0.6-1,0.9c-0.2,0.1-0.4,0.3-0.6,0.4l-0.6,0.4l-0.6-1.5c2.8-0.9,5.6-1.9,8.4-2.9c1.4-0.5,2.8-1,4.1-1.6
	c0.7-0.3,1.4-0.6,2-0.8s1.3-0.6,1.9-1l-0.1,0.1c1.1-1.1,2.2-2.2,3.3-3.2c0.6-0.5,1.1-1,1.7-1.5c0.6-0.5,1.2-1,1.9-1.4
	c0,0,0.1,0,0.1,0c0,0,0,0.1,0,0.1c-1.1,1.1-2,2.3-2.9,3.5l-2.8,3.5c0,0-0.1,0.1-0.1,0.1l0,0c-0.3,0.2-0.7,0.5-1,0.7l-1,0.6
	c-0.7,0.4-1.4,0.7-2.1,1s-1.4,0.6-2.1,0.9s-1.4,0.5-2.1,0.8c-1.4,0.5-2.9,0.9-4.3,1.3s-2.9,0.8-4.4,1.2c-0.4,0.1-0.9-0.1-1-0.6
	c-0.1-0.4,0.1-0.8,0.4-0.9l0,0l0.5-0.2c0.2-0.1,0.3-0.2,0.5-0.3c0.3-0.2,0.6-0.4,0.9-0.7c0.5-0.6,1-1.2,1.5-1.8
	c0.4-0.7,0.8-1.4,1.1-2.1c0.3-0.7,0.6-1.5,0.8-2.2v-0.1l0,0c0.3-0.7,0.7-1.3,1.1-1.9l0.7-0.9c0.2-0.3,0.5-0.5,0.8-0.8
	c0.3-0.3,0.5-0.5,0.8-0.8c0.3-0.2,0.6-0.5,0.9-0.7l0.9-0.6c0.3-0.2,0.7-0.3,1-0.5c0.3-0.2,0.7-0.3,1-0.4c0.3-0.1,0.7-0.2,1-0.3
	c0.4-0.1,0.7-0.2,1.1-0.3s0.7-0.2,1.1-0.2c1.4-0.2,2.9-0.2,4.3-0.1c0,0,0.1,0,0.1,0.1c0,0,0,0,0,0C158.4,96.1,158.3,96.2,158.3,96.2
	z"/>
<path class="st8" d="M116.9,70c-0.7-0.3-1.4-0.5-2.2-0.7c-0.3-0.1-0.7-0.2-1.1-0.3c-0.3-0.1-0.7-0.1-1-0.1h-0.1l-0.2-0.1
	c-2.4-1.9-4.7-3.9-7-5.9c-1.2-1-2.3-2-3.5-2.9c-0.6-0.5-1.2-1-1.7-1.4c-0.3-0.2-0.6-0.5-0.9-0.7s-0.6-0.4-0.8-0.6l1.3-0.3
	c-0.7,1.1-1.4,2.2-2.1,3.3s-1.5,2.2-2.3,3.2s-1.6,2-2.5,3c-0.5,0.5-0.9,1-1.5,1.4c-0.3,0.2-0.6,0.4-0.8,0.6
	c-0.3,0.2-0.7,0.4-1.1,0.5l0.3-0.2c0,0,0.1-0.1,0.1-0.2c0,0,0-0.1,0-0.1l0,0l0.1,0.1c0.1,0.1,0.2,0.1,0.2,0.1
	c0.1,0.1,0.2,0.1,0.3,0.1c0.5,0.1,1,0.3,1.6,0.3l0,0c0.6,0,1.2,0.1,1.9,0.2c0.3,0,0.6,0.1,0.9,0.2c0.2,0,0.3,0.1,0.5,0.1l0.2,0.1
	c0.1,0,0.2,0.1,0.3,0.2l-0.1-0.1c0.3,0.1,0.5,0.3,0.7,0.5c0.2,0.2,0.3,0.5,0.3,0.8c0-0.3-0.2-0.5-0.4-0.6c-0.2-0.1-0.5-0.2-0.7-0.3
	l-0.1-0.1c0,0-0.1,0-0.1,0h-0.2h-0.4h-0.9c-0.6,0-1.2,0-1.8,0.1l0,0c-0.6,0-1.2-0.1-1.8-0.2c-0.2,0-0.3-0.1-0.5-0.1
	c-0.2-0.1-0.3-0.1-0.5-0.2c-0.2-0.1-0.4-0.3-0.5-0.6c-0.1-0.2-0.1-0.4-0.1-0.6c0-0.2,0.1-0.4,0.2-0.5l0.1-0.1l0.2-0.1
	c0.5-0.3,0.9-0.6,1.3-1c0.4-0.5,0.8-1,1.1-1.5c0.8-1,1.6-2,2.3-3s1.5-2.1,2.2-3.2S97.4,57,98,56l0.5-0.8l0.8,0.5
	c0.3,0.2,0.7,0.5,1,0.7c0.3,0.2,0.6,0.5,0.9,0.7c0.6,0.5,1.2,1,1.8,1.5c1.2,1,2.3,2.1,3.4,3.1c2.2,2.1,4.3,4.3,6.4,6.5l-0.3-0.1
	c0.4,0.1,0.8,0.2,1.2,0.3c0.4,0.1,0.7,0.3,1.1,0.5C115.6,69.2,116.2,69.6,116.9,70z"/>
<path class="st8" d="M111.5,70L99.6,59.4l12.5,9.9c0.2,0.2,0.3,0.5,0.1,0.7C112,70.2,111.7,70.3,111.5,70L111.5,70z"/>
<path class="st8" d="M106.6,70l-7.9-7.7l8.5,6.9c0.2,0.2,0.2,0.5,0.1,0.7C107.2,70.2,106.9,70.2,106.6,70L106.6,70z"/>
<path class="st8" d="M102.4,69.6l-4.8-4.7l5.5,3.9c0.2,0.2,0.3,0.5,0.1,0.7c0,0,0,0,0,0c-0.2,0.2-0.5,0.3-0.7,0.1L102.4,69.6z"/>
<path class="st8" d="M98.7,70.2l-3.9-3.7l4.5,2.9c0.2,0.1,0.3,0.4,0.2,0.7c0,0,0,0,0,0C99.3,70.3,99,70.4,98.7,70.2L98.7,70.2z"/>
<path class="st8" d="M69.3,72.5c-1.1-0.3-2.2-0.6-3.2-0.9c-0.5-0.1-1.1-0.2-1.6-0.4c-0.5-0.1-1.1-0.2-1.6-0.3s-1.1-0.2-1.6-0.3
	s-1.1-0.2-1.6-0.2s-1.1-0.1-1.6-0.2L56.4,70h0.3L56.5,70l-0.3,0.1c-0.2,0.1-0.4,0.2-0.6,0.3c-0.4,0.3-0.7,0.5-1.1,0.8
	c-0.4,0.3-0.7,0.7-1,1.1c-0.3,0.4-0.6,0.8-0.9,1.2v-0.2l0,0c0,0,0,0,0,0.1c0,0.1,0,0.1,0,0.2c0,0.1,0.1,0.2,0.2,0.4
	c0.1,0.3,0.3,0.5,0.5,0.7c-0.3-0.1-0.6-0.2-0.9-0.4c-0.2-0.1-0.3-0.2-0.4-0.4c-0.1-0.1-0.1-0.2-0.2-0.2l-0.1-0.2c0-0.1,0-0.1,0-0.2
	l0,0l0-0.2c0.2-0.5,0.5-1,0.7-1.5c0.3-0.5,0.6-1,0.9-1.4c0.3-0.5,0.8-0.9,1.2-1.2c0.2-0.2,0.5-0.4,0.7-0.5c0.1-0.1,0.3-0.2,0.4-0.2
	c0.2-0.1,0.3-0.2,0.5-0.2h0.1h0.1c1.2,0,2.3,0.1,3.4,0.3c1.1,0.2,2.3,0.5,3.3,0.8c1.1,0.4,2.2,0.8,3.2,1.3
	C67.5,71.1,68.5,71.7,69.3,72.5z"/>
<path class="st8" d="M152.8,75.3l-0.1-0.2c0-0.3-0.2-0.5-0.4-0.6l-0.5-0.1c-0.2-0.1-0.5-0.1-0.7,0c-0.3,0.1-0.5,0.2-0.8,0.3
	c-0.4,0.2-0.7,0.6-0.8,1c-0.2,0.2-0.2,0.6,0.1,0.8c0.6,0.4,1.3,0.6,2,0.5c0.2,0,0.5-0.1,0.6-0.3c0.2-0.2,0.3-0.4,0.3-0.7
	c0.1-0.1,0.1-0.3,0.1-0.4C152.7,75.7,152.8,75.4,152.8,75.3z"/>
<path class="st8" d="M138.4,75.4c0,0,0-0.1-0.1-0.1c0-0.2-0.1-0.3-0.3-0.3l-0.3-0.1c-0.1,0-0.3,0-0.4,0c-0.2,0-0.3,0.1-0.5,0.2
	c-0.2,0.1-0.4,0.4-0.5,0.6c-0.1,0.2-0.1,0.4,0,0.5c0.3,0.2,0.8,0.4,1.2,0.3c0.1,0,0.3-0.1,0.4-0.2c0.1-0.1,0.2-0.2,0.2-0.4
	c0-0.1,0.1-0.2,0.1-0.2C138.4,75.7,138.4,75.5,138.4,75.4z"/>
<path class="st8" d="M64.2,72.1c0,0,0-0.1-0.1-0.1c0-0.2-0.1-0.3-0.3-0.3l-0.3-0.1c-0.1,0-0.3,0-0.4,0c-0.2,0-0.3,0.1-0.5,0.2
	c-0.2,0.1-0.4,0.3-0.5,0.6c-0.1,0.2-0.1,0.4,0,0.5c0.3,0.2,0.8,0.4,1.2,0.3c0.1,0,0.3,0,0.4-0.2c0.1-0.1,0.2-0.2,0.2-0.4
	c0-0.1,0.1-0.2,0.1-0.2C64.1,72.3,64.2,72.2,64.2,72.1z"/>
<path class="st8" d="M56.3,73.1C56.3,73.1,56.3,73.1,56.3,73.1c0-0.2-0.1-0.3-0.2-0.3c0,0-0.2,0-0.2,0c-0.1,0-0.2,0-0.3,0
	c-0.1,0-0.2,0.1-0.3,0.1c-0.1,0.1-0.2,0.2-0.3,0.4c-0.1,0.1-0.1,0.2,0,0.3c0.2,0.2,0.5,0.2,0.8,0.2c0.1,0,0.2,0,0.2-0.1
	c0.1-0.1,0.1-0.2,0.1-0.3c0-0.1,0-0.1,0.1-0.2C56.3,73.3,56.3,73.2,56.3,73.1z"/>
<path class="st8" d="M59.3,71.1L59.3,71.1c0-0.1-0.1-0.2-0.1-0.2H59c-0.1,0-0.1,0-0.2,0c-0.1,0-0.2,0-0.2,0.1
	c-0.1,0.1-0.2,0.2-0.2,0.3c0,0.1,0,0.2,0,0.2c0.2,0.1,0.4,0.2,0.6,0.2c0.1,0,0.1,0,0.2-0.1c0-0.1,0.1-0.1,0.1-0.2c0,0,0-0.1,0-0.1
	C59.2,71.3,59.3,71.2,59.3,71.1z"/>
<path class="st11" d="M155.3,105.4c5.1-1,10.8-3.9,16.8-5.4l7.3-1.6c4.3-1.2,8.5-2.8,12.5-4.8c8.1-5.8,7.7-6.3,7.7-6.3l-5.3,0.4
	c-1.4,0.4-7.5,1-7.5,1c4.2-4,11.5-7.8,11.5-7.8c-4.6-8.2-35.1-11.9-35.1-11.9l-7.8-0.6c0,0-70.5-0.5-94.1,6.3c0,0-11.8,0.3-13.2-0.5
	l-5.1-2c-3.6-1.4-7.1-2.9-10.5-4.7c0,0-22.2-10.3-27.9-10.1c0,0-1.3,0.1,9.2,21.7c0,0,2.8,3.8-1.9,9.6c0,0-8.9,14.2-8.9,19.2
	c0,0,9.2,2.2,32.8-12.6c0,0,11.7-5,13.2-4.7"/>
<path class="st12" d="M192.2,86.6"/>
<path class="st8" d="M143.1,80.9l-0.1-0.1c0-0.2-0.1-0.3-0.3-0.3l-0.3-0.1c-0.1,0-0.3,0-0.4,0c-0.4,0.1-0.8,0.4-1,0.8
	c-0.1,0.2-0.1,0.4,0,0.5c0.3,0.2,0.8,0.4,1.2,0.3c0.1,0,0.3,0,0.4-0.2c0.1-0.1,0.2-0.3,0.2-0.4c0-0.1,0.1-0.2,0.1-0.2
	C143,81.2,143.1,81,143.1,80.9z"/>
<path class="st8" d="M109.1,76.8l-0.1-0.1c0-0.2-0.1-0.3-0.3-0.3l-0.2-0.1c-0.1,0-0.3,0-0.4,0c-0.2,0-0.3,0.1-0.5,0.2
	c-0.2,0.1-0.4,0.3-0.5,0.6c-0.1,0.2-0.1,0.4,0,0.5c0.3,0.2,0.8,0.4,1.2,0.3c0.1,0,0.3-0.1,0.4-0.2c0.1-0.1,0.2-0.2,0.2-0.4
	c0-0.1,0.1-0.2,0.1-0.2C109,77,109.1,76.8,109.1,76.8z"/>
<path class="st8" d="M74.2,78.8c0-0.1-0.1-0.1-0.1-0.2c0-0.3-0.2-0.5-0.4-0.6l-0.5-0.1c-0.2-0.1-0.5-0.1-0.7,0
	c-0.3,0.1-0.5,0.2-0.8,0.3c-0.4,0.2-0.7,0.6-0.8,1c-0.2,0.2-0.2,0.6,0.1,0.8c0.6,0.4,1.3,0.6,2,0.5c0.2,0,0.5-0.1,0.6-0.3
	c0.2-0.2,0.3-0.4,0.3-0.7c0.1-0.1,0.1-0.3,0.1-0.4C74.1,79.2,74.3,78.8,74.2,78.8z"/>
<path class="st8" d="M77.7,87.7c0-0.1-0.1-0.1-0.1-0.2c0-0.3-0.2-0.5-0.4-0.6c-0.1,0-0.4-0.1-0.5-0.1c-0.2-0.1-0.5-0.1-0.7,0
	c-0.3,0.1-0.5,0.2-0.8,0.3c-0.4,0.3-0.7,0.6-0.8,1c-0.2,0.2-0.2,0.6,0.1,0.8c0.6,0.4,1.3,0.6,2,0.5c0.2,0,0.5-0.1,0.6-0.3
	c0.2-0.2,0.3-0.4,0.3-0.7c0.1-0.1,0.1-0.3,0.2-0.4C77.6,88.1,77.8,87.8,77.7,87.7z"/>
<path class="st8" d="M85,80.9c0,0-0.1-0.1-0.1-0.1c0-0.2-0.1-0.3-0.3-0.3l-0.3-0.1c-0.1,0-0.3,0-0.4,0c-0.2,0-0.3,0.1-0.5,0.2
	c-0.2,0.1-0.4,0.4-0.5,0.6c-0.1,0.2-0.1,0.4,0,0.5c0.3,0.2,0.8,0.4,1.2,0.3c0.1,0,0.3,0,0.4-0.2c0.1-0.1,0.2-0.3,0.2-0.4
	c0-0.1,0.1-0.2,0.1-0.2C84.9,81.2,85,81,85,80.9z"/>
<path class="st8" d="M98.7,74.7L98.7,74.7c-0.1-0.2-0.1-0.3-0.2-0.3l-0.2-0.1c-0.1,0-0.2,0-0.3,0c-0.1,0-0.2,0.1-0.3,0.1
	c-0.2,0.1-0.3,0.3-0.4,0.4c-0.1,0.1-0.1,0.3,0,0.3c0.2,0.2,0.5,0.3,0.8,0.2c0.1,0,0.2,0,0.3-0.1c0.1-0.1,0.1-0.2,0.2-0.3
	c0-0.1,0-0.1,0.1-0.2C98.5,74.9,98.7,74.7,98.7,74.7z"/>
<path class="st8" d="M120.2,80.2L120.2,80.2c0-0.2-0.1-0.3-0.2-0.3l-0.2-0.1c-0.1,0-0.2,0-0.3,0c-0.1,0-0.2,0.1-0.3,0.1
	c-0.2,0.1-0.3,0.3-0.4,0.4c-0.1,0.1-0.1,0.3,0,0.3c0.3,0.1,0.6,0.3,0.9,0.2c0.1,0,0.2,0,0.3-0.1c0.1-0.1,0.1-0.2,0.2-0.3
	c0-0.1,0-0.1,0.1-0.2C120.1,80.4,120.2,80.2,120.2,80.2z"/>
<path class="st8" d="M150.6,81.8L150.6,81.8c-0.1-0.2-0.1-0.3-0.2-0.3l-0.2-0.1c-0.1,0-0.2,0-0.3,0c-0.1,0-0.2,0.1-0.3,0.1
	c-0.2,0.1-0.3,0.3-0.4,0.4c-0.1,0.1-0.1,0.3,0,0.3c0.2,0.2,0.5,0.3,0.9,0.2c0.1,0,0.2,0,0.3-0.1c0.1-0.1,0.2-0.3,0.2-0.5
	C150.5,82,150.6,81.8,150.6,81.8z"/>
<path class="st8" d="M190.9,85.9c0,0-4.2,4.2-5.6,3.5c0,0,7.4,4,15.4-2.8L190.9,85.9z"/>
<path class="st8" d="M190.5,82.1c0,0-1.1,0.6-2.8,1.6c-0.8,0.5-1.8,1.1-2.8,1.7c-1,0.7-2,1.4-2.9,2.3c-0.4,0.4-0.7,0.8-0.9,1.3
	c0,0.1,0,0.1,0,0.2c0,0.1,0.1,0.2,0.1,0.2c0.1,0.1,0.3,0.2,0.5,0.3c0.5,0.1,1,0,1.5-0.2c0.2-0.1,0.5-0.1,0.7-0.2
	c0.2-0.1,0.5-0.2,0.7-0.3c0.9-0.3,1.6-0.7,2.1-1l0.8-0.4l0.1,0.1l-0.7,0.6c-0.3,0.2-0.5,0.4-0.8,0.6c-0.4,0.3-0.7,0.5-1.1,0.8
	c-0.5,0.3-1,0.5-1.5,0.7c-0.6,0.3-1.3,0.3-2,0.2c-0.9-0.1-1.5-1-1.4-1.9c0,0,0-0.1,0-0.1c0.3-0.7,0.7-1.3,1.3-1.7
	c1-0.8,2.1-1.5,3.2-2.2c1-0.6,2.1-1.1,2.9-1.5c1.7-0.8,2.9-1.3,2.9-1.3L190.5,82.1z"/>
<path class="st8" d="M166.4,74.5c-1.5,1.8-2.7,3.9-3.7,6c-1,2.1-1.6,4.3-1.8,6.6c-0.1,1.1,0.1,2.2,0.3,3.3c0.3,1,0.8,2,1.4,2.9
	c0.6,0.9,1.4,1.7,2.2,2.4c0.8,0.8,1.7,1.4,2.7,2.1l0.2,0.2l0.1,0.1c0.1,0.1,0.1,0.3,0.2,0.4c0.1,0.1,0.2,0.3,0.3,0.4
	c0.2,0.3,0.5,0.5,0.7,0.7c0.1,0.1,0.3,0.2,0.4,0.3c0.2,0.1,0.3,0.2,0.5,0.2c0.2,0.1,0.3,0.1,0.5,0.2c0.2,0,0.4,0.1,0.6,0.1v0.2
	c-0.2,0.1-0.4,0.1-0.6,0.2c-0.2,0-0.4,0.1-0.6,0.1c-0.2,0-0.4,0-0.7-0.1c-0.2,0-0.4-0.1-0.6-0.2c-0.4-0.2-0.8-0.4-1.2-0.7
	c-0.2-0.1-0.3-0.3-0.5-0.4c-0.2-0.2-0.3-0.4-0.5-0.6l0.3,0.3c-0.6-0.3-1.1-0.5-1.6-0.9c-0.5-0.3-1.1-0.7-1.6-1.1
	c-1-0.8-1.9-1.8-2.6-2.9c-1.3-2.2-1.8-4.8-1.5-7.4c0.3-2.4,1.2-4.8,2.4-6.9c1.2-2.1,2.7-4,4.4-5.7L166.4,74.5z"/>
<path class="st8" d="M168.9,79.7c-0.2,0.6-0.4,1.2-0.5,1.8c-0.1,0.6-0.2,1.2-0.3,1.9c-0.1,0.6-0.1,1.3-0.1,1.9c0,0.3,0,0.6,0,0.9
	l0.1,0.9l0.2,0.9c0.1,0.3,0.1,0.6,0.2,0.9c0.1,0.3,0.2,0.6,0.3,0.8c0.1,0.3,0.2,0.6,0.4,0.8l0.5,0.8c0.2,0.2,0.4,0.5,0.6,0.7
	l0.3,0.3l0.3,0.3l0.7,0.6l-0.2-0.1c0.9,0.3,1.8,0.6,2.7,0.8c0.4,0.1,0.9,0.2,1.3,0.2c0.2,0,0.4,0,0.6,0c0.1,0,0.1,0,0.2,0
	c0.1,0,0,0,0.1,0l-0.4,0.7v-1v-1c0-0.6-0.1-1.3-0.2-1.9c0-0.3-0.1-0.6-0.2-0.9c-0.1-0.3-0.2-0.6-0.3-0.8c0-0.1-0.1-0.3-0.2-0.4
	c-0.1-0.1-0.1-0.2-0.2-0.3c-0.1-0.1-0.2-0.2-0.2-0.3l-0.3-0.2l-0.4-0.3v-0.2c-0.1-0.5-0.1-0.9-0.1-1.4c0-0.5,0-0.9,0-1.4
	c0-0.9,0.3-1.8,0.7-2.7l0.2,0.1c-0.1,0.9,0,1.7,0.1,2.6c0.1,0.4,0.2,0.8,0.2,1.3s0.2,0.8,0.3,1.2l-0.4-0.5l0.6,0.3
	c0.2,0.1,0.3,0.3,0.5,0.4c0.2,0.1,0.3,0.3,0.4,0.5c0.1,0.2,0.2,0.3,0.3,0.5c0.2,0.3,0.4,0.7,0.5,1.1c0.1,0.4,0.2,0.7,0.3,1.1
	c0.2,0.7,0.3,1.5,0.3,2.2c0,0.4,0,0.7,0,1.1c0,0.4,0,0.7-0.1,1.1l-0.1,0.6l-0.4,0.2c-0.2,0.1-0.4,0.2-0.6,0.2
	c-0.2,0-0.3,0.1-0.5,0.1c-0.3,0-0.6,0-0.9-0.1c-0.5-0.1-1-0.2-1.5-0.3c-1-0.3-1.9-0.6-2.8-1l-0.1-0.1h-0.1l-0.7-0.7l-0.3-0.4
	l-0.3-0.4c-0.2-0.3-0.4-0.6-0.6-0.8l-0.5-0.9c-0.2-0.3-0.3-0.7-0.4-1c-0.1-0.3-0.2-0.7-0.3-1c-0.1-0.3-0.2-0.7-0.2-1l-0.1-1v-1
	c0-0.3,0-0.7,0.1-1c0.1-0.7,0.1-1.3,0.3-1.9c0.3-1.3,0.7-2.5,1.2-3.7L168.9,79.7z"/>
<path class="st13" d="M13.6,86.2"/>
<path class="st13" d="M9.6,94"/>
<path class="st8" d="M186.1,82.2c-0.3,0.3-0.7,0.4-1.1,0.6c-0.4,0.1-0.8,0.2-1.2,0.3c-0.5,0-1-0.1-1.5-0.2c-0.2,0-0.5-0.1-0.7-0.2
	c-0.5-0.1-0.9-0.4-1.2-0.7c-0.1-0.2-0.3-0.3-0.4-0.4l-0.3-0.4c-0.1-0.1-0.1-0.2-0.1-0.4l-0.1-0.3h0.1l0.2,0.3c0,0.1,0.1,0.2,0.2,0.3
	l0.3,0.3l0.4,0.3c0.2,0.1,0.4,0.2,0.5,0.2c0.2,0.1,0.4,0.1,0.6,0.2c0.2,0,0.4,0.1,0.7,0.1c0.4,0,0.9,0,1.3-0.1c0.4,0,0.8,0,1.2,0
	C185.3,82,185.7,82.1,186.1,82.2L186.1,82.2z"/>
<path class="st8" d="M116.3,100.4c-0.2,1.7-0.6,3.4-1.1,5.1c-0.2,0.8-0.5,1.7-0.8,2.5c-0.3,0.8-0.6,1.7-1,2.5
	c-0.7,1.7-1.6,3.2-2.7,4.7c-0.3,0.4-0.6,0.7-0.9,1.1c-0.3,0.4-0.6,0.7-1,1c-0.4,0.3-0.8,0.6-1.2,0.9l-0.7,0.3l-0.7,0.3l-0.6,0.2
	l-0.4-0.5c-0.3-0.3-0.5-0.6-0.8-0.8s-0.5-0.6-0.7-0.8c-0.4-0.6-0.8-1.2-1.2-1.8c-0.8-1.2-1.4-2.5-2-3.8c-0.3-0.6-0.5-1.3-0.8-2
	s-0.4-1.4-0.6-2c-0.3-1.4-0.6-2.8-0.7-4.2V103c0-0.2,0.1-0.4,0.1-0.5c0.1-0.2,0.1-0.3,0.2-0.5c0.1-0.3,0.3-0.6,0.6-0.9
	c0.2-0.3,0.5-0.5,0.9-0.7c0.3-0.2,0.7-0.3,1.1-0.3h0.1h0.1c0.7,0.3,1.5,0.5,2.2,0.6c0.4,0.1,0.8,0.1,1.2,0.1c0.4,0,0.8-0.1,1.1-0.3
	c-0.7,0.5-1.5,0.7-2.3,0.7c-0.8,0-1.7-0.1-2.5-0.3h0.2c-0.5,0.1-0.9,0.4-1.2,0.8c-0.1,0.2-0.2,0.5-0.3,0.7c0,0.1-0.1,0.3-0.1,0.4
	c0,0.1,0,0.2-0.1,0.4v-0.2c0.3,1.3,0.6,2.6,1,3.9c0.2,0.6,0.4,1.3,0.7,1.9s0.5,1.2,0.8,1.8c0.6,1.2,1.2,2.4,1.9,3.5
	c0.4,0.6,0.8,1.1,1.2,1.6l0.6,0.8c0.2,0.2,0.4,0.5,0.6,0.7l-1-0.2l0.5-0.2l0.5-0.2c0.3-0.2,0.6-0.4,0.9-0.6c0.3-0.3,0.6-0.5,0.9-0.8
	c0.3-0.3,0.6-0.6,0.8-0.9c0.5-0.6,1-1.3,1.5-2c0.5-0.7,0.9-1.4,1.3-2.2C113.7,106.8,115.1,103.7,116.3,100.4z"/>
<path class="st14" d="M103.8,105.6"/>
<path class="st8" d="M103.8,115.1c0,0,0.5-0.4,1.2-1.1s1.7-1.6,2.6-2.6c0.8-0.9,1.6-1.9,2.2-2.9c0.1-0.2,0.2-0.4,0.3-0.6
	c0.1-0.2,0.2-0.3,0.2-0.5l0.2-0.4l-0.1,0.4c0,0.2-0.1,0.3-0.2,0.5c-0.1,0.2-0.1,0.4-0.3,0.6c-0.6,1.1-1.2,2.2-2,3.1
	c-1.1,1.4-2.3,2.8-3.5,4.1c-0.2,0.2-0.5,0.2-0.7,0c0,0,0,0,0,0c-0.2-0.2-0.2-0.5,0-0.7C103.7,115.2,103.7,115.2,103.8,115.1
	L103.8,115.1z"/>
<path class="st8" d="M101,108.9l0.3,0.1c0.3,0,0.6,0,0.8,0c0.4,0,0.8-0.1,1.2-0.2c0.5-0.1,0.9-0.3,1.3-0.6c0.2-0.1,0.4-0.2,0.6-0.4
	s0.4-0.3,0.6-0.4c0.4-0.3,0.7-0.6,1-0.9c0.3-0.3,0.5-0.5,0.6-0.7l0.2-0.3l-0.2,0.3c-0.2,0.3-0.4,0.5-0.6,0.8c-0.3,0.4-0.6,0.7-0.9,1
	c-0.2,0.2-0.4,0.4-0.6,0.5c-0.2,0.2-0.4,0.3-0.6,0.5c-0.4,0.3-0.9,0.6-1.4,0.8c-0.4,0.2-0.9,0.3-1.3,0.4c-0.3,0.1-0.7,0.1-1,0.1
	c-0.1,0-0.3,0-0.4,0L101,108.9z"/>
<path class="st8" d="M76.5,97c-0.5,1.1-1.1,2.1-1.8,3.1c-0.7,1-1.4,1.9-2.2,2.8c-0.4,0.5-0.8,0.9-1.2,1.3s-0.8,0.9-1.3,1.3
	s-0.9,0.8-1.4,1.2c-0.5,0.4-1,0.7-1.5,1.1l0.2-0.1c-0.6,0.7-1.2,1.3-1.9,1.8c-0.4,0.3-0.8,0.6-1.2,0.8c-0.2,0.1-0.5,0.2-0.7,0.3
	c-0.4,0.1-0.8,0.2-1.2,0.1c-0.2-0.1-0.3-0.1-0.5-0.2c-0.1-0.1-0.2-0.2-0.3-0.4c-0.1-0.2-0.2-0.4-0.2-0.6c0-0.3-0.1-0.6-0.1-0.8
	c0-0.5,0-0.9,0.1-1.4c0.1-0.8,0.2-1.7,0.2-2.5v0.4c-0.2-0.5-0.3-1-0.6-1.5s-0.4-1-0.7-1.5c-0.5-1-1-1.9-1.6-2.8
	c-0.3-0.4-0.6-0.9-0.9-1.3s-0.7-0.8-1-1.2l-0.3-0.3c-0.1-0.1-0.2-0.2-0.3-0.4c-0.2-0.3-0.4-0.6-0.5-1c-0.1-0.4,0-0.9,0.2-1.3
	c0.2-0.3,0.5-0.5,0.9-0.6h0.4c-0.2,0-0.1,0-0.1,0h0.5h0.6l1.3-0.1l2.6-0.3c-0.8,0.3-1.6,0.6-2.4,0.8c-0.4,0.1-0.8,0.2-1.2,0.4
	l-0.6,0.2l-0.3,0h-0.2h-0.2c0,0,0,0-0.2,0h0.4c-0.2,0.1-0.3,0.2-0.4,0.4c0,0.1,0,0.2,0,0.3c0.1,0.2,0.2,0.3,0.3,0.4l0.2,0.2l0.3,0.3
	c0.4,0.4,0.9,0.8,1.3,1.2c0.4,0.4,0.8,0.9,1.1,1.3c0.7,0.9,1.3,1.9,1.9,2.9c0.3,0.5,0.5,1,0.7,1.6l0.3,0.8c0.1,0.3,0.2,0.5,0.3,0.8
	v0.2v0.2c-0.1,0.9-0.1,1.7-0.2,2.5c0,0.4-0.1,0.8-0.1,1.2c0,0.1,0,0.3,0,0.4l0,0c0-0.1-0.1-0.1-0.1-0.1c0,0-0.1-0.1-0.2-0.1
	c0,0-0.1,0-0.1,0l0,0c-0.2,0-0.1,0,0-0.1c0.1,0,0.3-0.1,0.4-0.2c0.3-0.2,0.6-0.4,0.9-0.6c0.6-0.5,1.2-1,1.8-1.6l0.1-0.1h0.1
	c0.5-0.3,1-0.6,1.4-1s0.9-0.7,1.4-1c0.9-0.7,1.8-1.5,2.6-2.3C73.3,100.5,74.9,98.8,76.5,97z"/>
<polygon class="st8" points="58,96.6 62.1,96.1 58.6,98.4 "/>
<path class="st15" d="M61.2,101.4"/>
<polygon class="st8" points="60.8,100.5 67.6,98.3 61.6,102.3 "/>
<path class="st15" d="M62.1,105"/>
<polygon class="st8" points="61.7,104.1 70.6,99.9 62.8,105.8 "/>
<path class="st8" d="M44.2,91c0,0,1.2-0.6,3-1.3c2.2-0.9,4.5-1.7,6.9-2.3c0.6-0.2,1.3-0.3,1.9-0.4s1.3-0.2,1.8-0.3l1.7-0.2l1.6-0.1
	c0.5,0,0.9,0,1.3,0c0.3,0,0.7,0,1,0.1l0.9,0.1h-0.9c-0.3,0-0.7,0-1,0c-0.4,0-0.8,0-1.3,0.1l-1.5,0.2c-0.5,0.1-1.1,0.2-1.7,0.4
	s-1.2,0.3-1.8,0.5s-1.2,0.4-1.8,0.6c-2.2,0.8-4.3,1.8-6.4,2.8c-1.7,0.9-2.8,1.5-2.8,1.5L44.2,91z"/>
<path class="st8" d="M66.4,90.7l11.8,2c3.5,0.6,7.7,1.3,12.1,2s9.1,1.4,13.9,2.1s9.4,1.3,13.9,1.7c2.2,0.2,4.4,0.4,6.4,0.6
	c2,0.1,4,0.2,5.8,0.3s3.4,0,4.9,0s2.7-0.2,3.7-0.3c0.8-0.1,1.6-0.3,2.4-0.5l0.8-0.2l-0.8,0.3c-0.8,0.3-1.6,0.5-2.4,0.6
	c-1,0.2-2.3,0.4-3.8,0.5s-3.1,0.2-4.9,0.2s-3.7,0-5.8-0.1s-4.2-0.2-6.4-0.4c-4.5-0.4-9.2-1-14-1.6s-9.4-1.5-13.9-2.2
	s-8.5-1.6-12-2.3s-6.4-1.4-8.5-1.8L66.4,90.7z"/>
<path class="st8" d="M144,103.1c0,0,0.8-0.5,2-1.2c1.5-0.8,3.1-1.4,4.7-1.9c0.4-0.1,0.9-0.2,1.3-0.4s0.9-0.2,1.3-0.2
	s0.8-0.1,1.2-0.1s0.8,0,1.1,0l0.9,0.1c0.2,0,0.5,0.1,0.7,0.1l0.6,0.1l-0.6-0.1c-0.2,0-0.5-0.1-0.7-0.1h-0.9l-1.1,0.1
	c-0.4,0.1-0.8,0.2-1.2,0.2s-0.8,0.2-1.2,0.4s-0.8,0.3-1.2,0.5c-1.5,0.6-2.9,1.4-4.3,2.3c-1.1,0.8-1.8,1.3-1.8,1.3
	c-0.3,0.3-0.8,0.2-1.1-0.1C143.5,103.9,143.6,103.5,144,103.1C143.9,103.2,143.9,103.2,144,103.1L144,103.1L144,103.1z"/>
<path class="st8" d="M141.6,107.9c0,0,2.7-1.3,5.5-2.5c1.4-0.6,2.8-1.1,3.9-1.4c0.2-0.1,0.5-0.1,0.8-0.2c0.2-0.1,0.4-0.1,0.6-0.1
	c0.1,0,0.3,0,0.4,0l0,0c-0.1,0-0.2,0-0.4,0.1c-0.2,0-0.4,0.1-0.6,0.2c-0.2,0.1-0.4,0.2-0.7,0.3c-1,0.4-2.3,1.2-3.6,1.9
	c-2.6,1.5-5.1,3.1-5.1,3.1c-0.3,0.2-0.8,0.1-1-0.2C141.1,108.7,141.2,108.2,141.6,107.9L141.6,107.9z"/>
<path class="st8" d="M41.6,89c0-0.1-0.1-0.1-0.1-0.2c0-0.3-0.2-0.5-0.5-0.6c0,0-0.4-0.1-0.5-0.1c-0.2-0.1-0.5-0.1-0.7,0
	c-0.3,0.1-0.5,0.2-0.8,0.3c-0.4,0.2-0.7,0.6-0.8,1c-0.2,0.2-0.2,0.6,0.1,0.8c0.6,0.4,1.3,0.6,2,0.5c0.2,0,0.5-0.1,0.6-0.3
	c0.2-0.3,0.4-0.7,0.5-1.1C41.5,89.4,41.7,89.1,41.6,89z"/>
<path class="st8" d="M179.5,72.1c0,0.4,0,0.8-0.1,1.2c-0.1,0.3-0.2,0.6-0.4,0.9c-0.2,0.3-0.6,0.4-0.8,0.7c-0.5,0.5-0.8,1-1.1,1.6
	c-0.1,0.2-0.2,0.4-0.2,0.6l-0.1,0.3l-0.3,0l-0.1-0.3c0-0.1-0.1-0.2-0.1-0.3c0-0.1-0.1-0.3-0.1-0.4c0-0.4,0-0.8,0.1-1.1
	c0.1-0.4,0.2-0.8,0.4-1.2c0.1-0.4,0.3-0.8,0.5-1.2c0.2-0.3,0.5-0.5,0.9-0.7c0.4-0.2,0.8-0.3,1.2-0.2L179.5,72.1z"/>
<path class="st8" d="M173.2,74.5l-0.1-0.1c0-0.2-0.1-0.3-0.3-0.3l-0.3-0.1c-0.1,0-0.3,0-0.4,0c-0.4,0.1-0.8,0.4-1,0.8
	c-0.1,0.2-0.1,0.4,0,0.5c0.3,0.2,0.8,0.4,1.2,0.3c0.1,0,0.3,0,0.4-0.2c0.1-0.1,0.2-0.2,0.2-0.4c0-0.1,0.1-0.2,0.1-0.2
	C173.1,74.8,173.2,74.6,173.2,74.5z"/>
<path class="st8" d="M56.5,73.4c-1.2,0.6-2.4,1.2-3.7,1.6c-1.3,0.5-2.6,0.8-3.9,1.2c-0.7,0.1-1.5,0.3-2.3,0.4s-1.6,0.2-2.4,0.3
	c-1.6,0.2-3.2,0.4-4.7,0.5c-0.8,0.1-1.5,0.1-2.2,0.1s-1.3,0-2-0.1c-0.5,0-1.1-0.1-1.6-0.2c-0.4,0-0.8-0.1-1.2-0.2l-1.1-0.3v-0.1
	l1.1,0.2c0.4,0.1,0.8,0.1,1.2,0.1c0.5,0,1.1,0,1.6,0c0.6,0,1.2,0,1.9-0.1s1.4-0.1,2.1-0.2c1.5-0.2,3-0.5,4.6-0.8s3.1-0.7,4.5-1.1
	s2.8-0.6,4-0.8c2.3-0.4,4-0.6,4-0.6L56.5,73.4z"/>
<path class="st8" d="M49.7,80.2l-0.1-0.1c0-0.2-0.1-0.3-0.3-0.3l-0.3-0.1c-0.1,0-0.3,0-0.4,0c-0.2,0-0.3,0.1-0.5,0.2
	c-0.2,0.1-0.4,0.3-0.5,0.6c-0.1,0.2-0.1,0.4,0,0.5c0.3,0.2,0.8,0.4,1.2,0.3c0.1,0,0.3-0.1,0.4-0.2c0.1-0.1,0.2-0.2,0.2-0.4
	c0-0.1,0.1-0.2,0.1-0.2C49.7,80.4,49.8,80.3,49.7,80.2z"/>
</svg>
