<svg xmlns="http://www.w3.org/2000/svg" viewBox="0 0 909.16 208.57"><defs><style>.cls-1{fill:#f2f2f3;}.cls-2{fill:#5e5eaa;}</style></defs><title>hiv_logo_purple</title><g id="text_-_purple" data-name="text - purple"><path class="cls-1" d="M339.71,56.68v7.89H305.82v89.28h-9.26V64.57H262.81V56.68Z" transform="translate(-7.03 -5.56)"/><path class="cls-1" d="M354.4,56.68V70.42h-8.57V56.68Zm0,26.94v70.23h-8.57V83.62Z" transform="translate(-7.03 -5.56)"/><path class="cls-1" d="M374,83.62V95.46h.41a26.86,26.86,0,0,1,8.91-10.2q5.52-3.67,14.09-3.68A24,24,0,0,1,410,85a16.71,16.71,0,0,1,7.55,10.35A21.53,21.53,0,0,1,426.8,85a26.6,26.6,0,0,1,13.07-3.4q23.26,0,23.27,24.63v47.64h-8.57V106.62q0-8.7-3.68-13.27T438,88.79a18.43,18.43,0,0,0-9.25,2.11,16.26,16.26,0,0,0-5.85,5.65,23.9,23.9,0,0,0-3.07,8.1,49.53,49.53,0,0,0-.88,9.46v39.74h-8.58V106.21a30,30,0,0,0-.74-6.73,15.73,15.73,0,0,0-2.45-5.58,11.6,11.6,0,0,0-4.56-3.74,16,16,0,0,0-6.94-1.37,21.14,21.14,0,0,0-9.46,2,17.28,17.28,0,0,0-6.53,5.44,24.16,24.16,0,0,0-3.75,8.17,40.91,40.91,0,0,0-1.22,10.27v39.2h-8.57V83.62Z" transform="translate(-7.03 -5.56)"/><path class="cls-1" d="M481,130.64a26.18,26.18,0,0,0,4.15,8.92,23.57,23.57,0,0,0,7.21,6.53,20.18,20.18,0,0,0,10.48,2.58q9.39,0,14.7-4.9a25.79,25.79,0,0,0,7.34-13.06h8.58q-2.73,12-10,18.51t-20.62,6.53a32.71,32.71,0,0,1-14.36-2.92,26.44,26.44,0,0,1-9.87-8A34.91,34.91,0,0,1,473,133a53.62,53.62,0,0,1-1.84-14.23,50.74,50.74,0,0,1,1.84-13.6,36.38,36.38,0,0,1,5.64-11.91,28.36,28.36,0,0,1,9.87-8.44,30.37,30.37,0,0,1,14.36-3.2A27.75,27.75,0,0,1,527,93.9a36.84,36.84,0,0,1,5.38,12.65,55.62,55.62,0,0,1,1.36,14.5h-54A37.69,37.69,0,0,0,481,130.64Zm42.46-26.19a25.81,25.81,0,0,0-4.43-8,22,22,0,0,0-6.94-5.58,19.91,19.91,0,0,0-9.25-2.11,20.24,20.24,0,0,0-9.39,2.11,22,22,0,0,0-6.94,5.58,27.68,27.68,0,0,0-4.56,8,39,39,0,0,0-2.25,9.33H525.2A31,31,0,0,0,523.5,104.45Z" transform="translate(-7.03 -5.56)"/><path class="cls-1" d="M601.54,83.62v7.22H587.25V138.2a15.4,15.4,0,0,0,1.16,6.6c.77,1.58,2.7,2.47,5.79,2.65a66.74,66.74,0,0,0,7.34-.41v7.21c-1.27,0-2.54.05-3.81.14s-2.54.14-3.81.14c-5.71,0-9.71-1.11-12-3.34s-3.36-6.33-3.27-12.31v-48H566.43V83.62h12.25V62.53h8.57V83.62Z" transform="translate(-7.03 -5.56)"/><path class="cls-1" d="M653.05,84.58a31.06,31.06,0,0,1,10.42,8,34.83,34.83,0,0,1,6.39,11.78,48.35,48.35,0,0,1,0,28.71,34.69,34.69,0,0,1-6.39,11.77,30.3,30.3,0,0,1-10.42,8,36.08,36.08,0,0,1-28.44,0,30.17,30.17,0,0,1-10.41-8,34.71,34.71,0,0,1-6.4-11.77,48.57,48.57,0,0,1,0-28.71,34.85,34.85,0,0,1,6.4-11.78,30.92,30.92,0,0,1,10.41-8,35.2,35.2,0,0,1,28.44,0Zm-25,6.8a23.61,23.61,0,0,0-7.69,6.8,31.21,31.21,0,0,0-4.63,9.6,39.25,39.25,0,0,0,0,21.91,30.94,30.94,0,0,0,4.63,9.59,23.53,23.53,0,0,0,7.69,6.81,23.69,23.69,0,0,0,21.5,0,23.43,23.43,0,0,0,7.69-6.81,30.72,30.72,0,0,0,4.63-9.59,39,39,0,0,0,0-21.91,31,31,0,0,0-4.63-9.6,23.51,23.51,0,0,0-7.69-6.8,23.6,23.6,0,0,0-21.5,0Z" transform="translate(-7.03 -5.56)"/><path class="cls-2" d="M781.32,56.68v7.89H747.43v89.28h-9.25V64.57H704.43V56.68Z" transform="translate(-7.03 -5.56)"/><path class="cls-2" d="M770.71,94.51a20.13,20.13,0,0,1,5.92-7.35,25.14,25.14,0,0,1,8.78-4.22,43,43,0,0,1,11.16-1.36,49.2,49.2,0,0,1,9.25.89,22.44,22.44,0,0,1,8.3,3.33,18.18,18.18,0,0,1,6,6.87q2.31,4.42,2.31,11.5v37.29q0,5.17,5,5.17a6.67,6.67,0,0,0,2.72-.54v7.21c-1,.18-1.88.32-2.65.41a26.07,26.07,0,0,1-2.93.14,13,13,0,0,1-5.24-.89,7,7,0,0,1-3.06-2.52,9.39,9.39,0,0,1-1.43-3.87,33,33,0,0,1-.34-5h-.27a57.81,57.81,0,0,1-4.7,6.05,23.23,23.23,0,0,1-5.31,4.43,24.61,24.61,0,0,1-6.66,2.72,36.83,36.83,0,0,1-8.92.95,35.13,35.13,0,0,1-9.18-1.16,20.57,20.57,0,0,1-7.49-3.67,17.52,17.52,0,0,1-5-6.4,21.15,21.15,0,0,1-1.84-9.18q0-7.35,3.26-11.5a20.52,20.52,0,0,1,8.65-6.33,49.33,49.33,0,0,1,12.11-3.06q6.74-.89,13.68-1.7c1.81-.18,3.4-.41,4.76-.68a8.43,8.43,0,0,0,3.4-1.43,6.6,6.6,0,0,0,2.11-2.79,12,12,0,0,0,.75-4.63,15.66,15.66,0,0,0-1.43-7.14,11.3,11.3,0,0,0-3.95-4.43,15.76,15.76,0,0,0-5.85-2.24,39.3,39.3,0,0,0-7.14-.62q-8.18,0-13.34,3.88t-5.44,12.46h-8.58A28.49,28.49,0,0,1,770.71,94.51Zm42.87,21a5,5,0,0,1-3.13,2.18,32.63,32.63,0,0,1-4.09.95q-5.45.95-11.22,1.7a61.31,61.31,0,0,0-10.55,2.25,20.67,20.67,0,0,0-7.83,4.28c-2,1.86-3.06,4.52-3.06,8a12.41,12.41,0,0,0,1.3,5.79,13.8,13.8,0,0,0,3.47,4.35,15,15,0,0,0,5,2.79,18.29,18.29,0,0,0,5.85.95,29.4,29.4,0,0,0,9.39-1.49,23.1,23.1,0,0,0,7.83-4.36,20.69,20.69,0,0,0,7.28-16.19V115.47Z" transform="translate(-7.03 -5.56)"/><path class="cls-2" d="M843.52,56.68v97.17h-8.58V56.68Z" transform="translate(-7.03 -5.56)"/><path class="cls-2" d="M863.79,56.68v61l38.93-34h11.43l-29.94,26,32,44.23H905.44L877.68,115.6l-13.89,11.57v26.68h-8.57V56.68Z" transform="translate(-7.03 -5.56)"/></g><g id="heart_-_purple" data-name="heart - purple"><path class="cls-2" d="M93.69,189.08c9.12,8.1,18.14,16.31,27,24.73.62.59.87.23,1.26-.14q13.2-12.54,26.83-24.59Z" transform="translate(-7.03 -5.56)"/><path class="cls-2" d="M85.78,51.91H234.1a56.93,56.93,0,0,0-19.31-32.62,57.68,57.68,0,0,0-33.3-13.45A58.73,58.73,0,0,0,155,9.62c-12.12,4.75-21.72,12.72-29.46,23.07-1.51,2-2.87,4.11-4.2,6.24-.39-.17-.48-.51-.64-.76a71.18,71.18,0,0,0-12.39-15.26c-16.63-15.3-36-20.8-58-15.23S12.68,30.6,8.32,51.91Z" transform="translate(-7.03 -5.56)"/><path class="cls-2" d="M170.11,59.8v89.28h-9.26V59.8H81.44v89.28H72.18V59.8H7.23Q7.14,61,7.11,62.14A124.47,124.47,0,0,0,8.57,85.83,84,84,0,0,0,19,115.46c5.33,9.08,12.14,17,19.53,24.38,9.07,9.1,18.76,17.5,28.47,25.9q8.89,7.69,17.76,15.44h31.91V91.91h9.26v89.27h31.77c12.25-10.7,24.69-21.18,36.68-32.18a195.8,195.8,0,0,0,21.37-22.3,85.46,85.46,0,0,0,16.1-31.28,111.88,111.88,0,0,0,3.49-25.48c.1-3.39.11-6.77-.12-10.14Z" transform="translate(-7.03 -5.56)"/></g></svg>