<svg id="logo" xmlns="http://www.w3.org/2000/svg" viewBox="0 0 361.99 311.94"><defs><style>.cls-1,.cls-2,.cls-3,.cls-4{fill:none;stroke-miterlimit:10;}.cls-1,.cls-2{stroke:#000;}.cls-1{stroke-linecap:round;}.cls-1,.cls-2,.cls-4{stroke-width:10px;}.cls-3{stroke:#f1670c;stroke-width:6px;}.cls-4{stroke:#1898d5;}.cls-5{fill:#146484;}.cls-6{fill:#1898d5;}</style></defs><title>logo_thermosecurity</title><g id="shield_copy" data-name="shield copy"><g id="thermometer"><path class="cls-1" d="M182.17,192.8a19.25,19.25,0,0,1-19.24-19.24,18.85,18.85,0,0,1,4.53-12.45" transform="translate(-0.41 -2.33)"/><path class="cls-1" d="M195.8,160l0-47.68v-6.64" transform="translate(-0.41 -2.33)"/><path class="cls-1" d="M167.46,105.66V160" transform="translate(-0.41 -2.33)"/><path class="cls-1" d="M167.46,105.09a14.15,14.15,0,0,1,28.29,0" transform="translate(-0.41 -2.33)"/></g><g id="Layer_18_copy_2" data-name="Layer 18 copy 2"><path class="cls-2" d="M180.47,193.08l3.06-.84s38.05-17.91,42.53-40.3S230,83.11,230,83.11L182.15,64.92" transform="translate(-0.41 -2.33)"/></g><g id="Layer_18_copy_2-2" data-name="Layer 18 copy 2"><path class="cls-2" d="M150.9,170.35c-5.38-5.5-9.67-11.76-11-18.41C135.42,129.56,136,83.11,136,83.11l47.85-18.19" transform="translate(-0.41 -2.33)"/></g></g><g id="orange_shield" data-name="orange shield"><g id="Layer_18_copy_3" data-name="Layer 18 copy 3"><path class="cls-3" d="M182,231s62.43-29.84,69.56-65.48S257.79,56,257.79,56L181.66,27" transform="translate(-0.41 -2.33)"/></g><g id="Layer_18_copy_4" data-name="Layer 18 copy 4"><path class="cls-3" d="M184,231s-62.61-29.84-69.74-65.48S108,56,108,56L184.16,27" transform="translate(-0.41 -2.33)"/></g></g><g id="blue_shield" data-name="blue shield"><g id="Layer_18_copy_5" data-name="Layer 18 copy 5"><path class="cls-4" d="M181.82,251s74.67-35.69,83.2-78.31,7.45-131.06,7.45-131.06L181.42,7" transform="translate(-0.41 -2.33)"/></g><g id="Layer_18_copy_5-2" data-name="Layer 18 copy 5"><path class="cls-4" d="M184.21,251s-74.89-35.69-83.41-78.31S93.34,41.63,93.34,41.63L184.4,7" transform="translate(-0.41 -2.33)"/></g></g><path class="cls-5" d="M4.11,273.47H.41v-5.29h3.7v-7.8h6.54v7.8h7.62v5.29H10.65v17.36c0,2.33.91,3.3,3.64,3.3h4v5.4H13.15c-5.57,0-9-2.33-9-8.7Z" transform="translate(-0.41 -2.33)"/><path class="cls-5" d="M18.56,257.42H25v14.4a12.43,12.43,0,0,1,9.73-4.15c7,0,12.47,4.61,12.47,13.37v18.49H40.81V282c0-5.75-3.13-8.71-7.86-8.71S25,276.26,25,282v17.52H18.56Z" transform="translate(-0.41 -2.33)"/><path class="cls-5" d="M63.28,300c-9,0-15.65-6.37-15.65-16.21S54,267.67,63.28,267.67c8.93,0,15.25,6.2,15.25,15.42a20,20,0,0,1-.23,3.18H54.35a8.62,8.62,0,0,0,8.93,8.31,7.6,7.6,0,0,0,7.4-4.38h7C75.91,295.66,71,300,63.28,300ZM54.4,281H71.76c-.12-4.84-3.93-7.91-8.76-7.91C58.61,273.13,55.09,276.09,54.4,281Z" transform="translate(-0.41 -2.33)"/><path class="cls-5" d="M85.7,299.53H79.21V268.18H85.7v4.55c1.82-3.13,5-5.06,9.39-5.06v6.71H93.44c-4.78,0-7.74,2-7.74,8.65Z" transform="translate(-0.41 -2.33)"/><path class="cls-5" d="M139.81,282c0-5.75-3.13-8.71-7.85-8.71s-7.91,3-7.91,8.71v17.52h-6.43V282c0-5.75-3.13-8.71-7.85-8.71s-7.91,3-7.91,8.71v17.52H95.37V268.18h6.49v3.58a11.93,11.93,0,0,1,9.27-4.09c5,0,9.11,2.1,11.27,6.2,1.93-3.81,6.37-6.2,10.92-6.2,7.34,0,12.92,4.61,12.92,13.37v18.49h-6.43Z" transform="translate(-0.41 -2.33)"/><path class="cls-5" d="M162.4,300c-8.94,0-15.71-6.37-15.71-16.21s7.06-16.16,16-16.16,16,6.31,16,16.16S171.39,300,162.4,300Zm0-5.63c4.83,0,9.61-3.47,9.61-10.58s-4.61-10.53-9.44-10.53-9.28,3.41-9.28,10.53S157.5,294.41,162.4,294.41Z" transform="translate(-0.41 -2.33)"/><path class="cls-6" d="M190.79,300c-7.51,0-12.8-4.43-13.09-10.12h6.72c.22,2.56,2.67,4.66,6.25,4.66,3.76,0,5.75-1.59,5.75-3.75,0-6.15-18.21-2.62-18.21-14.12,0-5,4.67-9,12.07-9,7.11,0,11.77,3.81,12.12,10.07h-6.49c-.23-2.73-2.33-4.61-5.86-4.61s-5.29,1.42-5.29,3.53c0,6.31,17.69,2.79,18,14.11C202.79,296.06,198.19,300,190.79,300Z" transform="translate(-0.41 -2.33)"/><path class="cls-6" d="M217.59,300c-9,0-15.65-6.37-15.65-16.21s6.37-16.16,15.65-16.16c8.93,0,15.25,6.2,15.25,15.42a20,20,0,0,1-.23,3.18h-24a8.63,8.63,0,0,0,8.94,8.31c4,0,6.2-1.93,7.39-4.38h7C230.22,295.66,225.27,300,217.59,300Zm-8.88-19h17.36c-.12-4.84-3.93-7.91-8.77-7.91C212.92,273.13,209.39,276.09,208.71,281Z" transform="translate(-0.41 -2.33)"/><path class="cls-6" d="M246.72,267.67c7.68,0,12.69,3.81,14.45,10.41h-7c-1.08-3-3.58-4.95-7.45-4.95-5.24,0-8.71,3.87-8.71,10.7s3.47,10.75,8.71,10.75c3.87,0,6.26-1.71,7.45-4.95h7c-1.76,6.15-6.77,10.41-14.45,10.41-9,0-15.36-6.37-15.36-16.21S237.73,267.67,246.72,267.67Z" transform="translate(-0.41 -2.33)"/><path class="cls-6" d="M290.36,299.53h-6.49v-3.75A11.66,11.66,0,0,1,274.6,300c-7.34,0-12.92-4.61-12.92-13.37V268.18h6.43v17.47c0,5.74,3.13,8.7,7.85,8.7s7.91-3,7.91-8.7V268.18h6.49Z" transform="translate(-0.41 -2.33)"/><path class="cls-6" d="M299.69,299.53h-6.48V268.18h6.48v4.55c1.82-3.13,4.95-5.06,9.39-5.06v6.71h-1.65c-4.78,0-7.74,2-7.74,8.65Z" transform="translate(-0.41 -2.33)"/><path class="cls-6" d="M308.51,259.87a4.13,4.13,0,1,1,4.15,4.16A4.1,4.1,0,0,1,308.51,259.87Zm.85,8.31h6.49v31.35h-6.49Z" transform="translate(-0.41 -2.33)"/><path class="cls-6" d="M319.72,273.47H316v-5.29h3.7v-7.8h6.54v7.8h7.63v5.29h-7.63v17.36c0,2.33.91,3.3,3.64,3.3h4v5.4h-5.12c-5.58,0-9-2.33-9-8.7Z" transform="translate(-0.41 -2.33)"/><path class="cls-6" d="M355.68,268.18h6.71l-19.23,46.09h-6.71L342.82,299l-12.35-30.84h7.23l8.82,23.9Z" transform="translate(-0.41 -2.33)"/></svg>