<svg id="logo" xmlns="http://www.w3.org/2000/svg" viewBox="0 0 189.22 252.87"><defs><style>.cls-1,.cls-2,.cls-3,.cls-4{fill:none;stroke-miterlimit:10;}.cls-1,.cls-2{stroke:#000;}.cls-1{stroke-linecap:round;}.cls-1,.cls-2,.cls-4{stroke-width:10px;}.cls-3{stroke:#f1670c;stroke-width:6px;}.cls-4{stroke:#1898d5;}</style></defs><title>logo_thermosecurity_symbol</title><g id="shield_copy" data-name="shield copy"><g id="thermometer"><path class="cls-1" d="M95.17,192.8a19.25,19.25,0,0,1-19.24-19.24,18.85,18.85,0,0,1,4.53-12.45" transform="translate(-1.3 -2.66)"/><path class="cls-1" d="M108.8,160l0-47.68v-6.64" transform="translate(-1.3 -2.66)"/><path class="cls-1" d="M80.46,105.66V160" transform="translate(-1.3 -2.66)"/><path class="cls-1" d="M80.46,105.09a14.15,14.15,0,0,1,28.29,0" transform="translate(-1.3 -2.66)"/></g><g id="Layer_18_copy_2-2" data-name="Layer 18 copy 2"><path class="cls-2" d="M63.9,170.35c-5.38-5.5-9.67-11.76-11-18.41C48.42,129.56,49,83.11,49,83.11L96,65h0l47,18.11s.56,46.45-3.92,68.83-42.53,40.3-42.53,40.3l-3.06.84" transform="translate(-1.3 -2.66)"/></g></g><g id="orange_shield" data-name="orange shield"><g id="Layer_18_copy_4" data-name="Layer 18 copy 4"><path class="cls-3" d="M96,231s-61.61-29.84-68.74-65.48S21,56,21,56L96,28h0l74.79,28s.89,73.94-6.23,109.57S96,231,96,231Z" transform="translate(-1.3 -2.66)"/></g></g><g id="blue_shield" data-name="blue shield"><g id="Layer_18_copy_5-2" data-name="Layer 18 copy 5"><path class="cls-4" d="M96,250s-73.68-34.69-82.2-77.31S6.34,41.63,6.34,41.63L96,8h0l89.47,33.63s1.07,88.44-7.45,131.06S96,250,96,250Z" transform="translate(-1.3 -2.66)"/></g></g></svg>