<svg xmlns="http://www.w3.org/2000/svg" viewBox="0 0 250 96.75"><defs><style>.cls-1{fill:#fff;}</style></defs><title>graphic_logo</title><g id="Layer_2" data-name="Layer 2"><g id="logos"><path id="logo_v2" class="cls-1" d="M235.79,10.14C227,2.22,214,.14,195.27.14c-10.32,0,5.53,0-15.7-.08-16.34,0-17.47-1.63-25.46,11.81l-.1.19c-7.24,14.45-14.44,28.92-22,44.1a2.81,2.81,0,0,1-5,.08c-.36-.66-.69-1.3-1-1.94-8.2-16.46-16.26-33-24.71-49.33C100.18,2.84,97.13.4,94.93.35,79.06,0,63.17-.15,47.32.39,27,1.08,12.11,11.34,4.26,29.77-3.35,47.63-.82,65,12.31,80c13.47,15.34,30.56,19.9,50,14.71C85.39,88.53,100.75,63.62,95.42,42a2.75,2.75,0,0,0-2.68-2C84,40,75,39.89,66.1,40.06a7.43,7.43,0,0,0-4.77,2c-2.67,2.76-5.18,5.68-8.11,9.09a2.8,2.8,0,0,0,2.11,4.63H77.19a2.13,2.13,0,0,1,2.14,1.92,1.32,1.32,0,0,1,0,.41,31.55,31.55,0,0,1-36.4,22.3C26.31,77.27,15,62.63,16.41,46.12,17.87,29.2,31,16.49,47.72,16.22c12-.2,23.93.2,35.88-.09,4.39-.11,6.54,1.53,8.34,5.34,4.42,9.35,9.21,18.53,14,27.71,6.9,13.36,13.88,26.68,21.38,41a2.8,2.8,0,0,0,5,0C144.31,66.7,157,43.42,169,20.46A6.38,6.38,0,0,1,174.76,17l21.33.25c24.43,0,37.06,7.61,37,28.15S221.61,79.77,196.49,80c-3.69,0-5.8.1-8.19,0a3.13,3.13,0,0,1-2.9-2.76v-46a2.8,2.8,0,0,0-2.79-2.8H170.07a2.8,2.8,0,0,0-2.8,2.8v60.3c0,2.31,2.06,4.24,4.75,4.46,5.5.44,11.75.7,18.89.7,19.59,0,35.15-4.89,44.58-14S250,60.84,250,45,244.76,18.07,235.79,10.14Z"/></g></g></svg>