<svg xmlns="http://www.w3.org/2000/svg" viewBox="0 0 881.33 233.7"><defs><style>.cls-1{font-size:82px;font-family:Roboto-Thin, Roboto;font-weight:200;letter-spacing:0.17em;}.cls-1,.cls-2,.cls-4{fill:#231f20;}.cls-2{font-size:80px;font-family:Roboto-Light, Roboto;font-weight:300;}.cls-3{fill:#00aced;}.cls-3,.cls-4{stroke:#00aced;stroke-linecap:round;stroke-miterlimit:10;stroke-width:5px;}</style></defs><title>modern_link_logo</title><g id="Text"><text class="cls-1" transform="translate(202.19 85.16)">MODERN LINK</text><text class="cls-2" transform="translate(384.42 166.33)">Media</text></g><g id="Graphic"><path id="Line_1" data-name="Line 1" class="cls-3" d="M40.82,155a4.42,4.42,0,1,1-4.42-4.41A4.42,4.42,0,0,1,40.82,155Zm66.53,92.81a4.42,4.42,0,1,0,4.42,4.41A4.41,4.41,0,0,0,107.35,247.85ZM36.53,155.22,107,251.73" transform="translate(-29.48 -25.49)"/><path id="Line_2" data-name="Line 2" class="cls-3" d="M218.08,203.48a4.42,4.42,0,1,1-4.42-4.42A4.41,4.41,0,0,1,218.08,203.48ZM37,155.22,214,204.74" transform="translate(-29.48 -25.49)"/><path id="Line_3" data-name="Line 3" class="cls-3" d="M174.93,32.41A4.42,4.42,0,1,1,170.51,28,4.41,4.41,0,0,1,174.93,32.41Zm39,172.33L170.47,32.25" transform="translate(-29.48 -25.49)"/><path id="Line_4" data-name="Line 4" class="cls-3" d="M91,110.32a4.42,4.42,0,1,1-4.42-4.42A4.42,4.42,0,0,1,91,110.32Zm79.67-78-84.09,78" transform="translate(-29.48 -25.49)"/><path id="Line_5" data-name="Line 5" class="cls-4" d="M86.53,110.32,394,200.13m.72-4.21a4.42,4.42,0,1,0,4.42,4.42A4.42,4.42,0,0,0,394.75,195.92Z" transform="translate(-29.48 -25.49)"/></g></svg>